<svg xmlns="http://www.w3.org/2000/svg" xml:space="preserve" id="Layer_1" width="177.328" height="52.691" x="0" y="0" version="1.1" viewBox="1.672 64.498 177.328 52.691"><g id="XMLID_29_"><path id="XMLID_42_" fill="#3A3A3A" d="M68.774 85.993c-2.53 0-4.455-.679-5.784-2.063-1.327-1.387-1.993-3.352-1.993-5.885 0-1.26.208-2.385.608-3.379.401-.994.961-1.836 1.654-2.514.686-.681 1.542-1.202 2.5-1.543a9.443 9.443 0 0 1 3.175-.525c.663 0 1.247.055 1.78.129.528.109 1.011.212 1.414.344.396.131.748.257 1.006.394.265.133.453.235.59.312l-1.013 2.775a7.12 7.12 0 0 0-1.674-.63c-.647-.183-1.364-.257-2.161-.257a4.7 4.7 0 0 0-1.573.257 4.04 4.04 0 0 0-1.358.836c-.396.394-.718.89-.956 1.517-.245.631-.348 1.362-.348 2.255 0 .704.081 1.358.241 1.96.162.602.399 1.127.775 1.568.341.447.788.789 1.384 1.049.559.259 1.252.391 2.047.391.51 0 .957-.025 1.361-.076a8.862 8.862 0 0 0 1.061-.211c.324-.08.59-.184.829-.289.241-.103.452-.21.638-.287l.961 2.75c-.507.287-1.198.544-2.076.781-.86.231-1.888.341-3.088.341z"/><path id="XMLID_41_" fill="#3A3A3A" d="M80.704 85.92c-.959-.037-1.754-.111-2.372-.318-.613-.207-1.093-.464-1.435-.812-.354-.335-.589-.757-.726-1.256-.131-.492-.184-1.046-.184-1.676V69.114l3.329-.526V81.23c0 .285.028.548.083.786.05.235.131.443.266.601.135.156.316.289.558.394.242.104.559.158.962.21l-.481 2.699z"/><path id="XMLID_40_" fill="#3A3A3A" d="M86.741 70.764c0 .604-.18 1.071-.58 1.412a2.08 2.08 0 0 1-1.412.529 2.145 2.145 0 0 1-1.417-.529c-.393-.341-.579-.808-.579-1.412s.187-1.069.579-1.414c.405-.342.86-.525 1.417-.525.529 0 1.011.184 1.412.525.37.344.58.81.58 1.414zm-.31 14.947h-3.329V74.115h3.329v11.596z"/><path id="XMLID_39_" fill="#3A3A3A" d="M89.571 74.508c.556-.158 1.307-.312 2.205-.443a19.426 19.426 0 0 1 2.828-.211c1.012 0 1.838.133 2.504.39.666.265 1.203.633 1.572 1.103.396.473.666 1.025.823 1.674.162.652.242 1.361.242 2.174v6.543H96.41V79.56c0-1.045-.127-1.808-.418-2.253-.295-.441-.826-.646-1.598-.646-.248 0-.511 0-.773.021-.27.03-.508.052-.725.083v8.947H89.57V74.508h.001z"/><path id="XMLID_38_" fill="#3A3A3A" d="M106.434 70.764c0 .604-.197 1.071-.6 1.412a2.05 2.05 0 0 1-1.404.529 2.133 2.133 0 0 1-1.41-.529c-.397-.341-.584-.808-.584-1.412s.187-1.069.584-1.414a2.066 2.066 0 0 1 1.41-.525c.537 0 1.012.184 1.404.525.402.344.6.81.6 1.414zm-.321 14.947h-3.336V74.115h3.336v11.596z"/><path id="XMLID_37_" fill="#3A3A3A" d="M108.691 79.898a6.5 6.5 0 0 1 .426-2.382 5.489 5.489 0 0 1 1.197-1.937c.539-.547 1.147-.998 1.918-1.309a6.582 6.582 0 0 1 2.563-.498c.636 0 1.197.048 1.729.155a7.975 7.975 0 0 1 1.521.474l-.696 2.617a15.74 15.74 0 0 0-1.052-.312c-.364-.105-.793-.131-1.243-.131-.99 0-1.726.312-2.212.917-.477.602-.715 1.383-.715 2.38 0 1.046.238 1.86.688 2.435.453.572 1.246.862 2.4.862.396 0 .824-.029 1.307-.104a7.111 7.111 0 0 0 1.277-.342l.475 2.695a7.374 7.374 0 0 1-1.465.42c-.588.135-1.223.178-1.918.178-1.061 0-1.99-.148-2.766-.465-.775-.317-1.412-.733-1.924-1.281a4.768 4.768 0 0 1-1.088-1.939c-.314-.756-.422-1.569-.422-2.433z"/><path id="XMLID_36_" fill="#3A3A3A" d="M124.947 83.066c.5 0 .898-.056 1.213-.133.326-.083.594-.184.777-.34.184-.134.315-.316.396-.496.078-.184.104-.395.104-.631 0-.496-.232-.915-.715-1.254-.48-.342-1.306-.684-2.479-1.071-.507-.188-1.021-.37-1.521-.604a6.034 6.034 0 0 1-1.354-.865 3.734 3.734 0 0 1-.981-1.258c-.277-.492-.382-1.096-.382-1.801 0-.709.142-1.334.41-1.912a3.738 3.738 0 0 1 1.142-1.439 5.523 5.523 0 0 1 1.782-.918c.688-.205 1.49-.311 2.369-.311 1.045 0 1.949.105 2.719.34.771.206 1.38.47 1.894.732l-1.014 2.72a8.885 8.885 0 0 0-1.441-.569 6.55 6.55 0 0 0-1.918-.264c-.824 0-1.439.101-1.812.342-.373.231-.557.574-.557 1.041 0 .291.08.529.213.709.135.186.318.365.557.525.244.15.537.287.855.418.316.128.658.257 1.062.394.801.286 1.521.575 2.1.858.594.29 1.1.628 1.502.996.396.393.691.838.875 1.34.188.521.299 1.146.299 1.877 0 1.414-.516 2.54-1.516 3.327-1.025.782-2.562 1.174-4.615 1.174-.689 0-1.309-.05-1.869-.124a16.299 16.299 0 0 1-1.453-.291 6.416 6.416 0 0 1-1.1-.367c-.316-.135-.555-.269-.775-.367l.996-2.725c.453.261 1.037.475 1.701.68.685.186 1.542.267 2.536.267z"/><path id="XMLID_35_" fill="#3A3A3A" d="M144.486 79.898c0 .888-.111 1.703-.351 2.434a5.317 5.317 0 0 1-.981 1.884 4.26 4.26 0 0 1-1.623 1.227c-.643.294-1.387.44-2.211.44-.451 0-.902-.048-1.31-.121a6.18 6.18 0 0 1-1.172-.367v4.373h-3.325V74.503c.286-.075.641-.183 1.043-.26a17.53 17.53 0 0 1 1.221-.206c.424-.051.854-.105 1.309-.133.451-.027.85-.051 1.27-.051.965 0 1.845.133 2.613.42.77.287 1.418.678 1.918 1.204a4.778 4.778 0 0 1 1.197 1.909c.268.76.402 1.596.402 2.512zm-3.406.108c0-1.023-.244-1.836-.697-2.437-.451-.6-1.148-.913-2.051-.913-.295 0-.588 0-.818.024-.268.026-.457.052-.641.079v5.914c.213.133.477.232.822.338.342.105.66.129 1.002.129 1.588.001 2.383-1.042 2.383-3.134z"/><path id="XMLID_34_" fill="#3A3A3A" d="M158.092 79.873c0 .913-.121 1.754-.391 2.512a5.356 5.356 0 0 1-1.174 1.936 5.96 5.96 0 0 1-1.832 1.258c-.719.291-1.525.439-2.404.439s-1.648-.148-2.369-.439a4.96 4.96 0 0 1-1.838-1.258c-.508-.52-.91-1.18-1.205-1.936-.293-.758-.418-1.599-.418-2.512 0-.919.125-1.757.418-2.486a5.565 5.565 0 0 1 1.205-1.909 5.3 5.3 0 0 1 1.838-1.234 6.271 6.271 0 0 1 2.32-.442c.842 0 1.623.156 2.346.442a5.388 5.388 0 0 1 1.832 1.234c.512.521.914 1.179 1.195 1.909.319.759.477 1.595.477 2.486zm-3.397 0c0-1.018-.219-1.803-.621-2.38-.404-.581-.99-.866-1.76-.866-.769 0-1.355.285-1.781.866-.428.577-.637 1.383-.637 2.38 0 1.021.209 1.806.637 2.404.426.603 1.014.892 1.781.892.77 0 1.354-.289 1.76-.892.403-.574.621-1.382.621-2.404z"/><path id="XMLID_33_" fill="#3A3A3A" d="m160.547 71.209 3.334-.521v3.402h4.016v2.72h-4.016v4.085c0 .681.121 1.225.363 1.648.248.417.748.627 1.492.627.342 0 .721-.029 1.123-.104.367-.081.723-.16 1.037-.293l.479 2.571a8.526 8.526 0 0 1-1.355.417 8.611 8.611 0 0 1-1.807.182c-.904 0-1.686-.135-2.271-.365a3.634 3.634 0 0 1-1.442-1.016 4.014 4.014 0 0 1-.742-1.577 9.335 9.335 0 0 1-.209-2.036l-.002-9.74z"/><path id="XMLID_32_" fill="#3A3A3A" d="M174.029 83.327c.598 0 1.025-.056 1.295-.187.27-.1.377-.342.377-.677 0-.264-.158-.499-.512-.706-.318-.211-.818-.421-1.49-.682a11.604 11.604 0 0 1-1.404-.602c-.428-.206-.807-.441-1.098-.735a3.008 3.008 0 0 1-.687-1.016c-.172-.392-.243-.864-.243-1.444 0-1.097.403-1.934 1.221-2.588.82-.627 1.943-.939 3.383-.939.709 0 1.406.049 2.053.184.66.129 1.174.261 1.564.414l-.588 2.566a8.3 8.3 0 0 0-1.271-.338 7.05 7.05 0 0 0-1.551-.157c-1.024 0-1.563.29-1.563.86 0 .135.024.268.073.342a.7.7 0 0 0 .271.288c.133.106.315.21.561.317.244.105.525.23.879.366.746.261 1.332.522 1.809.782.478.262.855.551 1.146.839.27.288.479.63.588.993.109.366.158.787.158 1.281 0 1.154-.426 2.02-1.307 2.592-.881.581-2.113.893-3.701.893-1.037 0-1.918-.08-2.613-.264-.686-.184-1.172-.316-1.441-.444l.562-2.673c.562.213 1.148.395 1.758.523a6.829 6.829 0 0 0 1.771.212z"/><path id="XMLID_31_" fill="#53AF4D" d="M106.434 70.764c0 .604-.197 1.071-.6 1.412a2.05 2.05 0 0 1-1.404.529 2.133 2.133 0 0 1-1.41-.529c-.397-.341-.584-.808-.584-1.412s.187-1.069.584-1.414a2.066 2.066 0 0 1 1.41-.525c.537 0 1.012.184 1.404.525.402.344.6.81.6 1.414z"/><path id="XMLID_30_" fill="#53AF4D" d="M86.741 70.764c0 .604-.18 1.071-.58 1.412a2.08 2.08 0 0 1-1.412.529 2.145 2.145 0 0 1-1.417-.529c-.393-.341-.579-.808-.579-1.412s.187-1.069.579-1.414c.405-.342.86-.525 1.417-.525.529 0 1.011.184 1.412.525.37.344.58.81.58 1.414z"/></g><g fill="#53AF4D"><path d="M117.549 101.961v3.268c-.002.336-.004.336-.344.338-.67.013-.67.013-.67-.67 0-.785.002-1.571 0-2.358-.004-.283-.008-.291-.299-.291-.965-.002-1.932-.002-2.898 0-.297 0-.305.006-.305.323-.002.884 0 1.767-.002 2.648 0 .344-.004.344-.332.348-.693.015-.693.015-.693-.69V98.67c.008-.301.01-.301.289-.31.736-.022.736-.022.736.729 0 .677.01 1.351-.002 2.027-.004.19.051.264.252.262 1.01-.01 2.016-.008 3.023-.002.178.002.235-.06.231-.235-.007-.814-.002-1.627 0-2.441 0-.332.004-.332.338-.338.674-.012.674-.012.674.662.002.978.002 1.956.002 2.937zM80.004 101.963v3.27c0 .33-.006.33-.34.334-.67.013-.67.013-.67-.668 0-.787.002-1.571-.002-2.358 0-.285-.006-.293-.301-.293a698.42 698.42 0 0 0-2.895 0c-.316 0-.322.006-.324.317-.002.884.002 1.767 0 2.648-.002.352-.004.352-.365.354-.65.009-.65.009-.65-.649v-6.086c0-.097.004-.192.002-.289-.006-.115.037-.185.162-.181.016 0 .029 0 .041-.002.811-.069.811-.069.811.734 0 .648-.002 1.297 0 1.945.002.326.006.33.307.332.979.004 1.959-.004 2.938.006.213.002.285-.062.281-.281-.012-.801-.006-1.602-.002-2.402 0-.327.002-.327.338-.334.67-.01.67-.01.67.664l-.001 2.939zM138.48 97.527v2.678c.463-.088.891-.201 1.336-.174.322.02.635.062.928.188.533.227.85.641.998 1.191.076.279.125.566.127.857.002.994.002 1.985 0 2.979 0 .314-.008.314-.316.32-.662.018-.662.018-.662-.64 0-.743 0-1.487-.002-2.233 0-.318-.01-.633-.092-.943-.139-.518-.426-.77-.957-.826-.357-.041-.711.012-1.064.068-.25.043-.305.156-.305.389.012 1.227.01 2.455.004 3.682 0 .578.072.498-.502.504-.07 0-.139-.006-.207.002-.225.029-.274-.079-.272-.286.004-2.453.004-4.908-.002-7.361 0-.211.067-.293.274-.31.218-.02.429-.094.714-.085zM96.211 101.104a3.239 3.239 0 0 0-1.33-.239 1.512 1.512 0 0 0-.559.127c-.414.188-.5.651-.184.983.178.187.409.279.641.367.385.15.779.279 1.143.48.645.357.906.951.756 1.67-.08.393-.291.682-.637.869-.145.08-.297.156-.453.19a4.629 4.629 0 0 1-2.449-.075c-.203-.062-.244-.162-.203-.361.109-.564.105-.568.646-.396.484.154.979.143 1.473.098a.966.966 0 0 0 .24-.063c.467-.168.58-.67.229-1.022-.188-.189-.436-.289-.674-.398-.363-.162-.738-.303-1.096-.482-.576-.291-.832-.771-.771-1.424.054-.564.354-.949.854-1.174.802-.359 1.619-.23 2.433-.029.112.027.153.113.116.223-.066.202-.056.431-.175.656zM98.852 98.465c0 .492.008.945-.006 1.396-.004.209.057.295.279.287.496-.015.992.008 1.486-.008.225-.007.287.071.279.286-.021.646.069.525-.515.535-.428.006-.854.006-1.28 0-.175-.004-.25.056-.246.236.012.883-.009 1.764.028 2.646.031.725.371.998 1.101.969.317-.014.617-.112.901-.229.031.058.054.078.06.103.209.75.18.803-.601.944a3.32 3.32 0 0 1-1.112.013c-.688-.107-1.103-.513-1.261-1.193a3.976 3.976 0 0 1-.088-.863c0-1.545 0-3.088.004-4.633 0-.32.002-.322.328-.385.189-.034.379-.061.643-.104zM134.234 98.465c0 .496.008.951-.006 1.402-.008.219.065.287.278.281.496-.013.994.002 1.49-.004.188-.006.276.043.272.252-.016.701.06.555-.524.565-.414.006-.828.006-1.24 0-.187-.006-.276.035-.276.246.014.867.014 1.735.018 2.604.002.154.039.302.088.445a.734.734 0 0 0 .584.52c.35.07.689.029 1.021-.075.102-.031.205-.072.301-.104.031.026.062.041.068.062.225.771.194.832-.599.975a3.362 3.362 0 0 1-1.11.007c-.688-.109-1.107-.523-1.254-1.203a4.028 4.028 0 0 1-.091-.863c.004-1.531.002-3.062.002-4.594 0-.349.002-.351.345-.412.188-.036.378-.063.633-.104zM146.898 101.121a2.804 2.804 0 0 0-1.336-.203c-.642.055-1.082.385-1.293.992a2.858 2.858 0 0 0-.008 1.867c.18.545.562.867 1.12.986.443.092.88.053 1.312-.056.117-.028.233-.063.342-.097.072.084.062.173.078.252.119.613.115.607-.477.726a5.01 5.01 0 0 1-1.152.078c-1.088-.043-1.947-.711-2.244-1.758a3.68 3.68 0 0 1-.012-2.002c.364-1.324 1.487-2.037 2.916-1.855.246.031.483.099.729.148.178.036.264.125.195.319-.062.185-.103.373-.17.603zM108.205 101.107a2.864 2.864 0 0 0-1.219-.197c-.746.037-1.24.43-1.432 1.15a2.973 2.973 0 0 0 .022 1.672c.18.58.571.92 1.17 1.037.558.108 1.092.004 1.642-.166.034.16.069.305.092.453.062.387.061.395-.304.481-.579.144-1.17.196-1.76.076-.946-.197-1.567-.767-1.842-1.699a3.582 3.582 0 0 1-.019-1.998c.371-1.336 1.476-2.041 2.906-1.867.275.033.545.084.809.173.127.041.181.116.136.248-.068.208-.08.432-.201.637zM130.451 101.102c0-1.049.004-2.096-.004-3.145-.002-.213.045-.311.279-.352.713-.121.711-.135.711.562v5.588c0 .123-.004.25.002.373.021.412.131.567.537.67.205.05.268.104.225.326-.111.578.02.627-.689.487-.684-.135-1-.518-1.047-1.241-.027-.345-.014-.688-.014-1.033v-2.235zM88.764 97.504c.062.197.039.35.039.498.002 1.932.002 3.861.002 5.793 0 .137-.002.275.01.412.029.307.178.506.49.586.307.08.303.092.26.369-.094.57-.113.584-.68.455-.666-.152-.963-.482-1.033-1.162a6.845 6.845 0 0 1-.027-.537v-5.832c0-.424 0-.424.434-.504.163-.029.325-.053.505-.078zM153.672 102.971c0-.771.002-1.543-.004-2.313-.002-.187.029-.308.236-.363.848-.237 1.699-.354 2.572-.174.274.06.276.057.229.353-.011.055-.017.106-.024.163-.076.392-.076.386-.486.318a3.514 3.514 0 0 0-1.193.004c-.35.062-.352.063-.352.418-.002 1.229-.002 2.453-.002 3.681 0 .084-.006.166.002.248.016.184-.035.288-.25.268a2.144 2.144 0 0 0-.453 0c-.225.023-.283-.078-.279-.285.008-.703.004-1.406.004-2.107v-.211zM90.686 102.803c0-.785-.004-1.572 0-2.357 0-.288.008-.301.299-.299.845.008.675-.102.683.66.01 1.433.002 2.865.002 4.301l-.002.289c.002.119-.058.17-.174.17-.183-.002-.361-.012-.539.007-.229.02-.272-.087-.271-.291.005-.826.002-1.654.002-2.48zM103.055 102.887c0 .785.002 1.572-.002 2.357 0 .316-.006.326-.314.322-.782-.012-.645.119-.651-.648-.006-1.434 0-2.867 0-4.301v-.291c0-.115.054-.164.172-.182.716-.107.798-.043.798.674-.003.69-.003 1.379-.003 2.069zM102.178 98.553a.635.635 0 0 1 .672-.631c.392.01.656.307.639.709a.642.642 0 0 1-.674.633c-.393-.01-.653-.303-.637-.711zM91.236 99.264a.647.647 0 0 1-.65-.66.651.651 0 0 1 .674-.682c.393.008.658.299.643.705a.635.635 0 0 1-.667.637zM161.773 101.105a1.831 1.831 0 0 0-1.056-.937c-1.288-.453-2.622.146-3.116 1.416-.324.842-.314 1.699-.015 2.547.272.775.84 1.246 1.629 1.443a3.74 3.74 0 0 0 1.763.016c.807-.187.832-.026.582-1.018-.619.211-1.226.305-1.854.194-.742-.129-1.229-.662-1.285-1.406-.012-.155.024-.229.197-.223.231.006.467 0 .702 0 .828 0 1.65.002 2.479 0 .13-.002.291.039.293-.182.013-.635-.028-1.266-.319-1.85zm-3.326 1.225c.031-.877.693-1.523 1.475-1.467.703.049 1.162.623 1.139 1.467h-2.614zM123.479 101.363c-.192-.529-.526-.941-1.057-1.152-1.125-.445-2.594-.107-3.186 1.268-.322.752-.348 1.529-.16 2.312.262 1.08 1.006 1.74 2.109 1.859a4.58 4.58 0 0 0 1.565-.084c.586-.137.586-.133.479-.726-.047-.264-.047-.266-.304-.192-.512.146-1.024.217-1.555.131-.787-.127-1.231-.568-1.354-1.344-.037-.261-.021-.291.238-.293.51-.007 1.018-.002 1.531-.002.551 0 1.102-.005 1.654.002.168.002.256-.043.252-.23-.005-.525-.029-1.049-.212-1.549zm-3.446.969c.031-.842.664-1.521 1.475-1.469.709.047 1.16.607 1.145 1.469h-2.62zM86.371 101.889c-.311-1.1-1.193-1.82-2.27-1.854-1.188-.037-2.105.567-2.488 1.668a3.441 3.441 0 0 0 .047 2.469c.387.979 1.236 1.543 2.283 1.55 1.047.008 1.889-.548 2.305-1.515.186-.429.248-.875.25-1.373a3.724 3.724 0 0 0-.127-.945zm-1.152 2.191c-.266.488-.666.756-1.234.764-.584.008-1.023-.24-1.273-.758-.391-.805-.385-1.631.004-2.432.244-.504.674-.746 1.24-.748s.977.25 1.25.736c.215.383.277.805.271 1.194.002.465-.055.873-.258 1.244zM128.889 105.217c.002-.564.002-1.131.002-1.695h-.02c0-.606.029-1.213-.01-1.817-.055-.912-.549-1.44-1.432-1.615-.552-.108-1.097-.06-1.644.033-.572.099-.562.101-.479.68.026.205.098.259.293.199a3.82 3.82 0 0 1 1.186-.135c.662.018 1.014.321 1.127.973.098.543.074.562-.475.478-.672-.103-1.32-.035-1.937.26a1.408 1.408 0 0 0-.75.842c-.338 1.012.188 1.953 1.231 2.174.922.195 1.838.039 2.752-.092.191-.029.156-.168.156-.285zm-1.149-.403c-.479.022-.961.086-1.434-.041-.431-.119-.617-.344-.646-.75-.029-.375.164-.689.553-.828.504-.182 1.027-.146 1.547-.06.127.021.186.097.182.229-.006.207 0 .412 0 .619 0 .192-.006.387.002.578.001.15-.048.246-.204.253zM152.092 102.109c0-.166-.014-.33-.031-.496-.1-.842-.569-1.348-1.397-1.521-.565-.116-1.127-.065-1.688.029-.555.096-.555.103-.469.651.043.275.047.283.311.218a4.084 4.084 0 0 1 1.273-.123c.41.026.748.194.92.594.121.283.166.578.102.892-.178.026-.336-.023-.498-.047-.629-.086-1.241-.027-1.823.225-.429.186-.746.494-.853.955-.184.818-.006 1.863 1.283 2.113.15.028.301.059.451.065.719.026 1.432-.041 2.145-.146.236-.035.285-.133.281-.348-.011-1.018-.005-2.039-.007-3.061zm-.953 2.45c.008.146-.035.246-.195.256-.477.023-.961.086-1.434-.041-.443-.121-.637-.364-.648-.789-.012-.375.188-.668.589-.801.493-.168 1.004-.131 1.508-.049.129.02.188.096.183.227-.007.209 0 .414 0 .619-.003.195-.009.386-.003.578z"/></g><g fill="#393838"><path d="M28.018 64.498c-14.55 0-26.346 11.795-26.346 26.346 0 14.549 11.796 26.346 26.346 26.346 14.551 0 26.346-11.797 26.346-26.346-.001-14.551-11.795-26.346-26.346-26.346zm17.514 37.604c-3.304 4.888-7.822 8.045-13.642 9.056-7.134 1.235-13.326-.816-18.425-5.957-3.196-3.222-5.059-7.148-5.673-11.646-1.441-10.566 5.5-20.525 15.915-22.87 9.089-2.045 18.411 2.259 22.787 10.522a20.722 20.722 0 0 1 1.67 4.229c.027.247.085 1.157-.548 1.16-1.453.003-2.907.003-4.36.002-1.812-.005-2.013-.94-2.013-.94-.005.008-.005.013-.01.02-1.517-3.689-4.11-6.37-7.872-7.854-8.149-3.22-17.019 1.729-18.793 10.098-1.605 7.576 3.153 14.983 10.723 16.604 5.046 1.078 9.414-.377 13.052-4.01 1.181-1.183 2.075-2.562 2.741-4.086l.011.014s.381-.894 1.365-.894h.002c1.544-.002 3.086 0 4.632-.004 0 0 1.104.179 1.078.767-.584 2.06-1.437 4.007-2.64 5.789zm-7.155-9.598c.323.053.519-.109.737-.299.257-.221.409-.59.816-.609-.008.998-.236 1.957-.593 2.875-1.622 4.182-4.658 6.707-9.072 7.459-4.959.848-9.799-1.641-12.117-6.035-.002 0-.004 0-.006-.002l-.047-.092c-.006-.014-.014-.023-.021-.037l.001-.002c-.133-.289-.352-.959.363-1.047l-.028-.021c1.586.002 3.173.007 4.761-.006.277-.004.457.092.645.281 1.066 1.076 2.333 1.779 3.849 1.973 2.635.332 5.362-1.062 6.556-3.586.017-.039.043-.08-.018-.162h-.436c-4.059 0-8.115.002-12.172-.002 0 0-3.184.232-4.097-.178-.035-.014-.066-.034-.098-.053l-.032-.018c-.006-.004-.004-.006-.009-.012-.319-.25-.433-.847-.433-.847a9.912 9.912 0 0 1-.09-2.943c.383-3.484 2.006-6.277 4.908-8.247 6.021-4.09 14.027-1.829 17.159 4.676.044.187.117.665-.188.843-1.633.002-3.265-.006-4.896.009-.281.002-.46-.095-.647-.285-.951-.976-2.06-1.698-3.393-2.042-2.93-.752-6.216.926-7.33 3.738-.015.039-.017.084-.027.14.156.077.319.04.474.04 5.028.002 10.055.002 15.083 0l.033.002-.033.014s.058-.006.136-.009c.142.004.284.012.426.022.506.072 1.196.346 1.374 1.285.031.164.064.25.096.295a.388.388 0 0 1-.112.178c-.525.533-.974 1.137-1.488 1.682a1 1 0 0 1-.782.332c-1.255-.018-2.509.031-3.763-.032 1.514.187 3.008.484 4.511.722z"/><path d="M16.937 92.086h-.01l.011.004z"/></g><g><path fill="#55B34E" d="m46.291 91.061-2.983-2.348c-.815-.641-1.576-1.059-1.69-.929l-.487.56c-.613.697-2.025 2.305-2.631 3.008-.18.209-.385.283-.661.281-1.486-.012-2.972-.006-4.458-.002h-.102c-.117.035.289.16.9.275l.555.096c1.299.219 2.599.43 3.898.652.267.043.481-.002.682-.213l.305-.316a28.22 28.22 0 0 0 1.443-1.494l.404-.441c.225-.246.238-.242.484-.035l3.247 2.729c1.683 1.416 3.116 2.584 3.183 2.593.067.01 1.005-1.791 1.667-3.89 0 0 1.556-4.933 2.731-9.369l.025-.096c.077-.102.272 1.611.433 3.805l1.825 24.818c.161 2.194.382 4.039.49 4.098.108.062.671-1.6 1-3.774l2.468-16.314c.329-2.176.815-3.758 1.08-3.52.265.24 1.018.949 1.169 1.049.15.102.626.17.634.17.008 0 .238-.004.492-.014l.232-.002c2.91-.017 5.819-.029 8.728-.045 5.962-.029 11.923-.06 17.885-.088 5.883-.029 11.764-.062 17.648-.091 6.704-.03 13.409-.063 20.112-.096 5.172-.022 10.342-.05 15.515-.072 2.672-.012 5.344-.019 8.018-.028 3.764-.017 7.525-.029 11.291-.052l.725-.004c.797-.03 1.371-.078 1.275-.104l-.088-.002c-2.527-.032-5.058-.065-7.588-.1l-14.607-.18-8.395-.107-14.703-.182c-2.514-.031-5.027-.066-7.541-.1-5.217-.062-10.435-.125-15.652-.191-2.449-.029-4.901-.064-7.351-.096-4.932-.062-9.865-.121-14.797-.183-3.573-.044-7.146-.091-10.719-.127a.852.852 0 0 1-.594-.221l-.935-.812c-.926-1.051-1.818-1.873-1.982-1.824-.165.047-.848 1.947-1.151 4.127l-.975 6.986c-.304 2.18-.563 3.961-.576 3.959s-.167-1.802-.312-3.996l-1.527-23.02c-.146-2.195-.334-3.969-.419-3.939-.085.027-.809 1.86-1.428 3.971l-3.582 12.592c-.619 2.11-1.349 3.655-1.622 3.435a52.357 52.357 0 0 0-.988-.787"/></g></svg>