<?xml version="1.0" encoding="UTF-8"?>
<svg xmlns="http://www.w3.org/2000/svg" xmlns:xlink="http://www.w3.org/1999/xlink" width="165px" height="51px" viewBox="0 0 164 51" version="1.1">
<g id="surface1">
<path style=" stroke:none;fill-rule:nonzero;fill:rgb(50.196081%,50.196081%,51.372552%);fill-opacity:1;" d="M 44.824219 38.90625 L 46.738281 38.90625 C 47.578125 38.90625 48.214844 38.992188 48.707031 39.34375 C 49.199219 39.664062 49.546875 40.1875 49.546875 40.886719 C 49.546875 41.527344 49.257812 42.082031 48.792969 42.402344 C 48.476562 42.636719 48.070312 42.753906 47.636719 42.839844 L 50.039062 46.105469 L 49.316406 46.105469 L 46.96875 42.871094 L 45.433594 42.871094 L 45.433594 46.105469 L 44.824219 46.105469 Z M 46.910156 42.375 C 47.664062 42.375 48.128906 42.257812 48.476562 41.964844 C 48.792969 41.703125 48.9375 41.355469 48.9375 40.917969 C 48.9375 40.390625 48.707031 40.042969 48.359375 39.78125 C 47.984375 39.519531 47.492188 39.460938 46.707031 39.460938 L 45.433594 39.460938 L 45.433594 42.375 Z M 51.402344 39.953125 C 51.140625 39.953125 50.96875 39.75 50.96875 39.488281 C 50.96875 39.226562 51.171875 39.050781 51.429688 39.050781 C 51.691406 39.050781 51.867188 39.253906 51.867188 39.519531 C 51.835938 39.75 51.664062 39.953125 51.402344 39.953125 Z M 51.113281 41.207031 L 51.691406 41.207031 L 51.691406 46.105469 L 51.113281 46.105469 Z M 53.664062 47.386719 C 54.125 47.675781 54.648438 47.851562 55.167969 47.851562 C 56.242188 47.851562 56.9375 47.210938 56.9375 46.105469 L 56.9375 45.578125 L 56.90625 45.578125 C 56.53125 45.898438 55.980469 46.132812 55.371094 46.132812 C 54.039062 46.132812 53.023438 45.140625 53.023438 43.683594 C 53.023438 42.316406 53.921875 41.089844 55.488281 41.089844 C 56.039062 41.089844 56.53125 41.265625 56.90625 41.46875 L 57.457031 41.382812 L 57.457031 46.105469 C 57.457031 47.472656 56.589844 48.40625 55.109375 48.40625 C 54.558594 48.40625 54.011719 48.261719 53.605469 48.027344 L 53.605469 47.386719 Z M 56.9375 42.054688 C 56.589844 41.820312 56.066406 41.644531 55.515625 41.644531 C 54.386719 41.644531 53.664062 42.519531 53.664062 43.65625 C 53.664062 44.792969 54.386719 45.609375 55.488281 45.609375 C 56.039062 45.609375 56.589844 45.375 56.964844 44.996094 L 56.964844 42.054688 Z M 59.226562 38.496094 L 59.804688 38.496094 L 59.804688 41.878906 L 59.832031 41.878906 C 60.328125 41.410156 60.964844 41.0625 61.6875 41.0625 C 62.238281 41.0625 62.644531 41.238281 62.933594 41.558594 C 63.222656 41.878906 63.367188 42.285156 63.367188 43.015625 L 63.367188 46.046875 L 62.789062 46.046875 L 62.789062 43.101562 C 62.789062 42.492188 62.703125 42.167969 62.46875 41.9375 C 62.269531 41.703125 61.976562 41.585938 61.601562 41.585938 C 60.90625 41.585938 60.296875 41.964844 59.804688 42.460938 L 59.804688 46.046875 L 59.226562 46.046875 Z M 67.570312 46.046875 C 67.394531 46.132812 67.105469 46.21875 66.789062 46.21875 C 66.441406 46.21875 66.035156 46.132812 65.746094 45.8125 C 65.484375 45.519531 65.398438 45.085938 65.398438 44.441406 L 65.398438 41.734375 L 64.410156 41.734375 L 64.410156 41.207031 L 65.398438 41.207031 L 65.398438 39.839844 L 65.976562 39.75 L 65.976562 41.238281 L 67.542969 41.238281 L 67.542969 41.761719 L 65.976562 41.761719 L 65.976562 44.355469 C 65.976562 45.085938 66.09375 45.695312 66.847656 45.695312 C 67.105469 45.695312 67.339844 45.636719 67.542969 45.519531 L 67.542969 46.046875 Z M 71.191406 38.90625 L 73.019531 38.90625 C 74.175781 38.90625 75.046875 39.140625 75.742188 39.632812 C 76.609375 40.246094 77.160156 41.296875 77.160156 42.492188 C 77.160156 43.65625 76.640625 44.617188 75.914062 45.230469 C 75.21875 45.8125 74.261719 46.105469 72.902344 46.105469 L 71.191406 46.105469 Z M 72.988281 45.550781 C 74.03125 45.550781 74.871094 45.347656 75.507812 44.820312 C 76.148438 44.296875 76.582031 43.453125 76.582031 42.492188 C 76.582031 41.46875 76.117188 40.625 75.453125 40.101562 C 74.84375 39.632812 74.03125 39.460938 72.988281 39.460938 L 71.828125 39.460938 L 71.828125 45.550781 Z M 72.988281 45.550781 "/>
<path style=" stroke:none;fill-rule:nonzero;fill:rgb(50.196081%,50.196081%,51.372552%);fill-opacity:1;" d="M 80.609375 41.089844 C 82.058594 41.089844 83.128906 42.199219 83.128906 43.65625 C 83.128906 45.113281 82.058594 46.21875 80.609375 46.21875 C 79.160156 46.21875 78.089844 45.113281 78.089844 43.65625 C 78.089844 42.199219 79.160156 41.089844 80.609375 41.089844 Z M 80.609375 45.667969 C 81.710938 45.667969 82.550781 44.792969 82.550781 43.65625 C 82.550781 42.492188 81.710938 41.644531 80.609375 41.644531 C 79.507812 41.644531 78.667969 42.519531 78.667969 43.65625 C 78.667969 44.792969 79.507812 45.667969 80.609375 45.667969 Z M 80.609375 45.667969 "/>
<path style=" stroke:none;fill-rule:nonzero;fill:rgb(50.196081%,50.196081%,51.372552%);fill-opacity:1;" d="M 88.144531 45.839844 C 87.738281 46.074219 87.214844 46.21875 86.695312 46.21875 C 85.1875 46.21875 84.113281 45.140625 84.113281 43.683594 C 84.113281 42.199219 85.214844 41.121094 86.722656 41.121094 C 87.214844 41.121094 87.679688 41.238281 88.054688 41.441406 L 88.054688 42.054688 C 87.648438 41.789062 87.1875 41.644531 86.722656 41.644531 C 85.507812 41.644531 84.695312 42.519531 84.695312 43.683594 C 84.695312 44.851562 85.535156 45.695312 86.722656 45.695312 C 87.300781 45.695312 87.765625 45.519531 88.144531 45.230469 Z M 92.082031 46.046875 C 91.910156 46.132812 91.621094 46.21875 91.300781 46.21875 C 90.953125 46.21875 90.546875 46.132812 90.257812 45.8125 C 89.996094 45.519531 89.910156 45.085938 89.910156 44.441406 L 89.910156 41.734375 L 88.953125 41.734375 L 88.953125 41.207031 L 89.9375 41.207031 L 89.9375 39.839844 L 90.519531 39.75 L 90.519531 41.238281 L 92.082031 41.238281 L 92.082031 41.761719 L 90.519531 41.761719 L 90.519531 44.355469 C 90.519531 45.085938 90.632812 45.695312 91.386719 45.695312 C 91.648438 45.695312 91.878906 45.636719 92.082031 45.519531 Z M 92.082031 46.046875 "/>
<path style=" stroke:none;fill-rule:nonzero;fill:rgb(50.196081%,50.196081%,51.372552%);fill-opacity:1;" d="M 95.300781 41.089844 C 96.75 41.089844 97.820312 42.199219 97.820312 43.65625 C 97.820312 45.113281 96.75 46.21875 95.300781 46.21875 C 93.851562 46.21875 92.777344 45.113281 92.777344 43.65625 C 92.777344 42.199219 93.851562 41.089844 95.300781 41.089844 Z M 95.300781 45.667969 C 96.402344 45.667969 97.242188 44.792969 97.242188 43.65625 C 97.242188 42.492188 96.402344 41.644531 95.300781 41.644531 C 94.199219 41.644531 93.359375 42.519531 93.359375 43.65625 C 93.359375 44.792969 94.199219 45.667969 95.300781 45.667969 Z M 95.300781 45.667969 "/>
<path style=" stroke:none;fill-rule:nonzero;fill:rgb(50.196081%,50.196081%,51.372552%);fill-opacity:1;" d="M 99.152344 41.207031 L 99.734375 41.207031 L 99.734375 41.996094 L 99.761719 41.996094 C 100.136719 41.5 100.6875 41.148438 101.328125 41.148438 C 101.441406 41.148438 101.53125 41.148438 101.617188 41.179688 L 101.617188 41.734375 C 101.53125 41.703125 101.414062 41.703125 101.296875 41.703125 C 100.632812 41.703125 100.109375 42.054688 99.734375 42.664062 L 99.734375 46.074219 L 99.152344 46.074219 Z M 107.5 38.90625 L 109.410156 38.90625 C 110.25 38.90625 110.886719 38.992188 111.382812 39.34375 C 111.875 39.664062 112.222656 40.1875 112.222656 40.886719 C 112.222656 41.527344 111.929688 42.082031 111.46875 42.402344 C 111.148438 42.636719 110.742188 42.753906 110.308594 42.839844 L 112.714844 46.105469 L 111.988281 46.105469 L 109.640625 42.871094 L 108.105469 42.871094 L 108.105469 46.105469 L 107.5 46.105469 Z M 109.613281 42.375 C 110.367188 42.375 110.832031 42.257812 111.179688 41.964844 C 111.480469 41.703125 111.648438 41.316406 111.640625 40.917969 C 111.640625 40.390625 111.410156 40.042969 111.0625 39.78125 C 110.683594 39.519531 110.191406 39.460938 109.410156 39.460938 L 108.136719 39.460938 L 108.136719 42.375 Z M 114.074219 39.953125 C 113.816406 39.953125 113.640625 39.75 113.640625 39.488281 C 113.640625 39.226562 113.84375 39.050781 114.105469 39.050781 C 114.367188 39.050781 114.539062 39.253906 114.539062 39.519531 C 114.539062 39.75 114.335938 39.953125 114.074219 39.953125 Z M 113.785156 41.207031 L 114.367188 41.207031 L 114.367188 46.105469 L 113.785156 46.105469 Z M 116.363281 47.386719 C 116.828125 47.675781 117.351562 47.851562 117.871094 47.851562 C 118.945312 47.851562 119.640625 47.210938 119.640625 46.105469 L 119.640625 45.578125 L 119.609375 45.578125 C 119.234375 45.898438 118.683594 46.132812 118.074219 46.132812 C 116.742188 46.132812 115.726562 45.140625 115.726562 43.683594 C 115.726562 42.316406 116.625 41.089844 118.191406 41.089844 C 118.742188 41.089844 119.203125 41.265625 119.640625 41.46875 L 120.21875 41.382812 L 120.21875 46.105469 C 120.21875 47.472656 119.347656 48.40625 117.871094 48.40625 C 117.292969 48.40625 116.769531 48.261719 116.363281 48.027344 Z M 119.609375 42.054688 C 119.261719 41.820312 118.742188 41.644531 118.191406 41.644531 C 117.058594 41.644531 116.335938 42.519531 116.335938 43.65625 C 116.335938 44.792969 117.058594 45.609375 118.160156 45.609375 C 118.710938 45.609375 119.261719 45.375 119.609375 44.996094 Z M 121.929688 38.496094 L 122.507812 38.496094 L 122.507812 41.878906 L 122.535156 41.878906 C 123.027344 41.410156 123.667969 41.0625 124.417969 41.0625 C 124.96875 41.0625 125.375 41.238281 125.664062 41.558594 C 125.957031 41.878906 126.101562 42.285156 126.101562 43.015625 L 126.101562 46.046875 L 125.519531 46.046875 L 125.519531 43.101562 C 125.519531 42.492188 125.433594 42.167969 125.203125 41.9375 C 125 41.703125 124.710938 41.585938 124.332031 41.585938 C 123.636719 41.585938 123.027344 41.964844 122.535156 42.460938 L 122.535156 46.046875 L 121.957031 46.046875 L 121.957031 38.496094 Z M 130.273438 46.046875 C 130.097656 46.132812 129.808594 46.21875 129.492188 46.21875 C 129.144531 46.21875 128.738281 46.132812 128.449219 45.8125 C 128.1875 45.519531 128.101562 45.085938 128.101562 44.441406 L 128.101562 41.734375 L 127.113281 41.734375 L 127.113281 41.207031 L 128.101562 41.207031 L 128.101562 39.839844 L 128.679688 39.75 L 128.679688 41.238281 L 130.242188 41.238281 L 130.242188 41.761719 L 128.679688 41.761719 L 128.679688 44.355469 C 128.679688 45.085938 128.796875 45.695312 129.546875 45.695312 C 129.808594 45.695312 130.039062 45.636719 130.242188 45.519531 Z M 136.097656 38.90625 L 136.675781 38.90625 L 139.660156 46.105469 L 139.023438 46.105469 L 138.152344 43.949219 L 134.648438 43.949219 L 133.777344 46.105469 L 133.171875 46.105469 Z M 137.167969 41.617188 L 136.386719 39.632812 L 136.359375 39.632812 L 135.574219 41.617188 L 134.851562 43.394531 L 137.894531 43.394531 Z M 144.066406 45.636719 C 143.71875 45.957031 143.167969 46.21875 142.5 46.21875 C 141.195312 46.21875 140.183594 45.257812 140.183594 43.742188 C 140.183594 42.316406 141.136719 41.089844 142.675781 41.089844 C 143.253906 41.089844 143.6875 41.265625 144.066406 41.441406 L 144.09375 41.441406 L 144.09375 38.496094 L 144.671875 38.496094 L 144.671875 46.105469 L 144.09375 46.105469 Z M 144.09375 42.023438 C 143.71875 41.789062 143.226562 41.617188 142.703125 41.617188 C 141.484375 41.617188 140.761719 42.546875 140.761719 43.683594 C 140.761719 44.820312 141.484375 45.667969 142.585938 45.667969 C 143.167969 45.667969 143.6875 45.433594 144.09375 45.054688 Z M 149.945312 41.207031 L 150.554688 41.207031 L 148.46875 46.105469 L 147.890625 46.105469 L 145.804688 41.207031 L 146.441406 41.207031 L 147.457031 43.625 L 148.179688 45.347656 L 148.207031 45.347656 L 148.933594 43.625 Z M 152.003906 39.953125 C 151.773438 39.953125 151.570312 39.75 151.570312 39.488281 C 151.570312 39.226562 151.773438 39.050781 152.035156 39.050781 C 152.265625 39.050781 152.46875 39.253906 152.46875 39.519531 C 152.4375 39.75 152.234375 39.953125 152.003906 39.953125 Z M 151.714844 41.207031 L 152.292969 41.207031 L 152.292969 46.105469 L 151.714844 46.105469 Z M 157.65625 45.839844 C 157.25 46.074219 156.726562 46.21875 156.207031 46.21875 C 154.699219 46.21875 153.625 45.140625 153.625 43.683594 C 153.625 42.199219 154.726562 41.121094 156.234375 41.121094 C 156.726562 41.121094 157.191406 41.238281 157.566406 41.441406 L 157.566406 42.054688 C 157.160156 41.789062 156.699219 41.644531 156.234375 41.644531 C 155.019531 41.644531 154.207031 42.519531 154.207031 43.683594 C 154.207031 44.851562 155.046875 45.695312 156.234375 45.695312 C 156.8125 45.695312 157.308594 45.519531 157.65625 45.230469 Z M 159.25 43.800781 C 159.335938 44.96875 160.175781 45.667969 161.304688 45.667969 C 161.941406 45.667969 162.492188 45.433594 162.929688 45.113281 L 162.929688 45.753906 C 162.492188 46.015625 161.855469 46.21875 161.246094 46.21875 C 159.742188 46.21875 158.640625 45.171875 158.640625 43.65625 C 158.640625 42.140625 159.742188 41.089844 161.042969 41.089844 C 162.234375 41.089844 163.1875 41.9375 163.1875 43.394531 C 163.1875 43.539062 163.1875 43.683594 163.160156 43.800781 Z M 162.667969 43.335938 C 162.636719 42.023438 161.710938 41.644531 161.074219 41.644531 C 160.261719 41.644531 159.449219 42.199219 159.277344 43.335938 Z M 162.667969 43.335938 "/>
<path style=" stroke:none;fill-rule:nonzero;fill:rgb(1.960784%,33.333334%,61.960787%);fill-opacity:1;" d="M 8.285156 28.121094 L 2.261719 28.121094 C 1.460938 28.1875 0.714844 27.710938 0.433594 26.957031 C 0.40625 26.898438 0.347656 26.871094 0.320312 26.8125 L 0.320312 16.554688 C 0.550781 16.234375 0.636719 15.824219 0.984375 15.589844 C 1.332031 15.386719 1.710938 15.242188 2.113281 15.242188 L 13.386719 15.210938 L 16.226562 15.183594 C 16.632812 15.210938 17.066406 15.183594 17.472656 15.152344 C 17.589844 15.125 17.703125 15.152344 17.734375 15.269531 Z M 19.09375 13.316406 C 15.472656 13.316406 12.574219 10.375 12.574219 6.730469 C 12.574219 3.089844 15.5 0.144531 19.125 0.175781 C 22.714844 0.175781 25.644531 3.117188 25.644531 6.730469 C 25.644531 10.347656 22.746094 13.289062 19.09375 13.316406 Z M 19.09375 13.316406 "/>
<path style=" stroke:none;fill-rule:nonzero;fill:rgb(93.725491%,41.568628%,14.509805%);fill-opacity:1;" d="M 7.011719 37.390625 C 6.285156 39.382812 6.085938 41.53125 6.433594 43.625 C 6.957031 45.578125 8.285156 47.210938 10.082031 48.113281 C 12.199219 49.222656 14.515625 49.835938 16.894531 49.890625 C 18.023438 49.949219 19.179688 49.921875 20.339844 49.804688 C 21.382812 49.6875 22.425781 49.601562 23.46875 49.425781 C 23.960938 49.367188 24.367188 49.308594 24.773438 49.222656 C 25.5 50.386719 27.0625 50.738281 28.222656 50.007812 C 29.382812 49.28125 29.730469 47.707031 29.003906 46.542969 C 28.28125 45.375 26.714844 45.027344 25.554688 45.753906 C 24.890625 46.191406 24.457031 46.921875 24.398438 47.734375 C 23.152344 48 21.90625 48.171875 20.660156 48.289062 C 19.09375 48.347656 17.53125 48.230469 15.996094 47.96875 C 14.054688 47.851562 12.199219 47.210938 10.605469 46.105469 C 8.953125 44.792969 8.199219 42.664062 8.578125 40.597656 C 8.808594 38.761719 9.53125 37.011719 10.632812 35.523438 C 11.675781 34.15625 11.851562 33.660156 12.605469 32.699219 C 12.777344 32.875 12.691406 33.046875 12.691406 33.195312 L 12.691406 38.496094 C 12.632812 39.3125 13.125 40.042969 13.878906 40.332031 C 14.199219 40.421875 14.515625 40.480469 14.863281 40.480469 L 23.410156 40.480469 C 24.457031 40.625 25.441406 39.898438 25.585938 38.847656 C 25.613281 38.644531 25.613281 38.46875 25.585938 38.265625 L 25.585938 28.5 C 25.585938 28.09375 25.671875 27.976562 26.078125 27.976562 L 35.464844 28.007812 C 36.449219 28.179688 37.4375 27.6875 37.898438 26.78125 L 37.898438 16.4375 C 37.8125 16.289062 37.726562 16.175781 37.640625 16.027344 C 37.378906 15.53125 36.855469 15.210938 36.277344 15.242188 L 24.917969 15.242188 C 24.859375 15.242188 13.734375 20.953125 7.011719 37.390625 Z M 26.832031 46.714844 C 27.496094 46.714844 28.019531 47.242188 28.019531 47.910156 C 28.019531 48.582031 27.496094 49.105469 26.832031 49.105469 C 26.164062 49.105469 25.644531 48.582031 25.644531 47.910156 C 25.644531 47.242188 26.164062 46.714844 26.832031 46.714844 Z M 26.832031 46.714844 "/>
<path style=" stroke:none;fill-rule:nonzero;fill:rgb(1.960784%,33.333334%,61.960787%);fill-opacity:1;" d="M 61.710938 32.050781 L 65.191406 32.050781 L 65.191406 28.058594 L 69.449219 23.304688 L 75.011719 32.050781 L 79.125 32.050781 L 71.796875 20.710938 L 78.285156 13.6875 L 73.882812 13.6875 L 66.117188 22.605469 C 65.742188 22.957031 65.449219 23.421875 65.246094 23.890625 L 65.074219 23.890625 C 65.132812 23.335938 65.191406 22.140625 65.191406 20.277344 L 65.191406 6.839844 L 61.710938 6.839844 Z M 44.617188 30.214844 C 46.820312 31.40625 49.3125 32.019531 51.804688 32.019531 C 53.773438 32.109375 55.6875 31.582031 57.367188 30.535156 C 58.816406 29.515625 59.625 27.824219 59.511719 26.074219 C 59.65625 24.648438 59.105469 23.25 58.03125 22.285156 C 56.640625 21.382812 55.078125 20.800781 53.425781 20.597656 L 53.078125 20.539062 C 52.324219 20.421875 51.746094 20.332031 51.367188 20.246094 C 49.425781 19.839844 48.472656 19.109375 48.472656 18.003906 C 48.472656 16.574219 49.863281 15.847656 52.613281 15.847656 C 54.382812 15.847656 56.121094 16.28125 57.65625 17.097656 L 58.960938 14.359375 C 56.933594 13.398438 54.699219 12.902344 52.441406 12.929688 C 50.585938 12.875 48.761719 13.308594 47.136719 14.214844 C 45.75 15.058594 44.933594 16.605469 45.023438 18.234375 C 44.878906 19.691406 45.515625 21.089844 46.675781 21.964844 C 48.152344 22.871094 49.804688 23.453125 51.511719 23.683594 L 52.730469 23.917969 C 52.933594 23.949219 53.25 24.035156 53.746094 24.121094 C 54.09375 24.179688 54.410156 24.296875 54.730469 24.441406 C 54.902344 24.558594 55.105469 24.707031 55.394531 24.878906 C 55.628906 25.027344 55.832031 25.257812 55.917969 25.519531 C 56.003906 25.8125 56.0625 26.105469 56.035156 26.394531 C 56.0625 27.269531 55.597656 28.085938 54.816406 28.4375 C 53.859375 28.902344 52.816406 29.136719 51.773438 29.078125 C 49.6875 29.105469 47.628906 28.523438 45.863281 27.414062 Z M 97.84375 23.511719 C 97.902344 20.828125 96.917969 18.234375 95.121094 16.253906 C 93.382812 14.300781 90.890625 13.253906 88.28125 13.308594 C 85.675781 13.253906 83.15625 14.214844 81.269531 16.050781 C 79.421875 17.824219 78.402344 20.300781 78.460938 22.871094 C 78.375 25.464844 79.417969 27.96875 81.328125 29.746094 C 83.269531 31.554688 85.820312 32.515625 88.457031 32.457031 C 90.222656 32.488281 91.960938 32.050781 93.5 31.175781 C 95.035156 30.328125 96.308594 29.078125 97.179688 27.5625 L 94.398438 25.929688 C 93.179688 28.027344 90.949219 29.339844 88.515625 29.308594 C 86.863281 29.339844 85.296875 28.757812 84.023438 27.679688 C 82.777344 26.65625 81.996094 25.113281 81.9375 23.511719 Z M 82.199219 20.886719 C 82.519531 19.570312 83.300781 18.410156 84.398438 17.625 C 85.558594 16.777344 86.949219 16.371094 88.371094 16.398438 C 89.730469 16.398438 91.035156 16.808594 92.109375 17.625 C 93.207031 18.410156 93.960938 19.574219 94.222656 20.886719 Z M 82.199219 20.886719 "/>
<path style=" stroke:none;fill-rule:nonzero;fill:rgb(93.725491%,41.568628%,14.509805%);fill-opacity:1;" d="M 117.722656 6.460938 L 117.722656 13.398438 C 117.664062 14.390625 117.691406 15.378906 117.867188 16.339844 L 117.691406 16.339844 C 117.027344 15.261719 116.070312 14.359375 114.941406 13.804688 C 113.722656 13.195312 112.390625 12.902344 111.027344 12.902344 C 108.480469 12.816406 106.042969 13.804688 104.25 15.613281 C 102.453125 17.417969 101.496094 19.898438 101.582031 22.460938 C 101.496094 25.027344 102.480469 27.503906 104.277344 29.308594 C 106.074219 31.117188 108.535156 32.109375 111.085938 32.019531 C 113.664062 32.136719 116.128906 30.941406 117.664062 28.84375 L 117.835938 28.84375 C 117.75 29.425781 117.722656 30.007812 117.691406 30.621094 L 117.691406 31.671875 L 121.171875 31.671875 L 121.171875 6.460938 Z M 105.117188 22.492188 C 105.058594 20.800781 105.695312 19.140625 106.886719 17.945312 C 108.074219 16.75 109.726562 16.109375 111.40625 16.167969 C 113.085938 16.136719 114.707031 16.777344 115.867188 18.003906 C 117.054688 19.199219 117.722656 20.828125 117.664062 22.492188 C 117.691406 24.179688 117.054688 25.84375 115.839844 27.035156 C 114.652344 28.230469 113.027344 28.902344 111.347656 28.871094 C 109.667969 28.929688 108.042969 28.261719 106.855469 27.066406 C 105.695312 25.84375 105.058594 24.179688 105.117188 22.492188 Z M 123.574219 22.492188 C 123.515625 25.085938 124.558594 27.5625 126.445312 29.308594 C 128.328125 31.117188 130.847656 32.109375 133.457031 32.019531 C 136.0625 32.078125 138.585938 31.117188 140.46875 29.308594 C 142.351562 27.5625 143.394531 25.054688 143.335938 22.492188 C 143.394531 19.898438 142.351562 17.417969 140.46875 15.671875 C 138.585938 13.863281 136.0625 12.875 133.457031 12.960938 C 130.847656 12.902344 128.328125 13.863281 126.445312 15.671875 C 124.558594 17.390625 123.488281 19.898438 123.574219 22.492188 Z M 127.140625 22.492188 C 127.082031 20.800781 127.71875 19.140625 128.933594 17.945312 C 130.125 16.75 131.773438 16.109375 133.457031 16.167969 C 135.136719 16.109375 136.757812 16.75 137.976562 17.945312 C 139.164062 19.140625 139.828125 20.800781 139.773438 22.492188 C 139.828125 24.179688 139.191406 25.84375 138.003906 27.066406 C 136.816406 28.261719 135.164062 28.929688 133.484375 28.871094 C 131.804688 28.929688 130.152344 28.289062 128.964844 27.066406 C 127.746094 25.84375 127.109375 24.179688 127.140625 22.492188 Z M 160.605469 26.628906 C 159.386719 28.058594 157.59375 28.871094 155.707031 28.8125 C 154.03125 28.875 152.402344 28.230469 151.21875 27.035156 C 150.027344 25.84375 149.390625 24.179688 149.449219 22.492188 C 149.390625 20.800781 150.027344 19.167969 151.21875 17.945312 C 152.40625 16.75 154.058594 16.109375 155.738281 16.167969 C 157.59375 16.078125 159.386719 16.867188 160.605469 18.292969 L 163.183594 16.195312 C 161.300781 14.039062 158.578125 12.84375 155.738281 12.929688 C 153.128906 12.875 150.609375 13.835938 148.726562 15.671875 C 146.84375 17.417969 145.828125 19.898438 145.886719 22.492188 C 145.828125 25.085938 146.84375 27.5625 148.726562 29.308594 C 150.609375 31.117188 153.128906 32.109375 155.738281 32.019531 C 158.636719 32.050781 161.386719 30.824219 163.300781 28.667969 Z M 160.605469 26.628906 "/>
</g>
</svg>
