<?xml version="1.0" encoding="utf-8"?>
<!-- Generator: Adobe Illustrator 27.8.1, SVG Export Plug-In . SVG Version: 6.00 Build 0)  -->
<svg version="1.1" id="Layer_1" xmlns="http://www.w3.org/2000/svg" xmlns:xlink="http://www.w3.org/1999/xlink" x="0px" y="0px"
	 viewBox="0 0 347 90" style="enable-background:new 0 0 347 90;" xml:space="preserve">
<style type="text/css">
	.st0{fill:#992025;}
	.st1{fill:#FFFFFF;}
	.st2{fill:none;}
	.st3{font-family:'OpenSans';}
	.st4{font-size:12px;}
</style>
<g id="Layer_1_00000063591577632224091760000013709459657138811833_">
	<path d="M136.4,29l1.4-0.1c0.9-0.1,1-0.4,1-1.3V14.3h-1.1c-2.4,0-2.8,0.8-3.4,3.3h-0.8v-4.3h14v4.3h-0.8c-0.6-2.5-1-3.3-3.4-3.3
		h-1.1v13.3c0,0.9,0.1,1.2,1,1.3l1.4,0.1v0.8h-8.1L136.4,29L136.4,29z M148.7,29c1.5-0.1,1.6-0.2,1.6-1.2v-13c0-0.9-0.2-1.1-0.6-1.2
		l-0.9-0.1v-0.8l4.5-0.6l0.2,0.1v7.3c1.4-1,2.6-1.7,4.1-1.7c2.4,0,3.6,1.4,3.6,3.7v6.2c0,1.1,0.2,1.2,1.6,1.2v0.8h-6.2V29h0.6
		c0.7,0,0.9-0.2,0.9-1.1V22c0-1.7-0.7-2.5-2.1-2.5c-1.1,0-1.9,0.6-2.2,1.3c-0.2,0.4-0.3,0.9-0.3,1.4v5.6c0,0.9,0.2,1.1,0.9,1.1h0.6
		v0.8h-6.2V29H148.7z M174.5,26.6c-0.8,2-2.2,3.4-5,3.4c-4.2,0-5.8-2.6-5.8-6.1c0-1.7,0.4-3.2,1.4-4.3s2.4-1.8,4.3-1.8
		c4.9,0,5.2,3.6,5.2,4.9c0,0.8-0.4,1-1.2,1H167c0,2.5,0.7,4.8,3.3,4.8c1.6,0,2.6-0.9,3.3-2.3L174.5,26.6z M170.6,22.6
		c0.6,0,0.8-0.2,0.8-0.8c0-1.1-0.2-3-2-3c-1.9,0-2.3,2.4-2.3,3.8H170.6z M181,29c1.8-0.1,2-0.2,2-1.4v-12c0-1.3-0.1-1.3-2-1.4v-0.8
		h7.5c1.9,0,3.4,0.2,4.4,0.9c1,0.6,1.6,1.6,1.6,3c0,1.9-1.2,3.2-3.5,3.7c2.2,0.3,4.2,1.6,4.2,4.3c0,1.4-0.5,2.6-1.5,3.4
		s-2.6,1.2-4.9,1.2H181V29z M187.6,20.5c2.4,0,3.5-1.2,3.5-3.2s-1.2-3.1-3.2-3.1c-1.2,0-1.6,0.1-1.6,1v5.2h1.3V20.5z M186.3,27.1
		c0,1.3,0.5,1.6,1.9,1.6c1.8,0,3.3-0.8,3.3-3.5c0-2.2-1.3-3.8-3.9-3.8h-1.4L186.3,27.1L186.3,27.1z M196.5,29
		c1.5-0.1,1.6-0.2,1.6-1.2v-7.2c0-0.9-0.2-1.1-0.6-1.1l-0.9-0.1v-0.8l4.3-0.7l0.3,2c1.5-1.4,2.2-2,3.2-2s1.5,0.6,1.5,1.5
		c0,0.4-0.1,0.9-0.3,1.2c-0.3,0.3-0.6,0.5-1,0.5c-0.3,0-0.6-0.1-0.9-0.3c-0.6-0.3-1-0.5-1.3-0.5c-0.6,0-1,0.6-1,2v5.5
		c0,1.1,0.2,1.1,2.1,1.2v0.8h-6.9V29H196.5z M211.7,27.7c0,1.1,0.2,1.2,1.6,1.2v0.8h-6.4V29c1.5-0.1,1.6-0.2,1.6-1.2v-7.2
		c0-0.9-0.2-1.1-0.6-1.1l-0.9-0.1v-0.8l4.4-0.7l0.2,0.1L211.7,27.7L211.7,27.7z M208.2,14.5c0-1,0.7-1.9,1.9-1.9s1.9,0.8,1.9,1.9
		c0,1-0.8,1.9-1.9,1.9C208.9,16.4,208.2,15.5,208.2,14.5z M221.1,19.2h-2.7v7c0,1.6,0.7,2.3,1.5,2.3c0.5,0,1-0.1,1.5-0.3l0.2,0.6
		c-1.1,0.7-2.5,1.2-3.5,1.2c-1.1,0-2.8-0.7-2.8-3v-7.9h-1.5V18h1.6l1.9-3h1.1v3h2.7V19.2z M227.6,27.7c0,1.1,0.2,1.2,1.6,1.2v0.8
		h-6.4V29c1.5-0.1,1.6-0.2,1.6-1.2v-7.2c0-0.9-0.2-1.1-0.6-1.1l-0.9-0.1v-0.8l4.4-0.7l0.2,0.1L227.6,27.7L227.6,27.7z M224.1,14.5
		c0-1,0.7-1.9,1.9-1.9s1.9,0.8,1.9,1.9c0,1-0.8,1.9-1.9,1.9C224.8,16.4,224.1,15.5,224.1,14.5z M237.9,21.7
		c-0.4-1.7-1.4-2.9-2.7-2.9c-1.1,0-1.7,0.7-1.8,1.6c0,1.1,1.2,1.6,2.5,2.1c2.3,0.8,3.6,1.8,3.6,3.9c0,2.3-1.8,3.7-4.7,3.7
		c-1.4,0-3.1-0.3-3.9-1.1l-0.3-3.4h0.8c0.6,2,1.8,3.6,3.5,3.6c1.1,0,1.8-0.6,1.8-1.6c0-1.3-1.3-2-2.4-2.3c-2-0.7-3.6-1.7-3.6-3.6
		c0-2.4,1.8-3.7,4.6-3.7c1.2,0,2.5,0.2,3.4,0.8v3.1h-0.8L237.9,21.7z M240.6,29c1.5-0.1,1.6-0.2,1.6-1.2v-13c0-0.9-0.2-1.1-0.6-1.2
		l-0.9-0.1v-0.8l4.5-0.6l0.2,0.1v7.3c1.4-1,2.6-1.7,4.1-1.7c2.4,0,3.6,1.4,3.6,3.7v6.2c0,1.1,0.2,1.2,1.6,1.2v0.8h-6.2V29h0.6
		c0.7,0,0.9-0.2,0.9-1.1V22c0-1.7-0.7-2.5-2.1-2.5c-1.1,0-1.9,0.6-2.2,1.3c-0.2,0.4-0.3,0.9-0.3,1.4v5.6c0,0.9,0.2,1.1,0.9,1.1h0.6
		v0.8h-6.2V29H240.6z M260.2,31.8c0.8-0.3,1.5-0.6,2-1.2s0.9-2,0.9-4.2V15.5c0-1.3-0.1-1.3-2-1.4v-0.8h7.3v0.8c-1.8,0.1-2,0.2-2,1.4
		v10.8c0,2.5-0.5,4.5-2.4,5.4c-1.1,0.5-2.5,0.8-3.7,0.8L260.2,31.8L260.2,31.8z M269.3,23.9c0-3.8,1.8-6.1,6-6.1s6,2.3,6,6.1
		s-1.8,6.1-6,6.1C271.2,30.1,269.3,27.8,269.3,23.9z M278,23.9c0-3.2-0.8-5.1-2.7-5.1c-1.8,0-2.6,1.9-2.6,5.1s0.8,5.1,2.6,5.1
		C277.2,29.1,278,27.2,278,23.9z M291.6,28.4c-0.9,0.5-2.2,1.6-4.3,1.6c-1.7,0-3.4-0.8-3.4-3.6v-6c0-0.9-0.2-1.1-0.6-1.1l-0.9-0.1
		v-0.8l4.5-0.7L287,18v7.8c0,1.9,0.9,2.7,2.1,2.7c1.1,0,1.9-0.6,2.3-1.4c0.1-0.3,0.2-0.9,0.2-1.4v-5.2c0-0.9-0.2-1.1-0.6-1.1
		l-0.9-0.1v-0.8l4.5-0.7l0.2,0.1v9.8c0,1.1,0.2,1.2,1.6,1.2v0.8h-4.5L291.6,28.4L291.6,28.4z M297.7,29c1.5-0.1,1.6-0.2,1.6-1.2
		v-7.2c0-0.9-0.2-1.1-0.6-1.1l-0.9-0.1v-0.8l4.3-0.7l0.3,2c1.5-1.4,2.2-2,3.2-2s1.5,0.6,1.5,1.5c0,0.4-0.1,0.9-0.3,1.2
		c-0.3,0.3-0.6,0.5-1,0.5c-0.3,0-0.6-0.1-0.9-0.3c-0.6-0.3-1-0.5-1.3-0.5c-0.6,0-1,0.6-1,2v5.5c0,1.1,0.2,1.1,2.1,1.2v0.8h-6.9V29
		H297.7z M308.2,29c1.5-0.1,1.6-0.2,1.6-1.2v-7.2c0-0.9-0.2-1.1-0.6-1.1l-0.9-0.1v-0.8l4.3-0.7l0.3,1.7c1.5-1,2.6-1.7,4.2-1.7
		c2.4,0,3.6,1.4,3.6,3.7v6.2c0,1.1,0.2,1.2,1.6,1.2v0.8h-6.2V29h0.6c0.6,0,0.8-0.2,0.8-1.1V22c0-1.7-0.8-2.5-2.1-2.5
		c-1.1,0-1.9,0.6-2.3,1.4c-0.2,0.4-0.2,0.8-0.2,1.4v5.6c0,0.9,0.2,1.1,0.9,1.1h0.6v0.8h-6.2L308.2,29L308.2,29z M335.6,29.4
		c-0.8,0.4-2.2,0.7-3.3,0.7c-1,0-1.4-0.6-1.8-1.4c-0.8,0.5-2,1.4-3.4,1.4c-2.3,0-3.6-1.6-3.6-3.4c0-1.3,0.6-2.3,2.5-3
		c1.6-0.5,3.3-1,4.4-1.6v-1.2c0-1.6-0.8-2-1.6-2s-1.6,0.4-2.2,2.4c-0.2,0.5-0.4,0.9-0.9,0.9s-1.8-0.4-1.8-1.4c0-1.5,2.1-2.9,5.3-2.9
		c4,0,4.3,1.9,4.3,3.4v5.5c0,1.5,0.4,1.8,0.8,1.9s0.8,0.1,1.2,0.1L335.6,29.4z M330.5,23.1c-0.5,0.3-1.5,0.6-2.3,1
		c-1,0.5-1.4,1-1.4,2.1c0,1.3,0.8,2.2,1.9,2.2c0.7,0,1.8-0.4,1.8-1.9C330.5,26.5,330.5,23.1,330.5,23.1z M341.4,27.7
		c0,1.1,0.2,1.2,1.6,1.2v0.8h-6.4V29c1.5-0.1,1.6-0.2,1.6-1.2v-13c0-0.9-0.2-1.1-0.6-1.2l-0.9-0.1v-0.8l4.5-0.6l0.2,0.1L341.4,27.7
		L341.4,27.7z M133.9,50.9c0-3.8,1.8-6.1,6-6.1s6,2.3,6,6.1s-1.8,6.1-6,6.1C135.8,57.1,133.9,54.8,133.9,50.9z M142.6,50.9
		c0-3.2-0.8-5.1-2.7-5.1c-1.8,0-2.6,1.9-2.6,5.1s0.8,5.1,2.6,5.1C141.8,56.1,142.6,54.2,142.6,50.9z M147,56
		c1.5-0.1,1.6-0.2,1.6-1.2v-8.5H147v-1.1h1.6v-0.7c0-1.8,0.3-3.1,1-3.9c0.7-0.9,1.8-1.4,3.1-1.4c2.3,0,3.3,1.2,3.3,2.1
		c0,0.8-0.8,1.3-1.5,1.3c-0.5,0-0.8-0.3-0.9-0.6c-0.7-1.4-1.1-1.7-1.5-1.7s-0.8,0.5-0.8,1.3c0,1.2,0.4,3,0.4,3.7h2.6v1.1h-2.6v8.5
		c0,1.1,0.1,1.2,2,1.2v0.8H147V56z M174.9,56c-1.3,0.8-3.7,1.1-5.5,1.1c-2.8,0-5-0.7-6.4-2c-1.5-1.5-2.3-3.7-2.3-6.4
		s0.7-4.8,2.1-6.4c1.4-1.5,3.7-2.4,6.9-2.4c1.6,0,3.8,0.3,5.1,1V45H174c-0.5-2.1-1.6-4.1-4.5-4.1c-4.4,0-5.1,5-5.1,7.5
		c0,2.8,0.7,7.7,5.3,7.7c2.8,0,3.9-2,4.7-4.6h0.8L174.9,56z M189,56.4c-0.8,0.4-2.2,0.7-3.3,0.7c-1,0-1.4-0.6-1.8-1.4
		c-0.8,0.5-2,1.4-3.4,1.4c-2.3,0-3.6-1.6-3.6-3.4c0-1.3,0.6-2.3,2.5-3c1.6-0.5,3.3-1,4.4-1.6v-1.2c0-1.6-0.8-2-1.6-2
		s-1.6,0.4-2.2,2.4c-0.2,0.5-0.4,0.9-0.9,0.9s-1.8-0.4-1.8-1.4c0-1.5,2.1-2.9,5.3-2.9c4,0,4.3,1.9,4.3,3.4v5.5
		c0,1.5,0.4,1.8,0.8,1.9c0.4,0.1,0.8,0.1,1.2,0.1L189,56.4z M183.9,50.1c-0.5,0.3-1.5,0.6-2.3,1c-1,0.5-1.4,1-1.4,2.1
		c0,1.3,0.8,2.2,1.9,2.2c0.7,0,1.8-0.4,1.8-1.9C183.9,53.5,183.9,50.1,183.9,50.1z M190.1,56c1.5-0.1,1.6-0.2,1.6-1.2v-7.2
		c0-0.9-0.2-1.1-0.6-1.1l-0.9-0.1v-0.8l4.3-0.7l0.3,2c1.5-1.4,2.2-2,3.2-2s1.5,0.6,1.5,1.5c0,0.4-0.1,0.9-0.3,1.2
		c-0.3,0.3-0.6,0.5-1,0.5c-0.3,0-0.6-0.1-0.9-0.3c-0.6-0.3-1-0.5-1.3-0.5c-0.6,0-1,0.6-1,2v5.5c0,1.1,0.2,1.1,2.1,1.2v0.8h-6.9V56
		H190.1z M208.7,55.6c-1.3,1-2.5,1.5-3.6,1.5c-3.1,0-4.9-2.4-4.9-5.9c0-2.1,0.7-3.7,1.8-4.8c1-1,2.6-1.6,4.5-1.6
		c0.8,0,1.6,0.1,2.1,0.3v-3.4c0-0.9-0.2-1.1-0.6-1.2l-0.9-0.1v-0.8l4.5-0.6l0.2,0.1v15.5c0,1.1,0.2,1.2,1.6,1.2v0.8h-4.7l-0.1-0.1
		L208.7,55.6L208.7,55.6z M208.7,48.3c0-0.5,0-1-0.2-1.4c-0.3-0.6-1-1.1-1.9-1.1c-1.7,0-3,1.6-3,4.9c0,3,1.1,4.7,2.8,4.7
		c1.1,0,1.8-0.5,2.1-1.3c0.1-0.4,0.1-0.7,0.1-1.1L208.7,48.3L208.7,48.3z M219.5,54.7c0,1.1,0.2,1.2,1.6,1.2v0.8h-6.4V56
		c1.5-0.1,1.6-0.2,1.6-1.2v-7.2c0-0.9-0.2-1.1-0.6-1.1l-0.9-0.1v-0.8l4.4-0.7l0.2,0.1L219.5,54.7L219.5,54.7z M216,41.5
		c0-1,0.7-1.9,1.9-1.9s1.9,0.8,1.9,1.9c0,1-0.8,1.9-1.9,1.9C216.7,43.4,216,42.5,216,41.5z M222,50.9c0-3.8,1.8-6.1,6-6.1
		s6,2.3,6,6.1s-1.8,6.1-6,6.1C223.9,57.1,222,54.8,222,50.9z M230.7,50.9c0-3.2-0.8-5.1-2.7-5.1c-1.8,0-2.6,1.9-2.6,5.1
		s0.8,5.1,2.6,5.1C229.9,56.1,230.7,54.2,230.7,50.9z M239.7,54.7c0,1.1,0.2,1.2,1.6,1.2v0.8H235V56c1.5-0.1,1.6-0.2,1.6-1.2v-13
		c0-0.9-0.2-1.1-0.6-1.2l-0.9-0.1v-0.8l4.5-0.6l0.2,0.1v15.5H239.7z M242.2,50.9c0-3.8,1.8-6.1,6-6.1s6,2.3,6,6.1s-1.8,6.1-6,6.1
		C244,57.1,242.2,54.8,242.2,50.9z M250.9,50.9c0-3.2-0.8-5.1-2.7-5.1c-1.8,0-2.6,1.9-2.6,5.1s0.8,5.1,2.6,5.1
		C250.1,56.1,250.9,54.2,250.9,50.9z M262.8,54.5c2.5,0,4.7,0.9,4.7,3.7c0,1.6-0.9,2.7-2.1,3.4s-2.7,1-4.2,1s-2.9-0.3-3.9-0.8
		c-0.9-0.5-1.6-1.5-1.6-2.6c0-1.7,1.7-2.2,2.7-2.4c-1.1-0.2-2.1-1.1-2.1-2.1c0-0.9,1-1.7,2.4-2.2c-1.3-0.2-2.8-1.4-2.8-3.5
		c0-1.8,1.3-4,5.3-4c1.2,0,2.6,0.3,3.3,0.8l3-1l0.2,0.2l-0.5,1.7l-1.7,0.3c0.4,0.4,0.6,1.2,0.6,2c0,2.8-2.5,3.9-5.2,3.9h-1.1
		c-0.3,0.1-1,0.4-1,1c0,0.5,0.4,0.9,1.6,0.9h2.4L262.8,54.5z M259.3,57.4c-0.4,0.3-0.6,0.8-0.6,1.5c0,1.7,1.5,2.7,3.2,2.7
		c1.6,0,3.1-0.8,3.1-2.6c0-1.6-1.4-2-3.4-2C260.4,57,259.7,57.1,259.3,57.4L259.3,57.4z M263.3,48.8c0-2.1-1-3-2-3s-2.1,0.8-2.1,3
		c0,1.8,0.9,2.9,2,2.9C262.5,51.7,263.3,50.6,263.3,48.8z M281.8,45.9h-0.5c-0.7,0.1-0.9,0.5-1.3,1.4c-1.2,2.8-2.9,7.1-4.3,11
		c-1.2,3.5-2.4,4.2-3.8,4.2c-1.1,0-1.8-0.6-1.8-1.4s0.7-1.7,1.4-1.7c0.4,0,0.5,0.1,1,0.5c0.3,0.3,0.6,0.4,0.9,0.4
		c0.5,0,0.7-0.5,1-1.1c0.2-0.5,0.2-1,0.2-1.4c0-0.3-0.1-0.5-0.2-0.8c-1-2.7-2.6-6.8-4-10c-0.3-0.7-0.5-1-0.9-1l-0.8-0.1v-0.8h6.2
		v0.8L274,46c-0.5,0-0.5,0.3-0.3,0.8c0.8,2.3,1.7,4.7,2.6,7.1c0.9-2.4,1.8-5.1,2.4-7.1c0.1-0.5,0-0.7-0.4-0.8l-1.1-0.1v-0.8h4.7v0.8
		H281.8z"/>
	<path class="st0" d="M0,0h115.1v90H0V0z"/>
	<g>
		<path class="st1" d="M30.7,22.3c9.9,0,15.9,2.7,15.9,10.4c0,5.1-3.1,8.4-9.2,9.7v0.1c5.8,0.9,10.9,4.3,10.9,11.2
			c0,3.4-1,6.4-3.6,8.4c-2.6,2.1-6.9,3.4-14,3.4H10.1v-2.4c4.4-0.2,4.9-0.5,4.9-3.7V28.3c0-3.2-0.5-3.5-4.9-3.7v-2.4h20.6V22.3z
			 M25,41.2h3.1c6,0,8.4-3.4,8.4-8.1s-2.2-8-7.9-8c-2.5,0-3.6,0.2-3.6,2.3C25,27.4,25,41.2,25,41.2z M25,58.5c0,3.1,1.4,4.1,4.5,4.1
			c4.4,0,7.9-2.2,7.9-8.9c0-5.2-2.9-9.7-9.2-9.7H25C25,44,25,58.5,25,58.5z M105,51.2l-0.7,12.2c-3.7,2.2-10.2,3-14.6,3
			c-16,0-22.8-8.7-22.8-22.1c0-6.2,1.6-12.2,5.4-16.4c3.7-4.1,9.6-6.6,18.4-6.6c3.1,0,9.7,0.5,13.4,2.7v11.2h-2.4
			c-1.4-4.5-3.6-11-11.6-11c-11.3,0-12.2,14.5-12.2,19.1c0,7.1,1.6,20.2,12.7,20.2c7.1,0,9.7-5.4,12.1-12.3L105,51.2L105,51.2z"/>
		<path class="st1" d="M47.7,22.3v2.4c4.4,0.2,4.9,0.5,4.9,3.7V66c0,3.1-0.5,4.3-1.7,4.3c-2.3,0-0.4-4.1-4.6-4.1
			c-2,0-3.7,1.3-3.7,2.9c0,2.6,2.7,4.4,6.2,4.4c3.9,0,7.7-1.7,10.1-4.1c2.7-2.7,3.6-6.9,3.6-12.1v-29c0-3.2,0.5-3.5,4.9-3.7v-2.4
			L47.7,22.3L47.7,22.3z"/>
	</g>
</g>
<g id="Layer_2_00000160149336018703535100000010717656849120182418_">
	<rect x="132" y="68.6" class="st2" width="158.7" height="11.2"/>
	<text transform="matrix(1 0 0 1 132.9605 77.7198)" class="st3 st4">Established 30 years</text>
</g>
</svg>
