<?xml version="1.0" encoding="utf-8"?>
<!-- Generator: Adobe Illustrator 19.1.0, SVG Export Plug-In . SVG Version: 6.00 Build 0)  -->
<svg version="1.1" id="Layer_1" xmlns="http://www.w3.org/2000/svg" xmlns:xlink="http://www.w3.org/1999/xlink" x="0px" y="0px"
	 viewBox="0 0 420 62.5881" style="enable-background:new 0 0 420 62.5881;" xml:space="preserve">
<style type="text/css">
	.st0{fill:#E72D87;}
</style>
<g>
	<path class="st0" d="M0,17.7499v-1.24l1.3087-0.0688V1.9977L0,1.9284v-1.24h11.1367v3.0543h-1.217L9.7587,2.0435H2.8241v6.1081
		h7.7615v1.3775H2.8241v6.8658h6.9346l0.1609-1.7451h1.217v3.1001H0z"/>
	<path class="st0" d="M21.9778,17.7499v-1.0103c-1.492,0.7806-2.9158,1.3087-4.4313,1.3087c-3.0543,0-3.7896-1.906-3.7896-4.8681
		V6.5898l-1.2629-0.0688v-1.24H15.25v7.899c0,2.6637,0.5968,3.5824,2.595,3.5824c1.2395,0,2.6174-0.4822,4.1328-1.217V6.5898
		L20.715,6.5211v-1.24h2.7783v11.1601l1.2629,0.0688v1.24H21.9778z"/>
	<path class="st0" d="M29.4673,7.4626v8.9786l1.3545,0.0688v1.24h-4.1104v-1.24l1.2629-0.0688V6.6132l-1.2629-0.0922v-1.24h2.7325
		v1.0103c1.493-1.0561,3.261-1.3316,4.7082-1.3316v1.3316C32.7741,6.2914,30.8218,6.6132,29.4673,7.4626z"/>
	<path class="st0" d="M40.6975,18.0483c-3.5136,0-5.1665-2.0435-5.1899-5.9014v-1.3087c0-3.8578,1.6763-5.8784,5.1899-5.8784
		c3.536,0,5.2124,2.0206,5.2124,5.8784v1.3087C45.9099,16.0048,44.2336,18.0483,40.6975,18.0483z M44.4179,10.8382
		c0-3.2147-1.1254-4.5468-3.7203-4.5468c-2.5716,0-3.6745,1.3321-3.6745,4.5468v1.3087c0,3.2147,1.1029,4.5927,3.6745,4.5927
		c2.595,0,3.6969-1.3779,3.7203-4.5927V10.8382z"/>
	<path class="st0" d="M47.5424,22.5493v-1.24l1.2629-0.0922V6.6132l-1.2629-0.0922v-1.24h2.71v0.8957
		c1.0561-0.689,2.5023-1.217,3.8803-1.217c2.9851,0,4.4322,1.6763,4.4322,5.6946v1.5154c0,4.3859-2.0664,5.8784-5.305,5.8784
		c-0.7577,0-1.8597-0.1146-2.9616-0.2984v3.4673l1.2863,0.0922v1.24H47.5424z M57.0719,10.6544c0-3.2147-0.9186-4.363-3.146-4.363
		c-1.217,0-2.3414,0.4135-3.6277,1.0566v9.1161c1.1936,0.2067,2.2039,0.2984,2.9616,0.2984c2.4575,0,3.812-1.0332,3.812-4.5927
		V10.6544z"/>
	<path class="st0" d="M62.3097,12.0094v0.2984c0,2.8471,0.7577,4.4317,4.1797,4.4317c1.3779,0,3.1226-0.1609,4.2713-0.3676v1.217
		c-0.8962,0.2067-2.4575,0.4593-4.3406,0.4593c-4.2245,0-5.6025-1.906-5.6025-6.0623v-0.8723c0-3.9037,1.5847-6.1539,5.1665-6.1539
		c3.6053,0,5.1665,2.2044,5.1665,6.3148v0.7348H62.3097z M69.6119,10.5628c0-2.2507-0.6427-4.2942-3.6277-4.2942
		c-3.0543,0-3.6511,2.1357-3.6511,4.2942v0.2067h7.2788V10.5628z"/>
	<path class="st0" d="M80.9592,17.7499v-0.8957c-0.8504,0.5281-2.2966,1.1941-4.1338,1.1941c-2.4565,0-3.7428-1.102-3.7428-3.6053
		v-0.3213c0-3.1689,2.0206-3.8115,5.6717-3.8115h2.1357V9.2536c0-2.4341-0.5276-3.008-3.3069-3.008
		c-0.6427,0-1.377,0.0229-2.3414,0.0917l-0.1385,1.4009H73.932V5.3962c0.8504-0.1609,2.2507-0.4364,3.7437-0.4364
		c3.9954,0,4.7297,1.3316,4.7297,4.2938v7.1876l1.2629,0.0688v1.24H80.9592z M80.8899,11.4809h-2.1357
		c-3.0075,0-4.1787,0.3906-4.1787,2.6408v0.4364c0,1.7222,0.9645,2.2961,2.5257,2.2961c1.5613,0,3.1001-0.6656,3.7886-1.102V11.4809
		z"/>
	<path class="st0" d="M95.0136,17.7499v-7.899c0-2.6866-0.5968-3.5824-2.5716-3.5824c-1.1946,0-2.595,0.4593-4.1562,1.1941v8.9786
		l1.2395,0.0688v1.24h-3.9953v-1.24l1.2629-0.0688V6.6132l-1.2629-0.0922v-1.24h2.7325v0.9874
		c1.4013-0.7119,2.8017-1.3087,4.3172-1.3087c3.2152,0,3.9271,1.6993,3.9271,4.8911v6.5903l1.2629,0.0688v1.24H95.0136z"/>
	<path class="st0" d="M107.1186,1.9977v5.9701h9.277V1.9977l-1.3087-0.0692v-1.24h4.1563v1.24l-1.3087,0.0692v14.4435l1.3087,0.0688
		v1.24h-4.1563v-1.24l1.3087-0.0688V9.3686h-9.277v7.0726l1.3097,0.0688v1.24h-4.1563v-1.24l1.3087-0.0688V1.9977l-1.3087-0.0692
		v-1.24h4.1563v1.24L107.1186,1.9977z"/>
	<path class="st0" d="M122.392,12.0094v0.2984c0,2.8471,0.7577,4.4317,4.1797,4.4317c1.3779,0,3.1226-0.1609,4.2713-0.3676v1.217
		c-0.8962,0.2067-2.4575,0.4593-4.3406,0.4593c-4.2245,0-5.6025-1.906-5.6025-6.0623v-0.8723c0-3.9037,1.5847-6.1539,5.1665-6.1539
		c3.6053,0,5.1666,2.2044,5.1666,6.3148v0.7348H122.392z M129.6942,10.5628c0-2.2507-0.6427-4.2942-3.6277-4.2942
		c-3.0543,0-3.6511,2.1357-3.6511,4.2942v0.2067h7.2788V10.5628z"/>
	<path class="st0" d="M141.0405,17.7499v-0.8957c-0.8504,0.5281-2.2966,1.1941-4.1338,1.1941c-2.4565,0-3.7428-1.102-3.7428-3.6053
		v-0.3213c0-3.1689,2.0206-3.8115,5.6717-3.8115h2.1357V9.2536c0-2.4341-0.5276-3.008-3.3069-3.008
		c-0.6427,0-1.377,0.0229-2.3414,0.0917l-0.1385,1.4009h-1.1712V5.3962c0.8504-0.1609,2.2507-0.4364,3.7437-0.4364
		c3.9953,0,4.7297,1.3316,4.7297,4.2938v7.1876l1.2629,0.0688v1.24H141.0405z M140.9713,11.4809h-2.1357
		c-3.0075,0-4.1787,0.3906-4.1787,2.6408v0.4364c0,1.7222,0.9645,2.2961,2.5257,2.2961s3.1001-0.6656,3.7886-1.102V11.4809z"/>
	<path class="st0" d="M148.3681,7.4626v8.9786l1.3545,0.0688v1.24h-4.1104v-1.24l1.2629-0.0688V6.6132l-1.2629-0.0922v-1.24h2.7325
		v1.0103c1.493-1.0561,3.261-1.3316,4.7082-1.3316v1.3316C151.675,6.2914,149.7226,6.6132,148.3681,7.4626z"/>
	<path class="st0" d="M160.2654,18.0483c-2.1357,0-2.8475-0.8265-2.8475-3.0996V6.544l-2.6866-0.1375V5.2811h2.6866V1.9284h1.5154
		v3.3527h3.5594V6.544h-3.5594v8.3354c0,1.5847,0.2067,1.9518,1.492,1.9518c0.6202,0,1.5164-0.0458,2.0674-0.1146v1.0561
		C162.01,17.8879,161.0455,18.0483,160.2654,18.0483z"/>
	<path class="st0" d="M171.8409,1.9977v17.038c0,2.3195-0.6202,3.5824-3.2152,3.5824c-0.5052,0-1.2395-0.0688-1.5847-0.138v-1.1707
		c0.552,0.0229,1.0113,0.0229,1.5164,0.0229c1.6071,0,1.768-0.7577,1.768-2.2966V1.9977l-1.3087-0.0692v-1.24h4.1328v1.24
		L171.8409,1.9977z"/>
	<path class="st0" d="M179.9018,18.0483c-3.5136,0-5.1665-2.0435-5.1899-5.9014v-1.3087c0-3.8578,1.6763-5.8784,5.1899-5.8784
		c3.536,0,5.2124,2.0206,5.2124,5.8784v1.3087C185.1142,16.0048,183.4378,18.0483,179.9018,18.0483z M183.6221,10.8382
		c0-3.2147-1.1254-4.5468-3.7204-4.5468c-2.5716,0-3.6745,1.3321-3.6745,4.5468v1.3087c0,3.2147,1.1029,4.5927,3.6745,4.5927
		c2.595,0,3.6969-1.3779,3.7204-4.5927V10.8382z"/>
	<path class="st0" d="M196.1845,17.7499v-1.0103c-1.492,0.7806-2.9158,1.3087-4.4313,1.3087c-3.0543,0-3.7896-1.906-3.7896-4.8681
		V6.5898l-1.2629-0.0688v-1.24h2.7559v7.899c0,2.6637,0.5968,3.5824,2.595,3.5824c1.2395,0,2.6174-0.4822,4.1329-1.217V6.5898
		l-1.2629-0.0688v-1.24H197.7v11.1601l1.2629,0.0688v1.24H196.1845z"/>
	<path class="st0" d="M203.7422,7.4626v8.9786l1.3545,0.0688v1.24h-4.1104v-1.24l1.2629-0.0688V6.6132l-1.2629-0.0922v-1.24h2.7325
		v1.0103c1.493-1.0561,3.261-1.3316,4.7082-1.3316v1.3316C207.0491,6.2914,205.0968,6.6132,203.7422,7.4626z"/>
	<path class="st0" d="M219.6573,17.7499v-7.899c0-2.6866-0.5968-3.5824-2.5716-3.5824c-1.1936,0-2.595,0.4593-4.1563,1.1941v8.9786
		l1.2395,0.0688v1.24h-3.9953v-1.24l1.2629-0.0688V6.6132l-1.2629-0.0922v-1.24h2.7325v0.9874
		c1.4013-0.7119,2.8017-1.3087,4.3172-1.3087c3.2152,0,3.9271,1.6993,3.9271,4.8911v6.5903l1.2629,0.0688v1.24H219.6573z"/>
	<path class="st0" d="M232.1982,17.7499v-0.8957c-0.8494,0.5281-2.2966,1.1941-4.1338,1.1941c-2.4565,0-3.7428-1.102-3.7428-3.6053
		v-0.3213c0-3.1689,2.0206-3.8115,5.6717-3.8115h2.1357V9.2536c0-2.4341-0.5276-3.008-3.3069-3.008
		c-0.6427,0-1.377,0.0229-2.3414,0.0917l-0.1385,1.4009h-1.1712V5.3962c0.8504-0.1609,2.2507-0.4364,3.7437-0.4364
		c3.9953,0,4.7297,1.3316,4.7297,4.2938v7.1876l1.2629,0.0688v1.24H232.1982z M232.129,11.4809h-2.1357
		c-3.0075,0-4.1787,0.3906-4.1787,2.6408v0.4364c0,1.7222,0.9645,2.2961,2.5257,2.2961c1.5613,0,3.1001-0.6656,3.7886-1.102V11.4809
		z"/>
	<path class="st0" d="M236.7933,17.7499v-1.24l1.2863-0.0688V1.3316l-1.2863-0.0688V0h2.7783v16.4412l1.2629,0.0688v1.24H236.7933z"
		/>
</g>
<g>
	<path class="st0" d="M12.0036,55.8325c-7.1969,0-11.3385-2.6823-11.3385-11.7803v-2.8519c0-9.098,4.1416-11.7461,11.3385-11.7461
		c2.1054,0,5.6015,0.3735,6.8244,0.7129v6.3826h-3.9047l-0.3052-1.9694c-0.6446,0-1.3243-0.0336-2.003-0.0336
		c-3.734,0-5.5332,1.1883-5.5332,6.6537v2.8519c0,5.4996,1.7992,6.722,5.5674,6.722c0.6446,0,1.3575-0.0341,1.9689-0.0683
		l0.3052-2.003h3.9047v6.4167C17.6051,55.459,14.109,55.8325,12.0036,55.8325z"/>
	<path class="st0" d="M33.5299,55.2551v-1.256c-1.2902,0.8484-3.5312,1.7314-6.1115,1.7314c-3.6326,0-5.6688-1.8334-5.6688-5.5337
		v-0.7811c0-5.1597,3.9378-5.737,9.4369-5.737h1.7992v-1.0522c0-2.3429-0.509-2.8178-3.5643-2.8178
		c-0.7129,0-1.3575,0.0336-2.1045,0.0678l-0.3394,1.4935h-3.8023v-4.8545c1.0864-0.3735,4.2089-1.1541,7.468-1.1541
		c6.0432,0,8.2842,1.9348,8.2842,7.2652v8.1477l1.5271,0.1697v4.3113H33.5299z M33.2237,46.734h-1.9689
		c-2.7159,0-3.8705,0.3057-3.8705,2.4784v0.7806c0,1.494,0.9167,1.9011,2.2069,1.9011c1.5281,0,3.0221-0.5432,3.6326-0.8825V46.734z
		"/>
	<path class="st0" d="M50.6415,41.268v9.5061l1.5281,0.1697v4.3113h-8.9971v-4.3113l1.5623-0.1697V40.3177l-1.5623-0.1697v-4.3118
		h7.0623v1.6295c1.9006-1.7651,4.2772-2.1045,6.3816-2.1045v5.0583C54.4779,40.4196,52.1697,40.7931,50.6415,41.268z"/>
	<path class="st0" d="M72.0303,55.2551v-1.0186c-1.3584,0.8489-3.1908,1.494-5.5001,1.494c-4.6165,0-7.3324-2.8178-7.3324-8.9288
		v-2.3424c0-6.7556,3.3605-9.098,8.7923-9.098c1.3926,0,2.4789,0.1019,3.5984,0.2716v-3.0894l-1.731-0.136v-3.6326h7.6387v21.9993
		l1.5613,0.1697v4.3113H72.0303z M71.6227,40.1817c-1.0181-0.1697-2.1727-0.2711-2.9197-0.2711
		c-2.4097,0-3.5984,0.6787-3.5984,4.5488v2.3424c0,3.2254,0.8825,4.3454,3.3273,4.3454c1.1205,0,2.24-0.2375,3.1908-0.6451V40.1817z
		"/>
	<path class="st0" d="M81.7764,55.2551v-4.3454l1.5613-0.1356V40.3177l-1.5613-0.1697v-4.3118h7.468v14.9379l1.5622,0.1356v4.3454
		H81.7764z M83.2021,33.2564v-4.4815h6.1788v4.4815H83.2021z"/>
	<path class="st0" d="M102.622,55.7306c-5.8736,0-9.2682-2.7159-9.2682-9.1322v-2.1049c0-6.4163,3.3946-9.1321,9.2682-9.1321
		c5.9408,0,9.3355,2.7159,9.3355,9.1321v2.1049C111.9575,53.0147,108.5629,55.7306,102.622,55.7306z M106.0508,44.4935
		c0-3.3951-1.0191-4.5493-3.4288-4.5493c-2.3765,0-3.3956,1.1541-3.3956,4.5493v2.1049c0,3.3946,1.0191,4.5488,3.3956,4.5488
		c2.4097,0,3.4288-1.1541,3.4288-4.5488V44.4935z"/>
	<path class="st0" d="M133.517,40.4196l-4.5151,14.8355h-8.3515l-4.5151-14.8355l-1.6295-0.2379v-4.3454h6.5182l2.6818,10.4906
		c0.4418,1.7992,0.8153,3.6662,1.1205,5.2616h0.0683c0.3394-1.5954,0.7129-3.4624,1.1536-5.2616l2.6486-10.4906h6.4499v4.3454
		L133.517,40.4196z"/>
	<path class="st0" d="M148.9649,55.2551v-1.256c-1.2892,0.8484-3.5302,1.7314-6.1105,1.7314c-3.6326,0-5.6688-1.8334-5.6688-5.5337
		v-0.7811c0-5.1597,3.9378-5.737,9.4369-5.737h1.8002v-1.0522c0-2.3429-0.51-2.8178-3.5653-2.8178
		c-0.7129,0-1.3575,0.0336-2.1044,0.0678l-0.3394,1.4935h-3.8023v-4.8545c1.0864-0.3735,4.2089-1.1541,7.468-1.1541
		c6.0432,0,8.2842,1.9348,8.2842,7.2652v8.1477l1.5271,0.1697v4.3113H148.9649z M148.6597,46.734h-1.9689
		c-2.7159,0-3.8705,0.3057-3.8705,2.4784v0.7806c0,1.494,0.9167,1.9011,2.2068,1.9011c1.5281,0,3.0221-0.5432,3.6326-0.8825V46.734z
		"/>
	<path class="st0" d="M165.7723,55.7306c-2.7159,0-5.8394-0.4754-6.9258-0.747v-4.9564h3.8705l0.3052,1.5954
		c0.8143,0.0341,1.6295,0.0678,2.4448,0.0678c2.3424,0,2.987-0.5432,2.987-1.6632c0-1.0864-0.4749-1.3921-2.9197-2.3765
		l-1.4257-0.5773c-3.6326-1.3916-5.6015-2.9534-5.6015-6.1783c0-4.3118,3.0553-5.5337,7.978-5.5337
		c2.8515,0,5.975,0.4071,7.1969,0.7806v4.6848h-3.8364l-0.3394-1.3916c-0.7802-0.0341-1.7992-0.0678-2.4107-0.0678
		c-1.9689,0-2.7832,0.2375-2.7832,1.3575c0,0.9849,0.4749,1.3243,2.5462,2.1049l1.6968,0.6451
		c4.244,1.6295,5.738,3.1235,5.738,6.2807C174.2935,53.7612,171.5776,55.7306,165.7723,55.7306z"/>
	<path class="st0" d="M185.8368,55.7306c-5.9408,0-8.6567-3.0894-8.6567-9.1322v-2.1391c0-6.1105,2.7159-9.098,8.6567-9.098
		c3.0894,0,5.6015,0.4749,6.4499,0.747v5.4318h-3.6657l-0.3062-1.494c-0.4749-0.0341-1.1205-0.0678-1.493-0.0678
		c-2.4448,0-3.735,0.7465-3.735,4.481v2.1391c0,3.7681,1.2902,4.5488,3.8364,4.5488c1.1546,0,2.8173-0.1019,5.3635-0.2716v4.108
		C191.1672,55.2893,188.9262,55.7306,185.8368,55.7306z"/>
	<path class="st0" d="M209.2296,55.2551v-1.5618c-2.0372,1.1541-4.244,2.0372-6.7902,2.0372c-5.2962,0-5.9067-3.7004-5.9067-7.6045
		v-7.8083l-1.5623-0.2038v-4.2777h7.469V48.126c0,2.2746,0.4076,3.0553,2.3083,3.0553c1.1205,0,2.5804-0.4071,4.1085-1.0522v-9.8114
		l-1.5281-0.2038v-4.2777h7.469v14.9379l1.5613,0.2033v4.2777H209.2296z"/>
	<path class="st0" d="M219.0771,55.2551v-4.3113l1.5613-0.1697V33.2564l-1.5613-0.1697v-4.3118h7.468v21.9993l1.5623,0.1697v4.3113
		H219.0771z"/>
	<path class="st0" d="M242.6376,55.2551v-1.256c-1.2902,0.8484-3.5312,1.7314-6.1115,1.7314c-3.6326,0-5.6688-1.8334-5.6688-5.5337
		v-0.7811c0-5.1597,3.9378-5.737,9.4369-5.737h1.7992v-1.0522c0-2.3429-0.509-2.8178-3.5643-2.8178
		c-0.7129,0-1.3575,0.0336-2.1045,0.0678l-0.3394,1.4935h-3.8023v-4.8545c1.0864-0.3735,4.2089-1.1541,7.468-1.1541
		c6.0432,0,8.2842,1.9348,8.2842,7.2652v8.1477l1.5271,0.1697v4.3113H242.6376z M242.3314,46.734h-1.9689
		c-2.7159,0-3.8705,0.3057-3.8705,2.4784v0.7806c0,1.494,0.9167,1.9011,2.2068,1.9011c1.5281,0,3.0221-0.5432,3.6326-0.8825V46.734z
		"/>
	<path class="st0" d="M259.7492,41.268v9.5061l1.5281,0.1697v4.3113h-8.9971v-4.3113l1.5622-0.1697V40.3177l-1.5622-0.1697v-4.3118
		h7.0623v1.6295c1.9006-1.7651,4.2772-2.1045,6.3816-2.1045v5.0583C263.5856,40.4196,261.2773,40.7931,259.7492,41.268z"/>
	<path class="st0" d="M275.3006,55.2551v-4.3796l1.5954-0.1697V34.5802l-1.5954-0.1697v-4.3791h9.5734v4.3791l-1.5964,0.1697
		v16.1257l1.5964,0.1697v4.3796H275.3006z"/>
	<path class="st0" d="M311.4898,55.2551V42.6265c0-1.7656-0.0341-2.7842-2.003-2.7842c-0.9167,0-2.1727,0.3735-3.2591,0.9167
		c0.1024,0.611,0.1024,1.2902,0.1024,1.8675v12.6287h-5.9408V42.6265c0-1.7656-0.0341-2.7842-1.8675-2.7842
		c-1.1205,0-2.4107,0.5095-3.3274,0.9845v9.9474l1.5623,0.1697v4.3113h-9.0302v-4.3113l1.5613-0.1697V40.2836l-1.5613-0.1356
		v-4.3118h7.1286v1.5618c1.5954-1.2897,3.7008-2.0367,5.8394-2.0367c2.3765,0,3.734,0.7806,4.5834,2.1045
		c2.1727-1.5276,4.2772-2.1045,6.0764-2.1045c5.3636,0,6.0764,3.2927,6.0764,7.1291v8.2837l1.5623,0.1697v4.3113H311.4898z"/>
	<path class="st0" d="M333.5934,55.2551v-1.256c-1.2892,0.8484-3.5302,1.7314-6.1105,1.7314c-3.6326,0-5.6688-1.8334-5.6688-5.5337
		v-0.7811c0-5.1597,3.9378-5.737,9.4369-5.737h1.8002v-1.0522c0-2.3429-0.51-2.8178-3.5653-2.8178
		c-0.7129,0-1.3575,0.0336-2.1045,0.0678l-0.3394,1.4935h-3.8022v-4.8545c1.0863-0.3735,4.2089-1.1541,7.468-1.1541
		c6.0432,0,8.2842,1.9348,8.2842,7.2652v8.1477l1.5272,0.1697v4.3113H333.5934z M333.2882,46.734h-1.9689
		c-2.7159,0-3.8705,0.3057-3.8705,2.4784v0.7806c0,1.494,0.9167,1.9011,2.2068,1.9011c1.5281,0,3.0221-0.5432,3.6326-0.8825V46.734z
		"/>
	<path class="st0" d="M352.5052,62.5881c-6.1447,0-9.3706-1.6637-9.3706-6.0769c0-1.3579,0.6115-2.8178,1.7661-3.8364
		c-1.0191-0.7129-1.5281-1.7651-1.5281-2.8856c0-1.1878,0.5773-2.3424,1.8675-3.0211c-1.0191-0.9845-1.5954-2.5462-1.5954-4.6512
		c0-3.9378,1.5272-6.7556,8.9961-6.7556h9.709v3.0553l-1.731,0.4076c0.3735,0.509,0.9839,1.6295,0.9839,3.2927
		c0,5.0924-3.5643,6.7897-9.0302,6.7897c-1.4598,0-2.8856-0.1697-3.9037-0.4754c-0.4076,0.2716-0.6456,0.6451-0.6456,1.0186
		c0,0.7811,0.4076,0.8489,1.5964,0.8489h2.9197c6.3816,0,9.6748,0.9845,9.6748,6.0428
		C362.2142,60.8908,358.7172,62.5881,352.5052,62.5881z M352.5394,54.101h-3.0562c-0.5091,0.4754-0.8484,1.1541-0.8484,2.376
		c0,1.7656,0.747,2.5126,3.9047,2.5126c3.0884,0,4.0051-0.7811,4.0051-2.5126C356.5445,54.4745,355.8316,54.101,352.5394,54.101z
		 M352.5725,39.1972c-2.8514,0-3.2591,1.1205-3.2591,2.9197c0,1.867,0.5432,2.9534,3.2591,2.9534
		c2.8183,0,3.3615-1.0864,3.3615-2.9534C355.934,40.2499,355.3908,39.1972,352.5725,39.1972z"/>
	<path class="st0" d="M365.1369,55.2551v-4.3454l1.5613-0.1356V40.3177l-1.5613-0.1697v-4.3118h7.468v14.9379l1.5623,0.1356v4.3454
		H365.1369z M366.5626,33.2564v-4.4815h6.1788v4.4815H366.5626z"/>
	<path class="st0" d="M390.7014,55.2551V42.9658c0-2.2746-0.4076-3.0553-2.2751-3.0553c-1.1195,0-2.5794,0.4413-4.1416,1.0522
		v9.8114l1.5623,0.1697v4.3113h-9.0312v-4.3113l1.5623-0.1697V40.3177l-1.5623-0.1697v-4.3118h7.1296v1.5959
		c1.9689-1.256,4.1416-2.0708,6.3143-2.0708c5.8394,0,6.3826,3.4288,6.3826,7.6045v7.8083l1.5613,0.1697v4.3113H390.7014z"/>
	<path class="st0" d="M410.1555,62.5881c-6.1447,0-9.3706-1.6637-9.3706-6.0769c0-1.3579,0.6115-2.8178,1.7661-3.8364
		c-1.0191-0.7129-1.5281-1.7651-1.5281-2.8856c0-1.1878,0.5773-2.3424,1.8675-3.0211c-1.0191-0.9845-1.5954-2.5462-1.5954-4.6512
		c0-3.9378,1.5271-6.7556,8.9961-6.7556H420v3.0553l-1.731,0.4076c0.3735,0.509,0.9839,1.6295,0.9839,3.2927
		c0,5.0924-3.5643,6.7897-9.0302,6.7897c-1.4598,0-2.8856-0.1697-3.9037-0.4754c-0.4077,0.2716-0.6456,0.6451-0.6456,1.0186
		c0,0.7811,0.4077,0.8489,1.5964,0.8489h2.9187c6.3826,0,9.6758,0.9845,9.6758,6.0428
		C419.8644,60.8908,416.3674,62.5881,410.1555,62.5881z M410.1886,54.101h-3.0553c-0.509,0.4754-0.8484,1.1541-0.8484,2.376
		c0,1.7656,0.747,2.5126,3.9037,2.5126c3.0894,0,4.0061-0.7811,4.0061-2.5126C414.1947,54.4745,413.4818,54.101,410.1886,54.101z
		 M410.2227,39.1972c-2.8514,0-3.2591,1.1205-3.2591,2.9197c0,1.867,0.5432,2.9534,3.2591,2.9534
		c2.8183,0,3.3615-1.0864,3.3615-2.9534C413.5842,40.2499,413.041,39.1972,410.2227,39.1972z"/>
</g>
</svg>
