<?xml version="1.0" encoding="utf-8"?>
<!-- Generator: Adobe Illustrator 28.1.0, SVG Export Plug-In . SVG Version: 6.00 Build 0)  -->
<svg version="1.1" id="Layer_1" xmlns="http://www.w3.org/2000/svg" xmlns:xlink="http://www.w3.org/1999/xlink" x="0px" y="0px"
	 viewBox="0 0 564.8 124.7" style="enable-background:new 0 0 564.8 124.7;" xml:space="preserve">
<style type="text/css">
	.st0{fill:#DFA4CD;}
	.st1{fill:#C760A7;}
	.st2{fill:#AF1B81;}
	.st3{fill:#45555F;}
	.st4{fill:url(#SVGID_1_);}
	.st5{fill:url(#SVGID_00000110459607257113486080000013494129875001391038_);}
	.st6{fill:url(#SVGID_00000067952870843508524910000011368195737659863458_);}
	.st7{fill:#80A8C1;}
	.st8{fill:#005284;}
	.st9{fill:#407DA3;}
	.st10{fill:url(#SVGID_00000042720415948424963290000000297488893779707788_);}
	.st11{fill:url(#SVGID_00000168825293735507087460000010921455096747611799_);}
	.st12{fill:url(#SVGID_00000013188413733921182820000003653276927579264944_);}
	.st13{fill:#00B29D;}
	.st14{fill:url(#SVGID_00000037682177761716206000000006929226371223959443_);}
	.st15{fill:url(#SVGID_00000118398846195182908570000010954417424607196039_);}
	.st16{fill:url(#SVGID_00000106859828827047649910000014291045597290231178_);}
	.st17{fill:#8CDCD3;}
	.st18{fill:#4DC9BB;}
	.st19{fill:#01B19C;}
	.st20{fill:url(#SVGID_00000065775441352875625050000016784492453778244775_);}
	.st21{fill:url(#SVGID_00000045598167604103868350000004302808002437077121_);}
	.st22{fill:url(#SVGID_00000140702779083512040780000016008052697455946125_);}
</style>
<g id="Logo_Layer">
	<path class="st0" d="M10.1,37.8c-0.2,0.6-0.3,1.1-0.4,1.5c-1,6.2-2,12.6-2.9,18.8C5.1,69.8,3.4,81.6,1.7,93.4
		C1,98.2,0,103,0.2,107.7c0.4,7,4.4,12.2,10.8,15.2c4.8,2.3,9.9,2.4,15.2,0.7c7.7-2.5,13.5-7.1,14.9-15.6c1.3-7.8,2.3-15.7,3.6-23.6
		c0.6-3.7,0.6-7.3,0-10.8l2.9-1.2C47.7,72.4,50.8,55.2,10.1,37.8z"/>
	<path class="st1" d="M99,39.9c-5.1-3.6-10.1-7.2-15.2-10.8c-9.5-6.6-19-13.4-28.7-19.9c-3.9-2.7-7.6-5.7-11.9-7.5
		C36.6-1.2,29.8,0,23.5,4.1c-4.7,3.1-7.6,7.3-9.1,12.5c-2.1,7.5-1.2,14.5,5.6,19.4c6.2,4.6,12.7,8.9,19,13.4c3,2.2,6.2,3.8,9.7,4.9
		l-0.6,3.1C63.8,63.8,100,40.9,100,40.9C99.6,40.4,99.3,40.1,99,39.9z"/>
	<path class="st2" d="M123.2,67.3c-0.2-5.5-2.4-9.9-6.2-13.5c-5.7-5.3-12.4-7.6-20.5-4.1c-7.5,3.3-15.1,6.7-22.6,10.1
		c-3.6,1.6-6.7,3.6-9.6,6L61.5,64c0,0-16.5,6.5-13.8,52c0.6-0.2,1.1-0.3,1.5-0.5c6.1-2.7,12.1-5.4,18.2-8
		C78.7,102.3,90,97.2,101.2,92c4.6-2.1,9.3-4,13.4-6.7C120.7,80.9,123.4,74.7,123.2,67.3z"/>
	<path class="st2" d="M350.3,50.8c0,2.8-1.5,4.8-3.6,5.6c-1.5,0.6-3.6,0.7-5.7,0.7h-4.3V44.1c1.1,0,2.6-0.1,3.5-0.1
		c2.7,0,4.7,0.1,6.6,1C349,46,350.3,47.9,350.3,50.8 M347,30.8c0,4.4-2.4,5.8-7.5,5.8h-2.6V25.9h3.4C344.4,25.9,347,27.5,347,30.8
		 M361.5,51.3c0-6.9-4.7-11.3-11.2-12v-0.1c4.8-1,7.4-5.3,7.4-9.9c0-8.1-6-11.7-18.3-11.7h-11.1c-1.6,0-2.3,0.3-2.3,2V63
		c0,1.7,0.4,2.4,2.1,2.4h13.8C351.8,65.4,361.5,62.8,361.5,51.3 M323.2,19.3V19c0-0.9-0.5-1.5-1.7-1.5H318h-33.6
		c-1.3,0-1.9,0.6-1.9,1.7v5.1c0,1.4,0.6,2.1,1.9,2.1H297v37.3c0,1.5,0.1,1.7,1.6,1.7h7.8c1.4,0,1.6-0.3,1.6-1.8V26.5h12.1
		c1.5,0,2.4-0.3,2.5-1.7L323.2,19.3z M270.2,33.5c0,5-2.7,7.5-7.8,7.5c-0.6,0-2.8,0-3.8-0.1V26.1h3.4
		C267.1,26.1,270.2,28.2,270.2,33.5 M281.2,33c0-3.7-1.3-7.4-3.8-10.2c-3.5-3.9-9-5.3-17.1-5.3h-10.7c-1.6,0-2.1,0.4-2.1,2.2v43.5
		c0,1.7,0.8,2.2,2,2.2h6.9c1.6,0,2.1-0.7,2.1-1.9V49.4c0.8,0.1,2.9,0.2,3.8,0.2C273,49.6,281.2,44.1,281.2,33 M243.7,20.7
		c0-0.5-0.3-1-1.3-1.4c-4-1.8-8.2-2.8-13.2-2.8c-13.9,0-22.9,10.3-22.9,25.2c0,14.8,7.3,24.5,22,24.5c5.4,0,9.2-0.9,14-2.7
		c1-0.4,1.2-0.8,1.2-1.5c0-0.3-0.1-0.7-0.2-1.1l-1.7-5.1c-0.3-0.8-0.6-1.1-1.3-1.1c-0.3,0-0.6,0.1-1,0.3c-3.3,1.3-6.1,1.9-9.3,1.9
		c-6.7,0-12-4.8-12-15.6c0-10,4.7-15.6,11.8-15.6c3.3,0,6.1,0.6,9.7,2.4c0.3,0.1,0.6,0.3,0.9,0.3c0.5,0,0.8-0.3,1-1l2-5.8
		C243.7,21.3,243.7,20.9,243.7,20.7 M191.4,33.2c0,5.1-3.1,7.8-8.1,7.8h-3.5V25.9h2.7C187.7,25.9,191.4,27.7,191.4,33.2 M205.9,64.5
		c0-0.3-0.1-0.8-0.4-1.2l-11.3-16.2v-0.1c5.6-2.8,8.2-7.9,8.2-14.1c0-3.8-1.3-7.5-3.8-10.3c-4.2-4.7-11.2-5.2-17.1-5.2h-10.5
		c-1.9,0-2.3,0.5-2.3,2.4v43.5c0,1.4,0.6,2,1.9,2h7.1c1.4,0,1.9-0.8,1.9-1.9V49.2h4.3l9.6,14.7c0.8,1.2,1.7,1.5,3.1,1.5h8
		C205.4,65.4,205.9,65.1,205.9,64.5 M161.5,49.7V19.3c0-1-0.7-1.8-1.9-1.8h-17c-1,0-1.6,0.6-1.6,1.7v3.6c0,0.8,0.5,1.8,1.6,1.8h7.9
		v22v4.5c0,2.6-0.6,4.4-1.5,5.4c-1,1-2.6,1.5-4.1,1.5c-1.1,0-2.6-0.1-4-0.4h-0.2h-0.3c-0.9,0-1.1,0.5-1.3,1.2l-0.8,4.8
		c-0.1,0.3-0.1,0.6-0.1,0.9c0,0.6,0.3,1,1.4,1.3c1.9,0.3,4.1,0.6,5.6,0.6c4.8,0,8.3-1,10.9-2.8C159.6,60.7,161.5,56,161.5,49.7"/>
	<path class="st3" d="M536.2,90.1c-0.4,0.5-1.3,1-2,1c-1.6,0-2.2-1.5-2.2-3.2c0-1.7,0.7-3.2,2.3-3.2c0.8,0,1.5,0.4,1.9,1V90.1
		L536.2,90.1z M538.6,92.3V79c0-0.3-0.1-0.4-0.3-0.4h-0.2l-1.5,0.2c-0.3,0-0.4,0.2-0.4,0.5v4.5c-0.6-0.6-1.5-0.9-2.4-0.9
		c-2.8,0-4.4,2.4-4.4,5.2c0,2.7,1.3,5,4.2,5c1,0,2.2-0.5,2.7-1.2v0.5c0,0.2,0.2,0.4,0.5,0.4h1.3C538.4,92.8,538.6,92.7,538.6,92.3
		 M529.2,83.3c0-0.2-0.1-0.2-0.2-0.3c-0.2,0-0.4-0.1-0.6-0.1c-1.1,0-1.8,0.5-2.4,1.3v-0.6c0-0.3-0.2-0.4-0.5-0.4h-1.3
		c-0.3,0-0.5,0.1-0.5,0.5v2.5v6.1c0,0.3,0.2,0.5,0.5,0.5h1.5c0.3,0,0.5-0.2,0.5-0.5V86c0.5-0.6,1.2-1,1.9-1c0.2,0,0.4,0,0.5,0.1h0.1
		c0.2,0,0.3-0.1,0.3-0.3L529.2,83.3C529.2,83.4,529.2,83.4,529.2,83.3 M519.1,89.7c-0.3,0.6-1.1,1.4-2.1,1.4c-1.5,0-2.1-1.4-2.1-3.1
		c0-2.1,1-3.1,2.3-3.1c0.8,0,1.6,0.4,2,1L519.1,89.7C519.2,89.7,519.1,89.7,519.1,89.7z M522.3,92.4v-0.9c0-0.3-0.1-0.3-0.4-0.3
		h-0.2c-0.1,0-0.2,0-0.2-0.1c-0.1-0.1-0.1-0.3-0.1-0.6v-6.8c0-0.3-0.2-0.4-0.4-0.4h-1.4c-0.2,0-0.4,0.1-0.4,0.4v0.5
		c-0.5-0.7-1.5-1.2-2.6-1.2c-2.2,0-4.3,1.8-4.3,5.3c0,2.6,1.3,4.9,4.1,4.9c1.1,0,2.4-0.7,2.9-1.4l0,0c0.1,0.7,0.6,1.2,1.6,1.2h1
		C522.2,92.8,522.3,92.7,522.3,92.4 M509,88.1c0,1.6-0.6,3.2-2.4,3.2c-1.8,0-2.3-1.6-2.3-3.3c0-1.6,0.6-3.1,2.4-3.1
		C508.5,84.9,509,86.4,509,88.1 M511.4,88.1c0-2.9-1.5-5.1-4.8-5.1c-3.1,0-4.9,2.2-4.9,5.1c0,2.9,1.5,5.1,4.8,5.1
		C509.7,93.1,511.4,90.8,511.4,88.1 M498.1,88.8c0,1-0.5,1.6-1.2,1.9c-0.5,0.2-1.2,0.3-1.9,0.3h-1.5v-4.4h1.3c0.8,0,1.5,0.1,2.1,0.4
		C497.7,87.3,498.1,87.9,498.1,88.8 M497.2,82.8c0,1.6-1,2-2.5,2h-1v-3.7h1.1C496.2,81.1,497.2,81.5,497.2,82.8 M500.7,88.9
		c0-2-1.4-3.3-3.3-3.5l0,0c1.5-0.3,2.3-1.5,2.3-2.9c0-2.4-1.8-3.4-5-3.4h-3c-0.4,0-0.6,0.1-0.6,0.5v12.6c0,0.4,0.1,0.6,0.5,0.6h3.7
		C498.1,92.8,500.7,92,500.7,88.9 M481.9,89.9c-0.4,0.5-1.3,1-2.1,1c-0.5,0-1.1-0.2-1.4-0.5c-0.6-0.6-0.8-1.5-0.8-2.4
		c0-0.9,0.2-1.9,0.9-2.5c0.4-0.3,0.9-0.6,1.5-0.6c0.8,0,1.5,0.4,1.9,1V89.9L481.9,89.9z M484.3,92.1v-8.4c0-0.3-0.1-0.5-0.5-0.5
		h-1.3c-0.3,0-0.4,0.1-0.5,0.4v0.5c-0.2-0.3-0.6-0.6-1-0.8c-0.5-0.2-1-0.3-1.4-0.3c-2.9,0-4.4,2.5-4.4,5.2c0,1.5,0.4,2.7,1.3,3.6
		c0.7,0.7,1.7,1.1,2.9,1.1c0.9,0,2-0.4,2.6-1v0.8c0,1.6-0.4,2.7-2.4,2.7c-0.7,0-1.5-0.2-2.2-0.5c-0.1,0-0.2-0.1-0.3-0.1
		s-0.2,0.1-0.3,0.4l-0.3,0.9c0,0.1-0.1,0.2-0.1,0.3c0,0.2,0.1,0.3,0.3,0.4c1,0.4,2,0.6,3,0.6C483,97.2,484.3,95.4,484.3,92.1
		 M473.6,92.3v-5.9c0-2.2-0.9-3.6-3.2-3.6c-1.2,0-2.3,0.4-3.2,1.2v-0.5c0-0.3-0.2-0.4-0.5-0.4h-1.3c-0.4,0-0.5,0.2-0.5,0.5v8.6
		c0,0.3,0.2,0.5,0.5,0.5h1.5c0.3,0,0.5-0.2,0.5-0.5V86c0.6-0.5,1.6-1,2.4-1c1.2,0,1.5,0.8,1.5,1.9v5.4c0,0.3,0.1,0.5,0.5,0.5h1.4
		C473.5,92.8,473.6,92.6,473.6,92.3 M462.9,92.3v-8.6c0-0.4-0.2-0.5-0.5-0.5H461c-0.3,0-0.5,0.1-0.5,0.5v8.6c0,0.4,0.2,0.5,0.5,0.5
		h1.4C462.7,92.8,462.9,92.7,462.9,92.3 M463,80.7c0-0.8-0.7-1.3-1.3-1.3c-0.7,0-1.4,0.5-1.4,1.3c0,0.8,0.7,1.2,1.4,1.2
		C462.3,81.9,463,81.5,463,80.7 M458.5,92.3v-5.9c0-2.2-0.9-3.6-3.2-3.6c-1.2,0-2.3,0.4-3.2,1.2v-0.5c0-0.3-0.2-0.4-0.5-0.4h-1.3
		c-0.4,0-0.5,0.2-0.5,0.5v8.6c0,0.3,0.2,0.5,0.5,0.5h1.5c0.3,0,0.5-0.2,0.5-0.5V86c0.6-0.5,1.6-1,2.4-1c1.2,0,1.5,0.8,1.5,1.9v5.4
		c0,0.3,0.1,0.5,0.5,0.5h1.4C458.4,92.8,458.5,92.6,458.5,92.3 M447.8,92.3v-8.6c0-0.4-0.2-0.5-0.5-0.5h-1.4c-0.3,0-0.5,0.1-0.5,0.5
		v8.6c0,0.4,0.2,0.5,0.5,0.5h1.4C447.6,92.8,447.8,92.7,447.8,92.3 M447.9,80.7c0-0.8-0.7-1.3-1.3-1.3c-0.7,0-1.4,0.5-1.4,1.3
		c0,0.8,0.7,1.2,1.4,1.2C447.2,81.9,447.9,81.5,447.9,80.7 M440.6,89.7c-0.3,0.6-1.1,1.4-2.1,1.4c-1.5,0-2.1-1.4-2.1-3.1
		c0-2.1,1-3.1,2.3-3.1c0.8,0,1.6,0.4,2,1L440.6,89.7L440.6,89.7z M443.9,92.4v-0.9c0-0.3-0.1-0.3-0.4-0.3h-0.1c-0.1,0-0.2,0-0.2-0.1
		c-0.1-0.1-0.1-0.3-0.1-0.6v-6.8c0-0.3-0.2-0.4-0.4-0.4h-1.4c-0.2,0-0.4,0.1-0.4,0.4v0.5c-0.5-0.7-1.5-1.2-2.6-1.2
		c-2.2,0-4.3,1.8-4.3,5.3c0,2.6,1.3,4.9,4.1,4.9c1.1,0,2.4-0.7,2.9-1.4l0,0c0.1,0.7,0.6,1.2,1.6,1.2h1
		C443.7,92.8,443.9,92.7,443.9,92.4 M433.7,83.3c0-0.2-0.1-0.2-0.2-0.3c-0.2,0-0.4-0.1-0.6-0.1c-1.1,0-1.8,0.5-2.4,1.3v-0.6
		c0-0.3-0.2-0.4-0.5-0.4h-1.3c-0.3,0-0.5,0.1-0.5,0.5v2.5v6.1c0,0.3,0.2,0.5,0.5,0.5h1.5c0.3,0,0.5-0.2,0.5-0.5V86
		c0.5-0.6,1.2-1,1.9-1c0.2,0,0.4,0,0.5,0.1h0.1c0.2,0,0.3-0.1,0.3-0.3L433.7,83.3C433.7,83.4,433.7,83.4,433.7,83.3 M428.8,79.6
		c0-0.3-0.1-0.5-0.6-0.5h-10c-0.3,0-0.4,0.1-0.4,0.4v1.2c0,0.3,0.1,0.5,0.5,0.5h3.7v11.2c0,0.4,0.1,0.4,0.4,0.4h1.8
		c0.3,0,0.4-0.1,0.4-0.5V81.2h3.6c0.4,0,0.6-0.1,0.6-0.4L428.8,79.6z M412.8,90c0-1.3-0.8-2.1-1.9-2.6l-1.8-0.7c-0.8-0.3-1-0.6-1-1
		c0-0.5,0.4-0.9,1.3-0.9c0.6,0,1.5,0.2,2.2,0.5c0.1,0,0.1,0,0.2,0c0.1,0,0.2-0.1,0.3-0.2l0.3-1.1c0-0.1,0-0.1,0-0.2
		s-0.1-0.2-0.2-0.3c-1-0.4-1.9-0.6-2.9-0.6c-1.8,0-3.6,0.9-3.6,2.9c0,1.4,0.9,2.2,2.1,2.7l1.6,0.6c0.8,0.3,1.2,0.6,1.2,1.2
		c0,0.7-0.6,1.1-1.5,1.1c-0.7,0-1.6-0.3-2.5-0.6c-0.1,0-0.2,0-0.2,0c-0.1,0-0.2,0.1-0.3,0.3l-0.3,1c0,0.1,0,0.1,0,0.2
		s0.1,0.2,0.2,0.3c0.9,0.4,2,0.7,3.1,0.7C411.1,93.1,412.8,92.1,412.8,90 M404.3,92.3v-5.9c0-2.2-0.9-3.6-3.2-3.6
		c-1.2,0-2.3,0.4-3.2,1.2v-0.5c0-0.3-0.2-0.4-0.5-0.4h-1.3c-0.4,0-0.5,0.2-0.5,0.5v8.6c0,0.3,0.2,0.5,0.5,0.5h1.5
		c0.3,0,0.5-0.2,0.5-0.5V86c0.6-0.5,1.6-1,2.4-1c1.2,0,1.5,0.8,1.5,1.9v5.4c0,0.3,0.1,0.5,0.5,0.5h1.4
		C404.1,92.8,404.3,92.6,404.3,92.3 M391,89.7c-0.3,0.6-1.1,1.4-2.1,1.4c-1.5,0-2.1-1.4-2.1-3.1c0-2.1,1-3.1,2.3-3.1
		c0.8,0,1.6,0.4,2,1L391,89.7L391,89.7z M394.3,92.4v-0.9c0-0.3-0.1-0.3-0.4-0.3h-0.2c-0.1,0-0.2,0-0.2-0.1
		c-0.1-0.1-0.1-0.3-0.1-0.6v-6.8c0-0.3-0.2-0.4-0.4-0.4h-1.4c-0.2,0-0.4,0.1-0.4,0.4v0.5c-0.5-0.7-1.5-1.2-2.6-1.2
		c-2.2,0-4.3,1.8-4.3,5.3c0,2.6,1.3,4.9,4.1,4.9c1.1,0,2.4-0.7,2.9-1.4l0,0c0.1,0.7,0.6,1.2,1.6,1.2h1
		C394.1,92.8,394.3,92.7,394.3,92.4 M382.8,92.3v-8.6c0-0.4-0.2-0.5-0.5-0.5h-1.4c-0.3,0-0.5,0.1-0.5,0.5v8.6c0,0.4,0.2,0.5,0.5,0.5
		h1.4C382.6,92.8,382.8,92.7,382.8,92.3 M382.9,80.7c0-0.8-0.7-1.3-1.3-1.3c-0.7,0-1.4,0.5-1.4,1.3c0,0.8,0.7,1.2,1.4,1.2
		S382.9,81.5,382.9,80.7 M379,92.1c0-0.1,0-0.2-0.1-0.3l-0.3-0.9c0-0.1-0.1-0.2-0.2-0.2c-0.1,0-0.1,0-0.2,0.1
		c-0.7,0.3-1.2,0.4-2.1,0.4c-1.7,0-2.6-1.3-2.6-3.2c0-2,1-3.2,2.7-3.2c0.7,0,1.3,0.2,1.9,0.4c0.1,0,0.2,0.1,0.2,0.1
		c0.1,0,0.2-0.1,0.2-0.3l0.3-1.1c0-0.1,0-0.2,0-0.2c0-0.2-0.1-0.2-0.2-0.3c-0.8-0.4-1.8-0.6-2.7-0.6c-3.1,0-4.9,2.1-4.9,5.2
		c0,3.1,1.7,5,4.8,5c1.1,0,1.9-0.2,2.9-0.6C378.9,92.4,379,92.3,379,92.1 M369.7,92.3v-8.6c0-0.4-0.2-0.5-0.5-0.5h-1.4
		c-0.3,0-0.5,0.1-0.5,0.5v8.6c0,0.4,0.2,0.5,0.5,0.5h1.4C369.5,92.8,369.7,92.7,369.7,92.3 M369.8,80.7c0-0.8-0.7-1.3-1.3-1.3
		c-0.7,0-1.4,0.5-1.4,1.3c0,0.8,0.7,1.2,1.4,1.2C369.1,81.9,369.8,81.5,369.8,80.7 M365.8,90c0-1.3-0.8-2.1-1.9-2.6l-1.8-0.7
		c-0.8-0.3-1-0.6-1-1c0-0.5,0.4-0.9,1.3-0.9c0.6,0,1.5,0.2,2.2,0.5c0.1,0,0.1,0,0.2,0s0.2-0.1,0.3-0.2l0.3-1.1c0-0.1,0-0.1,0-0.2
		s-0.1-0.2-0.2-0.3c-1-0.4-1.9-0.6-2.9-0.6c-1.8,0-3.6,0.9-3.6,2.9c0,1.4,0.9,2.2,2.1,2.7l1.6,0.6c0.8,0.3,1.2,0.6,1.2,1.2
		c0,0.7-0.6,1.1-1.5,1.1c-0.7,0-1.6-0.3-2.5-0.6c-0.1,0-0.2,0-0.2,0c-0.1,0-0.2,0.1-0.3,0.3l-0.3,1c0,0.1,0,0.1,0,0.2
		s0.1,0.2,0.2,0.3c0.9,0.4,2,0.7,3.1,0.7C364,93.1,365.8,92.1,365.8,90 M358.3,83.5c0-0.2-0.1-0.3-0.3-0.3h-1.6
		c-0.3,0-0.5,0.1-0.6,0.5l-2.1,6.4l-2.2-6.5c-0.1-0.2-0.2-0.3-0.5-0.3h-1.9c-0.2,0-0.3,0.1-0.3,0.3c0,0.1,0,0.1,0,0.2l3.6,9.3
		L352,94c-0.4,0.9-0.9,1.4-2.2,1.4c-0.2,0-0.4,0-0.7-0.1h-0.1c-0.2,0-0.3,0.1-0.4,0.4l-0.1,1c0,0.1,0,0.1,0,0.2
		c0,0.2,0.1,0.3,0.3,0.3c0.3,0.1,0.7,0.1,1.1,0.1c2.4,0,3.5-0.8,4.4-3.2l3.9-10.3C358.2,83.6,358.3,83.6,358.3,83.5 M347.9,92.4v-6
		c0-2.2-0.9-3.6-3.2-3.6c-1.1,0-2.3,0.4-3.2,1.1v-5c0-0.3-0.1-0.4-0.3-0.4c-0.1,0-0.2,0-0.3,0l-1.4,0.2c-0.3,0-0.4,0.1-0.4,0.5v13.1
		c0,0.3,0.1,0.4,0.3,0.4h1.7c0.3,0,0.4-0.1,0.4-0.4V86c0.6-0.5,1.6-1,2.4-1c1.2,0,1.5,0.8,1.5,1.9v5.6c0,0.3,0.1,0.4,0.3,0.4h1.8
		C347.8,92.8,347.9,92.7,347.9,92.4 M335.3,83.5c0,1.7-1,2.5-2.7,2.5c-0.1,0-1,0-1.2,0v-5h1C334.2,81.1,335.3,81.7,335.3,83.5
		 M337.9,83.5c0-1.1-0.4-2.1-1-2.8c-1-1.1-2.5-1.5-4.7-1.5h-2.9c-0.4,0-0.5,0.1-0.5,0.5v12.6c0,0.4,0.2,0.5,0.5,0.5h1.6
		c0.4,0,0.5-0.2,0.5-0.5V88c0.1,0,1,0.1,1.2,0.1C335.6,88.1,337.9,86.5,337.9,83.5 M323.8,79.2c0-0.2-0.1-0.3-0.3-0.4
		c-0.6-0.3-1.5-0.4-2.1-0.4c-2,0-3.1,1-3.4,2.7c-0.1,0.4-0.1,1-0.1,1.6v0.5h-1.1c-0.3,0-0.4,0.2-0.4,0.4v0.8c0,0.4,0.1,0.5,0.4,0.5
		h1.1v7.4c0,0.3,0.1,0.5,0.5,0.5h1.4c0.4,0,0.5-0.2,0.5-0.6v-7.4h2.2c0.2,0,0.4-0.1,0.4-0.4v-0.9c0-0.3-0.2-0.3-0.4-0.3h-2.1v-0.9
		c0-1.2,0.3-2,1.5-2c0.5,0,1,0.1,1.4,0.3c0.1,0,0.1,0,0.2,0c0.2,0,0.2-0.1,0.3-0.3l0.1-0.8C323.8,79.4,323.8,79.3,323.8,79.2
		 M313.5,88.1c0,1.6-0.6,3.2-2.4,3.2c-1.8,0-2.3-1.6-2.3-3.3c0-1.6,0.6-3.1,2.4-3.1C313,84.9,313.5,86.4,313.5,88.1 M316,88.1
		c0-2.9-1.5-5.1-4.8-5.1c-3.1,0-4.9,2.2-4.9,5.1c0,2.9,1.5,5.1,4.8,5.1C314.2,93.1,316,90.8,316,88.1 M301.1,90
		c0-1.3-0.8-2.1-1.9-2.6l-1.8-0.7c-0.8-0.3-1-0.6-1-1c0-0.5,0.4-0.9,1.3-0.9c0.6,0,1.5,0.2,2.2,0.5c0.1,0,0.1,0,0.2,0
		c0.1,0,0.2-0.1,0.3-0.2l0.3-1.1c0-0.1,0-0.1,0-0.2s-0.1-0.2-0.2-0.3c-1-0.4-1.9-0.6-2.9-0.6c-1.8,0-3.6,0.9-3.6,2.9
		c0,1.4,0.9,2.2,2.1,2.7l1.6,0.6c0.8,0.3,1.2,0.6,1.2,1.2c0,0.7-0.6,1.1-1.5,1.1c-0.7,0-1.6-0.3-2.5-0.6c-0.1,0-0.2,0-0.2,0
		c-0.1,0-0.2,0.1-0.3,0.3l-0.3,1c0,0.1,0,0.1,0,0.2s0.1,0.2,0.2,0.3c0.9,0.4,2,0.7,3.1,0.7C299.4,93.1,301.1,92.1,301.1,90
		 M290.8,87h-4.1c0.2-1.2,0.9-2.2,2.2-2.2c1.2,0,1.8,1,1.9,2V87L290.8,87z M293.1,88v-0.3c0-1.4-0.3-2.6-1.2-3.6
		c-0.7-0.7-1.7-1.2-2.9-1.2c-3,0-4.9,2.1-4.9,5.1c0,3.1,1.9,5.1,5,5.1c1,0,2.4-0.2,3.4-0.6c0.2-0.1,0.3-0.2,0.3-0.3s0-0.1,0-0.2
		l-0.3-1c0-0.2-0.1-0.2-0.3-0.2c-0.1,0-0.1,0-0.2,0.1c-0.7,0.3-1.6,0.5-2.5,0.5c-1.6,0-2.7-1.1-2.9-2.6h5.9
		C293,88.6,293.1,88.5,293.1,88 M280.2,89.9c-0.4,0.5-1.3,1-2.1,1c-0.5,0-1.1-0.2-1.4-0.5c-0.6-0.6-0.8-1.5-0.8-2.4
		c0-0.9,0.2-1.9,0.9-2.5c0.4-0.3,0.9-0.6,1.5-0.6c0.8,0,1.5,0.4,1.9,1V89.9L280.2,89.9z M282.6,92.1v-8.4c0-0.3-0.1-0.5-0.5-0.5
		h-1.3c-0.3,0-0.4,0.1-0.5,0.4v0.5c-0.2-0.3-0.6-0.6-1-0.8c-0.5-0.2-1-0.3-1.4-0.3c-2.9,0-4.5,2.5-4.5,5.2c0,1.5,0.4,2.7,1.3,3.6
		c0.7,0.7,1.7,1.1,2.9,1.1c0.9,0,2-0.4,2.6-1v0.8c0,1.6-0.4,2.7-2.4,2.7c-0.7,0-1.5-0.2-2.2-0.5c-0.1,0-0.2-0.1-0.3-0.1
		s-0.2,0.1-0.3,0.4l-0.3,0.9c0,0.1-0.1,0.2-0.1,0.3c0,0.2,0.1,0.3,0.3,0.4c1,0.4,2,0.6,3,0.6C281.3,97.2,282.6,95.4,282.6,92.1
		 M270.2,87h-4.1c0.2-1.2,0.9-2.2,2.2-2.2c1.2,0,1.8,1,1.9,2V87L270.2,87z M272.6,88v-0.3c0-1.4-0.3-2.6-1.2-3.6
		c-0.7-0.7-1.7-1.2-2.9-1.2c-3,0-4.9,2.1-4.9,5.1c0,3.1,1.9,5.1,5,5.1c1,0,2.4-0.2,3.4-0.6c0.2-0.1,0.3-0.2,0.3-0.3s0-0.1,0-0.2
		l-0.3-1c0-0.2-0.1-0.2-0.3-0.2c-0.1,0-0.1,0-0.2,0.1c-0.7,0.3-1.6,0.5-2.5,0.5c-1.6,0-2.7-1.1-2.9-2.6h5.9
		C272.4,88.6,272.6,88.5,272.6,88 M262.1,92.3V79.1c0-0.3-0.2-0.4-0.4-0.4h-0.1l-1.4,0.2c-0.3,0-0.4,0.1-0.4,0.5v13
		c0,0.3,0.2,0.5,0.5,0.5h1.5C262,92.8,262.1,92.7,262.1,92.3 M257.6,92.3V79.1c0-0.3-0.2-0.4-0.4-0.4h-0.1l-1.4,0.2
		c-0.3,0-0.4,0.1-0.4,0.5v13c0,0.3,0.2,0.5,0.5,0.5h1.5C257.5,92.8,257.6,92.7,257.6,92.3 M251.3,88.1c0,1.6-0.6,3.2-2.4,3.2
		c-1.8,0-2.3-1.6-2.3-3.3c0-1.6,0.6-3.1,2.4-3.1S251.3,86.4,251.3,88.1 M253.7,88.1c0-2.9-1.5-5.1-4.8-5.1c-3.1,0-4.9,2.2-4.9,5.1
		c0,2.9,1.5,5.1,4.8,5.1C252,93.1,253.7,90.8,253.7,88.1 M243.5,91.8c0-0.1,0-0.2-0.1-0.3l-0.4-1.1c-0.1-0.2-0.2-0.3-0.3-0.3
		s-0.1,0-0.2,0.1c-0.9,0.4-1.9,0.6-2.9,0.6c-2.5,0-3.9-2-3.9-5c0-2.4,1.1-5,3.9-5c1,0,1.9,0.2,2.9,0.7c0.1,0,0.2,0.1,0.2,0.1
		c0.1,0,0.2-0.1,0.3-0.3l0.5-1.3c0-0.1,0.1-0.2,0.1-0.3c0-0.1-0.1-0.2-0.3-0.3c-1.1-0.6-2.4-0.8-3.8-0.8c-4,0-6.4,3.1-6.4,7.1
		s2.1,7,6.2,7c1.5,0,2.7-0.3,4-0.8C243.5,92.1,243.5,92,243.5,91.8 M226.9,92.3V79.1c0-0.3-0.2-0.4-0.4-0.4h-0.1l-1.4,0.2
		c-0.3,0-0.4,0.1-0.4,0.5v13c0,0.3,0.2,0.5,0.5,0.5h1.5C226.7,92.8,226.9,92.7,226.9,92.3 M219.8,89.7c-0.3,0.6-1.1,1.4-2.1,1.4
		c-1.5,0-2.1-1.4-2.1-3.1c0-2.1,1-3.1,2.3-3.1c0.8,0,1.6,0.4,2,1L219.8,89.7L219.8,89.7z M223.1,92.4v-0.9c0-0.3-0.1-0.3-0.4-0.3
		h-0.2c-0.1,0-0.2,0-0.2-0.1c-0.1-0.1-0.1-0.3-0.1-0.6v-6.8c0-0.3-0.2-0.4-0.4-0.4h-1.4c-0.2,0-0.4,0.1-0.4,0.4v0.5
		c-0.5-0.7-1.5-1.2-2.6-1.2c-2.2,0-4.3,1.8-4.3,5.3c0,2.6,1.3,4.9,4.1,4.9c1.1,0,2.4-0.7,2.9-1.4l0,0c0.1,0.7,0.6,1.2,1.6,1.2h1
		C222.9,92.8,223.1,92.7,223.1,92.4 M212.9,83.5c0-0.2-0.1-0.3-0.3-0.3H211c-0.3,0-0.5,0.1-0.6,0.5l-2.1,6.4l-2.2-6.5
		c-0.1-0.2-0.2-0.3-0.5-0.3h-1.9c-0.2,0-0.3,0.1-0.3,0.3c0,0.1,0,0.1,0,0.2l3.6,9.3l-0.4,0.9c-0.4,0.9-0.9,1.4-2.2,1.4
		c-0.2,0-0.4,0-0.7-0.1h-0.1c-0.2,0-0.3,0.1-0.4,0.4l-0.1,1c0,0.1,0,0.1,0,0.2c0,0.2,0.1,0.3,0.3,0.3c0.3,0.1,0.7,0.1,1.1,0.1
		c2.4,0,3.5-0.8,4.4-3.2l3.9-10.3C212.9,83.6,212.9,83.6,212.9,83.5 M200.6,88.1c0,1.6-0.6,3.2-2.4,3.2s-2.3-1.6-2.3-3.3
		c0-1.6,0.6-3.1,2.4-3.1C200.1,84.9,200.6,86.4,200.6,88.1 M203,88.1c0-2.9-1.5-5.1-4.8-5.1c-3.1,0-4.9,2.2-4.9,5.1
		c0,2.9,1.5,5.1,4.8,5.1C201.3,93.1,203,90.8,203,88.1 M189.6,83.4c0,1.6-1.1,2.5-2.7,2.5h-1.2v-4.8h1
		C188.4,81.1,189.6,81.7,189.6,83.4 M192.9,92.6c0-0.1,0-0.2-0.1-0.3l-3.3-5.1c1.6-0.7,2.6-2.1,2.6-4c0-1.1-0.3-2.1-1-2.8
		c-1.1-1.2-2.9-1.5-4.6-1.5h-3c-0.4,0-0.5,0.1-0.5,0.6v12.6c0,0.3,0.1,0.5,0.5,0.5h1.6c0.3,0,0.5-0.2,0.5-0.5v-4.6h1.5l2.9,4.7
		c0.2,0.3,0.4,0.4,0.8,0.4h1.8C192.8,92.8,192.9,92.7,192.9,92.6 M177.3,92.2L177.3,92.2l-0.2-1.1c0-0.2-0.1-0.2-0.3-0.2
		c-0.1,0-0.1,0-0.2,0c-0.4,0.1-0.8,0.2-1.3,0.2s-0.8-0.2-0.9-0.4c-0.2-0.3-0.3-0.8-0.3-1.4v-4.6h2.2c0.2,0,0.4-0.1,0.4-0.4v-0.9
		c0-0.3-0.1-0.3-0.4-0.3H174v-2.4c0-0.3-0.1-0.4-0.4-0.4h-0.1l-1.4,0.2c-0.3,0-0.5,0.1-0.5,0.5v2.2h-1c-0.2,0-0.4,0.2-0.4,0.4v0.8
		c0,0.4,0.1,0.5,0.4,0.5h0.9v4.5c0,1.5,0,2.3,0.6,3c0.5,0.6,1.4,0.8,2.4,0.8c0.8,0,1.6-0.2,2.2-0.5
		C177.2,92.5,177.3,92.4,177.3,92.2 M169.3,92.3v-5.9c0-2.2-0.9-3.6-3.2-3.6c-1.2,0-2.3,0.4-3.2,1.2v-0.5c0-0.3-0.2-0.4-0.5-0.4
		h-1.3c-0.4,0-0.5,0.2-0.5,0.5v8.6c0,0.3,0.2,0.5,0.5,0.5h1.5c0.3,0,0.5-0.2,0.5-0.5V86c0.6-0.5,1.6-1,2.4-1c1.2,0,1.5,0.8,1.5,1.9
		v5.4c0,0.3,0.1,0.5,0.5,0.5h1.4C169.2,92.8,169.3,92.6,169.3,92.3 M158.6,92.3v-8.6c0-0.4-0.2-0.5-0.5-0.5h-1.4
		c-0.3,0-0.5,0.1-0.5,0.5v8.6c0,0.4,0.2,0.5,0.5,0.5h1.4C158.5,92.8,158.6,92.7,158.6,92.3 M158.7,80.7c0-0.8-0.7-1.3-1.3-1.3
		c-0.7,0-1.4,0.5-1.4,1.3c0,0.8,0.7,1.2,1.4,1.2C158.1,81.9,158.7,81.5,158.7,80.7 M152.2,88.1c0,1.6-0.6,3.2-2.4,3.2
		c-1.8,0-2.3-1.6-2.3-3.3c0-1.6,0.6-3.1,2.4-3.1S152.2,86.4,152.2,88.1 M154.6,88.1c0-2.9-1.5-5.1-4.8-5.1c-3.1,0-4.9,2.2-4.9,5.1
		c0,2.9,1.5,5.1,4.8,5.1C153,93.1,154.6,90.8,154.6,88.1 M143.3,88.3v-8.7c0-0.3-0.2-0.5-0.5-0.5h-4.3c-0.3,0-0.4,0.1-0.4,0.4v0.9
		c0,0.2,0.1,0.4,0.4,0.4h2.3v7.9c0,0.9-0.1,1.5-0.4,1.9c-0.3,0.4-0.8,0.5-1.3,0.5c-0.3,0-0.7-0.1-1.1-0.1c-0.1,0-0.1,0-0.1,0
		c-0.2,0-0.3,0.1-0.3,0.3l-0.2,1.1c0,0.1,0,0.1,0,0.2c0,0.2,0.1,0.3,0.3,0.3c0.4,0.1,1.1,0.1,1.4,0.1c1.3,0,2.3-0.3,2.9-0.8
		C143,91.4,143.3,90,143.3,88.3"/>
	
		<linearGradient id="SVGID_1_" gradientUnits="userSpaceOnUse" x1="120.2537" y1="-392.4679" x2="74.6419" y2="-418.8019" gradientTransform="matrix(1 0 0 -1 0 -335.0858)">
		<stop  offset="0.1827" style="stop-color:#AF1B81"/>
		<stop  offset="0.9275" style="stop-color:#5A293F"/>
	</linearGradient>
	<path class="st4" d="M114.1,85.4c1-0.6,2-1.3,2.9-2c4.5-4.1,6.4-10.5,6.3-16.6c0-0.3,0-0.6-0.1-0.9c-0.3-2.7-1.1-5.3-2.5-7.7
		c-0.7-1.3-1.6-2.5-2.6-3.6c-0.3-0.3-0.7-0.7-1-1c-5.6-5.2-12.3-7.4-20.4-3.9c-7.5,3.3-15.1,6.8-22.6,10.1c-3.6,1.6-6.8,3.6-9.7,6.1
		l25.7,17.3C96.4,88.4,106.8,89.5,114.1,85.4z"/>
	
		<linearGradient id="SVGID_00000139271445234471130530000006152811981494354336_" gradientUnits="userSpaceOnUse" x1="35.2637" y1="-454.7782" x2="19.3041" y2="-420.5526" gradientTransform="matrix(1 0 0 -1 0 -335.0858)">
		<stop  offset="0" style="stop-color:#DFA5CB"/>
		<stop  offset="0.4551" style="stop-color:#DFA5CB"/>
		<stop  offset="1" style="stop-color:#A4568B"/>
	</linearGradient>
	<path style="fill:url(#SVGID_00000139271445234471130530000006152811981494354336_);" d="M0.4,107.4c0,1.1,0,2.2,0.2,3.3
		c1.2,5.6,5,9.7,10.4,12.3c0.3,0.1,0.5,0.2,0.8,0.3c2.5,0.9,5.4,1.4,8.3,1.3c1.6,0,3.1-0.2,4.6-0.6c0.5-0.1,1-0.2,1.5-0.4
		c7.7-2.5,13.5-7.1,14.9-15.6c1.3-7.8,2.3-15.7,3.6-23.6c0.6-3.7,0.6-7.3,0-10.9l-29.8,14C6.7,90.7,0.7,99.4,0.4,107.4z"/>
	
		<linearGradient id="SVGID_00000120532299422700019520000004024657474979574459_" gradientUnits="userSpaceOnUse" x1="13.2478" y1="-362.2024" x2="53.1128" y2="-362.2024" gradientTransform="matrix(1 0 0 -1 0 -335.0858)">
		<stop  offset="0" style="stop-color:#C760A7"/>
		<stop  offset="0.4551" style="stop-color:#C760A7"/>
		<stop  offset="1" style="stop-color:#6F2E5B"/>
	</linearGradient>
	<path style="fill:url(#SVGID_00000120532299422700019520000004024657474979574459_);" d="M19.6,7.4c-1.5,1.5-3.6,4.1-4.9,7.7
		c-0.1,0.2-0.3,0.7-0.5,1.4C12.1,24.1,13.1,31,19.8,36c6.2,4.6,12.7,8.9,19,13.4c3,2.2,6.2,3.8,9.7,4.9L52.7,23
		c1.9-8.4-2.5-17.3-9.4-21c-1-0.5-2-1-3.1-1.3C31.9-1.8,24.4,3.3,23.4,4c-1.3,0.9-2.3,1.8-3.1,2.7C20,6.9,19.8,7.2,19.6,7.4z"/>
</g>
</svg>
