<svg xmlns="http://www.w3.org/2000/svg" viewBox="0 0 595.1 138.9">
  <path d="M149.5 18.9c0-4.5 0-5.3-.1-6.2-.1-1-.3-1.4-1.2-1.6-.2-.1-.7-.1-1-.1-.1 0-.2-.1-.2-.2 0-.2.1-.2.5-.2 1.3 0 3.1.1 3.2.1.3 0 2.5-.1 3.4-.1 1.8 0 3.7.2 5.2 1.3.7.5 2 1.9 2 3.9 0 2.1-.9 4.2-3.5 6.6 2.3 3 4.3 5.5 6 7.3 1.5 1.6 2.8 1.9 3.5 2.1.5.102.9.102 1.1.102.1 0 .3.1.3.2 0 .2-.2.2-.7.2h-2c-1.6 0-2.3-.1-3.1-.5-1.2-.7-2.2-2.1-3.9-4.2-1.2-1.6-2.5-3.5-3.1-4.2-.1-.1-.2-.2-.4-.2L152 23c-.1 0-.2.1-.2.2v.7c0 2.7 0 5 .1 6.2.1.8.3 1.5 1.1 1.6.4.1 1 .1 1.3.1.2 0 .2.1.2.2 0 .2-.1.2-.5.2-1.6 0-3.4-.1-3.5-.1 0 0-1.8.1-2.7.1-.3 0-.5-.1-.5-.2s.1-.2.2-.2c.3 0 .6-.1.9-.1.6-.1.7-.7.8-1.6.1-1.2.1-3.5.1-6.2v-5h.2zm2.3 2.4c0 .1.1.3.2.3.4.3 1.8.5 3 .5.7 0 1.5-.1 2.1-.5 1-.7 1.7-2.2 1.7-4.4 0-3.6-1.9-5.7-4.9-5.7-.9 0-1.6.102-1.9.2-.1.1-.2.2-.2.3v9.3zm30.6-11.1c6.4 0 11.2 4.1 11.2 10.7 0 6.4-4.5 11.7-11.4 11.7-7.8 0-11.1-6.1-11.1-11.2 0-4.7 3.4-11.2 11.3-11.2m.6 21.3c2.6 0 7.9-1.5 7.9-9.8 0-6.9-4.2-10.6-8.7-10.6-4.8 0-8.4 3.1-8.4 9.4 0 6.7 4 11 9.2 11m23.3-6.7c0-1.5-.3-2.2-.7-3-.2-.5-4-6.8-5-8.2-.7-1.1-1.4-1.8-1.9-2.1-.4-.3-1-.5-1.2-.5-.1 0-.3-.1-.3-.2s.1-.2.4-.2c.5 0 2.7.1 2.8.1.2 0 1.3-.1 2.4-.1.3 0 .4.1.4.2s-.2.1-.4.3c-.2.1-.4.3-.4.5 0 .3.1.7.4 1.1.5.8 4.7 8.2 5.3 9 .5-1.2 4.2-7.5 4.7-8.4.4-.6.5-1.1.5-1.5 0-.398-.1-.698-.5-.8-.3-.1-.4-.1-.4-.3 0-.1.2-.2.5-.2.7 0 1.7.102 1.9.102.2 0 2.2-.1 2.8-.1.2 0 .4.1.4.2s-.1.2-.4.2c-.3 0-.9.1-1.3.398-.6.3-.9.7-1.5 1.5-.9 1.1-4.9 7.9-5.5 9.1-.4 1-.4 1.9-.4 2.9v2.5c0 .5 0 1.7.1 2.9.1.8.3 1.5 1.2 1.6.4.1 1 .1 1.3.1.2 0 .2.1.2.2s-.1.2-.5.2c-1.6 0-3.4-.1-3.5-.1-.1 0-1.9.1-2.8.1-.3 0-.5-.1-.5-.2s.1-.2.2-.2c.3 0 .6-.1.9-.1.6-.1.8-.7.9-1.6.1-1.2.1-2.4.1-2.9v-2.5h-.2zm21.2-13.5c.3-.9.5-1.1.6-1.1.2 0 .3.1.6 1 .4 1.1 4.9 12.9 6.7 17.2 1 2.5 1.9 3 2.5 3.2.4.1.9.2 1.1.2s.3 0 .3.2-.3.2-.6.2c-.4 0-2.5 0-4.5-.1-.5 0-.9 0-.9-.2 0-.102.1-.2.2-.2.2-.1.3-.3.2-.8l-2.7-7c-.1-.102-.1-.2-.3-.2h-6.2c-.1 0-.2.1-.3.2l-1.7 5.1c-.3.7-.4 1.4-.4 1.9 0 .6.6.8 1.1.8h.3c.2 0 .3.1.3.2 0 .2-.2.2-.4.2-.7 0-1.9-.102-2.2-.102-.3 0-1.9.1-3.2.1-.4 0-.5-.1-.5-.2s.1-.2.3-.2c.2 0 .6 0 .8-.1 1.3-.2 1.9-1.3 2.4-2.7l6.5-17.598zm3 11.4c.1 0 .1-.1.1-.2l-2.7-7.7c-.1-.4-.3-.4-.4 0l-2.5 7.7c-.1.1 0 .2.1.2h5.4zm18.2 1.2c0 4.2.1 6 .6 6.6.5.5 1.2.7 3.4.7 1.5 0 2.8 0 3.5-.9.4-.5.7-1.2.7-1.7 0-.2.1-.4.3-.4.1 0 .2.1.2.4 0 .3-.2 2-.4 2.9-.2.7-.3.8-1.8.8-4.1 0-6-.2-7.7-.2-.3 0-1.9.1-2.8.1-.3 0-.5-.1-.5-.2s.1-.2.2-.2c.3 0 .6-.1.9-.1.6-.1.7-.7.8-1.6.1-1.2.1-3.5.1-6.2v-5c0-4.5 0-5.3-.1-6.2-.1-1-.3-1.4-1.2-1.6-.2-.1-.7-.1-1-.1-.1 0-.2-.1-.2-.2 0-.2.1-.2.5-.2 1.3 0 3.1.1 3.2.1s2.2-.1 3.1-.1c.3 0 .5.1.5.2s-.1.2-.2.2c-.2 0-.6 0-.9.1-.8.1-1.1.6-1.1 1.6-.1.9-.1 1.7-.1 6.2v5zm29.7 5.6c-2.8-2.5-3.5-5.8-3.5-8.5 0-1.9.7-5.3 3.2-7.8 1.7-1.7 4.3-3.1 8.7-3.1 1.1 0 2.7.1 4.1.3 1.1.2 2 .4 2.9.4.3 0 .4.1.4.3 0 .2-.1.6-.1 1.6-.1.9-.1 2.5-.1 2.9 0 .4-.1.6-.3.6-.2 0-.2-.2-.2-.6 0-1.1-.5-2.3-1.2-2.9-1-.9-3.2-1.6-5.7-1.6-3.8 0-5.6 1.1-6.6 2.1-2.1 2-2.6 4.5-2.6 7.5 0 5.5 4.2 10.5 10.3 10.5 2.1 0 3.8-.3 5-1.4.6-.6 1-1.9 1.1-2.4.1-.3.1-.4.3-.4.1 0 .2.2.2.4s-.3 2.7-.6 3.7c-.2.5-.2.6-.7.8-1.1.5-3.3.7-5.1.7-4.3 0-7.2-1.1-9.5-3.1m33.5-19.3c6.4 0 11.2 4.1 11.2 10.7 0 6.4-4.5 11.7-11.4 11.7-7.8 0-11.1-6.1-11.1-11.2 0-4.7 3.4-11.2 11.3-11.2m.6 21.3c2.6 0 7.9-1.5 7.9-9.8 0-6.9-4.2-10.6-8.7-10.6-4.8 0-8.4 3.1-8.4 9.4 0 6.7 4 11 9.2 11m21.9-7.6c0 4.2.1 6 .6 6.6.5.5 1.2.7 3.4.7 1.5 0 2.8 0 3.5-.9.4-.5.7-1.2.7-1.7 0-.2.1-.4.3-.4.1 0 .2.1.2.4 0 .3-.2 2-.4 2.9-.2.7-.3.8-1.8.8-4.1 0-6-.2-7.7-.2-.3 0-1.9.1-2.8.1-.3 0-.5-.1-.5-.2s.1-.2.2-.2c.3 0 .6-.1.9-.1.6-.1.7-.7.8-1.6.1-1.2.1-3.5.1-6.2v-5c0-4.5 0-5.3-.1-6.2-.1-1-.3-1.4-1.2-1.6-.2-.1-.7-.1-1-.1-.1 0-.2-.1-.2-.2 0-.2.1-.2.5-.2 1.3 0 3.1.1 3.2.1.1 0 2.2-.1 3.1-.1.3 0 .5.1.5.2s-.1.2-.2.2c-.2 0-.6 0-.9.1-.8.1-1.1.6-1.1 1.6-.1.9-.1 1.7-.1 6.2v5zm19.8 0c0 4.2.1 6 .6 6.6.5.5 1.2.7 3.4.7 1.5 0 2.8 0 3.5-.9.4-.5.7-1.2.8-1.7 0-.2.1-.4.3-.4.1 0 .2.1.2.4 0 .3-.2 2-.4 2.9-.2.7-.3.8-1.8.8-4.1 0-6-.2-7.7-.2-.3 0-1.9.1-2.8.1-.3 0-.5-.1-.5-.2s.1-.2.2-.2c.3 0 .6-.1.9-.1.6-.1.7-.7.8-1.6.1-1.2.1-3.5.1-6.2v-5c0-4.5 0-5.3-.1-6.2-.1-1-.3-1.4-1.2-1.6-.2-.1-.7-.1-1-.1-.1 0-.2-.1-.2-.2 0-.2.1-.2.5-.2 1.3 0 3.1.1 3.2.1s2.2-.1 3.1-.1c.3 0 .5.1.5.2s-.1.2-.2.2c-.2 0-.6 0-.9.1-.8.1-1.1.6-1.1 1.6-.1.9-.1 1.7-.1 6.2l-.1 5zm17.4-5c0-4.5 0-5.3-.1-6.2-.1-1-.3-1.4-1.2-1.6-.2-.1-.7-.1-1-.1-.1 0-.2-.1-.2-.2 0-.2.1-.2.5-.2 1.3 0 3.1.1 3.2.1h6.6c.5 0 1-.1 1.2-.1.1 0 .3-.1.4-.1s.1.1.1.3c0 .2-.2.5-.2 1.3 0 .3-.1 1.5-.1 1.9 0 .1-.1.3-.2.3-.2 0-.2-.1-.2-.4 0-.2 0-.7-.2-1-.2-.5-.5-.8-2-1-.5-.1-3.6-.1-3.9-.1-.1 0-.2.1-.2.3V20c0 .2 0 .3.2.3.4 0 3.9 0 4.5-.1.7-.1 1.102-.1 1.3-.4.2-.2.302-.4.4-.4s.1.1.1.2c0 .2-.1.7-.198 1.6-.1.6-.1 1.6-.1 1.8s0 .5-.2.5c-.1 0-.2-.1-.2-.3 0-.3 0-.6-.1-1s-.4-.9-1.5-1c-.8-.1-3.6-.1-4.1-.1-.102 0-.2.1-.2.2v7.4c.1 2 .5 2.3 3.3 2.3.7 0 2 0 2.7-.3s1.1-.9 1.3-2.1c.1-.3.1-.4.3-.4.2 0 .2.2.2.4s-.2 2.2-.4 2.8c-.2.7-.4.7-1.5.7-4.3 0-6.2-.2-7.1-.2-.1 0-1.9.1-2.8.1-.3 0-.5-.1-.5-.2s.1-.2.2-.2c.3 0 .6-.1.898-.1.6-.1.7-.7.8-1.6.1-1.2.1-3.5.1-6.2l.1-4.8zm33.9 6c0-2.3-.1-2.6-1.3-2.9-.2-.1-.7-.1-1-.1-.1 0-.2-.1-.2-.2 0-.2.1-.2.5-.2 1.3 0 3.1.1 3.2.1.1 0 1.9-.1 2.8-.1.3 0 .5.1.5.2s-.1.2-.2.2c-.2 0-.4 0-.7.1-.8.1-1 .6-1.1 1.6-.1.9-.1 1.8-.1 3v3.2c0 1.3 0 1.3-.4 1.5-1.8 1-4.4 1.3-6.1 1.3-2.2 0-6.2-.3-9.4-3.1-1.7-1.5-3.4-4.6-3.4-8.1 0-4.6 2.2-7.8 4.8-9.4 2.6-1.6 5.4-1.8 7.6-1.8 1.8 0 3.8.4 4.4.5.6.1 1.6.3 2.3.3.3 0 .3.1.3.3 0 .4-.2 1.2-.2 4.1 0 .5-.1.6-.3.6-.1 0-.2-.2-.2-.398 0-.4-.2-1.2-.6-1.9-.7-1.1-3-2.3-6.7-2.3-1.8 0-3.9.2-6.1 1.9-1.7 1.3-2.8 3.9-2.8 7.3 0 4 2 6.9 3 7.9 2.3 2.2 4.9 3.1 7.5 3.1 1 0 2.5-.2 3.3-.6.4-.2.6-.5.6-1V24.9zm14-6c0-4.5 0-5.3-.1-6.2-.1-1-.3-1.4-1.2-1.6-.2-.1-.7-.1-1-.1-.1 0-.2-.1-.2-.2 0-.2.1-.2.5-.2 1.3 0 3.1.1 3.2.1h6.6c.5 0 1-.1 1.2-.1.1 0 .3-.1.4-.1.1 0 .1.1.1.3 0 .2-.1.5-.2 1.3 0 .3-.1 1.5-.1 1.9 0 .1-.1.3-.2.3-.2 0-.2-.1-.2-.4 0-.2 0-.7-.2-1-.2-.5-.5-.8-2-1-.5-.1-3.6-.1-3.9-.1-.1 0-.2.1-.2.3V20c0 .2 0 .3.2.3.4 0 3.9 0 4.5-.1.7-.1 1.1-.1 1.3-.4.2-.2.3-.4.4-.4.1 0 .1.1.1.2 0 .2-.1.7-.2 1.6-.1.6-.1 1.6-.1 1.8s0 .5-.2.5c-.1 0-.2-.1-.2-.3 0-.3 0-.6-.1-1s-.4-.9-1.5-1c-.8-.1-3.6-.1-4.1-.1-.1 0-.2.1-.2.2v7.4c.1 2 .5 2.3 3.3 2.3.7 0 2 0 2.7-.3.7-.3 1.1-.9 1.3-2.1.1-.3.1-.4.3-.4s.2.2.2.4-.2 2.2-.4 2.8c-.2.7-.398.7-1.5.7-4.3 0-6.2-.2-7.1-.2-.1 0-1.9.1-2.8.1-.3 0-.5-.1-.5-.2s.1-.2.2-.2c.3 0 .6-.1.9-.1.6-.1.7-.7.8-1.6.1-1.2.1-3.5.1-6.2l.1-4.8zm40.4-8.7c6.4 0 11.2 4.1 11.2 10.7 0 6.4-4.5 11.7-11.4 11.7-7.8 0-11.1-6.1-11.1-11.2.1-4.7 3.4-11.2 11.3-11.2m.6 21.3c2.6 0 7.9-1.5 7.9-9.8 0-6.9-4.2-10.6-8.7-10.6-4.8 0-8.4 3.1-8.4 9.4.1 6.7 4.1 11 9.2 11m19.6-12.6c0-4.5 0-5.3-.1-6.2-.1-1-.3-1.4-1.2-1.6-.2-.1-.7-.1-1-.1-.1 0-.2-.1-.2-.2 0-.2.1-.2.5-.2 1.3 0 3.1.1 3.2.1h7c.5 0 1 0 1.3-.1.2-.1.3-.2.4-.2s.2.1.2.3-.1.5-.2 1.3c0 .3-.1 1.5-.1 1.9 0 .1-.1.3-.2.3s-.2-.1-.2-.3-.1-.7-.3-1.1c-.2-.4-.8-.9-1.9-.9l-4.4-.1c-.2 0-.3.1-.3.3V20c0 .2 0 .3.2.3h5c.7-.1 1.1-.1 1.3-.5.1-.2.2-.3.3-.3.1 0 .1.1.1.2 0 .2-.1.7-.2 1.6-.1.6-.1 1.7-.1 1.9 0 .3 0 .5-.2.5-.1 0-.2-.1-.2-.3 0-.3-.1-.7-.2-1-.1-.4-.6-.9-1.5-1-.7-.1-3.8-.1-4.3-.1-.2 0-.2.1-.2.3V24c0 2.7 0 5 .1 6.2.1.8.3 1.5 1.1 1.6.4.1 1 .1 1.3.1.2 0 .2.1.2.2s-.1.2-.5.2c-1.6 0-3.398-.1-3.5-.1-.1 0-1.898.1-2.8.1-.3 0-.5-.1-.5-.2s.1-.2.2-.2c.3 0 .6-.1.9-.1.6-.1.7-.7.8-1.6.1-1.2.1-3.5.1-6.2l.1-5.1zm-330 35.9c0-4.5 0-5.3-.1-6.2-.1-1-.3-1.4-1.2-1.6-.2-.1-.7-.1-1-.1-.1 0-.2-.1-.2-.2 0-.2.1-.2.5-.2 1.3 0 3 .1 3.2.1.6 0 2.3-.1 3.6-.1 3.6 0 4.9 1.2 5.3 1.6.6.6 1.4 1.9 1.4 3.4 0 4.1-3 6.8-7 6.8h-.6s-.3-.1-.3-.2c0-.2.2-.3.8-.3 2.8 0 4.9-2 4.9-4.7 0-.9-.1-2.9-1.6-4.4s-3.3-1.4-3.9-1.4c-.5 0-1 .102-1.2.2-.2.102-.2.3-.2.5v11.8c0 2.7 0 5 .1 6.2.1.8.3 1.5 1.1 1.602.4.1 1 .1 1.3.1.2 0 .2.1.2.2s-.1.2-.5.2c-1.6 0-3.4-.1-3.5-.1-.1 0-1.9.1-2.7.1-.3 0-.5-.1-.5-.2s.1-.2.2-.2c.3 0 .6-.1.9-.1.6-.1.7-.7.8-1.6.1-1.2.1-3.5.1-6.2l.1-5.002zm38.1 5c0 2.7 0 5 .1 6.2.1.8.3 1.5 1.1 1.6.4.1 1 .1 1.3.1.2 0 .2.1.2.2s-.1.2-.5.2c-1.6 0-3.4-.1-3.5-.1s-1.9.1-2.8.1c-.3 0-.5-.1-.5-.2s.1-.2.2-.2c.3 0 .6-.1.9-.1.6-.1.7-.7.8-1.6.1-1.2.1-3.5.1-6.2v-3c0-.1-.1-.2-.2-.2h-12.1c-.1 0-.2 0-.2.2v3c0 2.7 0 5 .1 6.2.1.8.3 1.5 1.1 1.6.4.1 1 .1 1.3.1.2 0 .2.1.2.2s-.1.2-.5.2c-1.6 0-3.4-.1-3.5-.1-.1 0-1.9.1-2.8.1-.3 0-.5-.1-.5-.2s.1-.2.2-.2c.3 0 .6-.1.9-.1.6-.1.7-.7.8-1.6.1-1.2.1-3.5.1-6.2v-5c0-4.5 0-5.3-.1-6.2-.1-1-.3-1.4-1.2-1.6-.2-.1-.7-.1-1-.1-.1 0-.2-.102-.2-.2 0-.2.1-.2.5-.2 1.3 0 3.1.1 3.2.1.1 0 1.9-.1 2.8-.1.3 0 .5.1.5.2s-.1.2-.2.2c-.2 0-.4 0-.7.1-.8.1-1 .6-1.1 1.6-.1.9-.1 1.7-.1 6.2v.6c0 .1.1.2.2.2h12.1c.1 0 .2 0 .2-.2v-.6c0-4.5 0-5.3-.1-6.2-.1-1-.3-1.4-1.2-1.6-.2-.1-.7-.1-1-.1-.1 0-.2-.1-.2-.2 0-.2.1-.2.5-.2 1.3 0 3.1.1 3.2.1s1.9-.1 2.8-.1c.3 0 .5.1.5.2s-.1.2-.2.2c-.2 0-.4 0-.7.1-.8.1-1 .6-1.1 1.6-.1.9-.1 1.7-.1 6.2l.4 5zm16.2.9c0-1.5-.3-2.2-.7-3-.2-.5-4-6.7-5-8.2-.7-1.1-1.4-1.8-1.9-2.1-.4-.3-1-.5-1.2-.5-.1 0-.3-.1-.3-.2s.1-.2.4-.2c.5 0 2.7.1 2.8.1.2 0 1.3-.1 2.4-.1.3 0 .4.1.4.2s-.2.1-.4.3c-.2.1-.4.3-.4.5 0 .3.1.7.4 1.1.5.8 4.7 8.2 5.3 9 .5-1.2 4.2-7.5 4.7-8.4.4-.6.5-1.1.5-1.5s-.1-.7-.5-.8c-.3-.1-.4-.1-.4-.3 0-.1.2-.2.5-.2.7 0 1.7.1 1.9.1.2 0 2.2-.1 2.8-.1.2 0 .4.1.4.2s-.1.2-.4.2c-.3 0-.9.1-1.3.4-.6.3-.9.7-1.5 1.5-.9 1.1-5 7.9-5.5 9.1-.4 1-.4 1.9-.4 2.9v2.5c0 .5 0 1.7.1 2.9.1.8.3 1.5 1.2 1.6.4.1 1 .1 1.3.1.2 0 .2.1.2.2s-.1.2-.5.2c-1.6 0-3.4-.1-3.5-.1-.1 0-1.9.1-2.8.1-.3 0-.5-.1-.5-.2s.1-.2.2-.2c.3 0 .6-.1.9-.1.6-.1.8-.7.9-1.6.1-1.2.1-2.4.1-2.9l-.2-2.5zm16.5 7c-.4-.2-.4-.3-.4-1.1 0-1.4.1-2.6.1-3 0-.3.1-.5.2-.5.2 0 .2.1.2.3 0 .3 0 .7.1 1.1.4 2.1 2.3 2.9 4.2 2.9 2.7 0 4.1-2 4.1-3.8 0-2-.8-3.1-3.3-5.2l-1.3-1.1c-3-2.5-3.7-4.3-3.7-6.2 0-3.1 2.3-5.2 5.9-5.2 1.1 0 1.9.1 2.7.3.5.1.8.1 1 .1.2 0 .3.1.3.2s-.1 1.1-.1 3c0 .5-.1.7-.2.7-.2 0-.2-.1-.2-.4 0-.3-.2-1.1-.4-1.4-.2-.3-.9-1.5-3.6-1.5-2 0-3.5 1.2-3.5 3.3 0 1.6.8 2.6 3.5 4.8l.8.602c3.4 2.7 4.2 4.4 4.2 6.7 0 1.2-.5 3.3-2.4 4.7-1.2.9-2.8 1.2-4.3 1.2-1.4.298-2.7.098-3.9-.502m23.4-7.9c0 2.7 0 5 .1 6.2.1.8.3 1.5 1.1 1.6.4.1 1 .1 1.3.1.2 0 .2.1.2.2s-.1.2-.5.2c-1.6 0-3.4-.1-3.5-.1s-1.9.1-2.8.1c-.3 0-.5-.1-.5-.2s.1-.2.2-.2c.3 0 .6-.1.9-.1.6-.1.7-.7.8-1.6.1-1.2.1-3.5.1-6.2v-5c0-4.5 0-5.3-.1-6.2-.1-1-.3-1.5-1-1.6-.3-.1-.7-.1-.9-.1-.1 0-.2-.1-.2-.2 0-.2.1-.2.5-.2.9 0 2.7.1 2.9.1.2 0 1.9-.1 2.8-.1.3 0 .5.1.5.2s-.1.2-.2.2c-.2 0-.4 0-.7.1-.8.1-1 .6-1.1 1.6-.1.9-.1 1.7-.1 6.2l.2 5zm12.9 5.6c-2.8-2.5-3.5-5.8-3.5-8.5 0-1.9.7-5.3 3.2-7.8 1.7-1.7 4.3-3.1 8.7-3.1 1.1 0 2.7.1 4.1.3 1.1.2 2 .4 2.9.4.3 0 .4.1.4.3s-.1.6-.1 1.6c-.1.9-.1 2.5-.1 2.9 0 .4-.1.6-.3.6s-.2-.2-.2-.6c0-1.1-.5-2.3-1.2-2.9-1-.9-3.2-1.6-5.7-1.6-3.8 0-5.6 1.1-6.6 2.1-2.1 2-2.6 4.5-2.6 7.5 0 5.5 4.2 10.5 10.3 10.5 2.1 0 3.8-.3 5-1.4.6-.6 1-1.9 1.1-2.4.1-.3.1-.4.3-.4.1 0 .2.2.2.4s-.3 2.7-.6 3.7c-.2.5-.2.6-.7.8-1.1.5-3.3.7-5.1.7-4.4 0-7.3-1.1-9.5-3.1m28.1-5.6c0 2.7 0 5 .1 6.2.1.8.3 1.5 1.1 1.6.4.1 1 .1 1.3.1.2 0 .2.1.2.2s-.1.2-.5.2c-1.6 0-3.4-.1-3.5-.1s-1.9.1-2.8.1c-.3 0-.5-.1-.5-.2s.1-.2.2-.2c.3 0 .6-.1.9-.1.6-.1.7-.7.8-1.6.1-1.2.1-3.5.1-6.2v-5c0-4.5 0-5.3-.1-6.2-.1-1-.3-1.5-1-1.6-.3-.1-.7-.1-.9-.1-.1 0-.2-.1-.2-.2 0-.2.1-.2.5-.2.9 0 2.7.1 2.9.1.1 0 1.9-.1 2.8-.1.3 0 .5.1.5.2s-.1.2-.2.2c-.2 0-.4 0-.7.1-.8.1-1 .6-1.1 1.6-.1.9-.1 1.7-.1 6.2l.2 5zm17.1-12.6c.3-.9.5-1.1.6-1.1s.3.1.6 1c.4 1.1 4.9 12.9 6.7 17.2 1 2.5 1.9 3 2.5 3.2.4.1.9.2 1.1.2.2 0 .3 0 .3.2s-.3.2-.6.2c-.4 0-2.5 0-4.5-.1-.5 0-.9 0-.9-.2 0-.1.1-.2.2-.2.2-.1.3-.3.2-.8l-2.7-7c-.1-.1-.1-.2-.3-.2h-6.1c-.1 0-.2.1-.3.2l-1.7 5.1c-.3.7-.4 1.4-.4 1.9 0 .6.6.8 1.1.8h.3c.2 0 .3.1.3.2 0 .2-.2.2-.4.2-.7 0-1.9-.1-2.2-.1-.3 0-1.9.1-3.2.1-.4 0-.5-.1-.5-.2s.1-.2.3-.2c.2 0 .6 0 .8-.1 1.3-.2 1.9-1.3 2.4-2.7l6.4-17.6zm3 11.4c.1 0 .1-.1.1-.2l-2.7-7.7c-.1-.4-.3-.4-.4 0l-2.5 7.7c-.1.1 0 .2.1.2h5.4zm16.6 5.6c.1 2.3.3 3.1 1.1 3.3.5.1 1.2.2 1.4.2.1 0 .2.1.2.2 0 .2-.2.2-.5.2-1.6 0-2.8-.1-3-.1-.3 0-1.5.1-2.7.1-.3 0-.5 0-.5-.2 0-.1.1-.2.2-.2.2 0 .7 0 1.2-.2.7-.2.9-1 .9-3.6V47.5c0-1.1.1-1.4.3-1.4.2 0 .7.6 1 .9.4.5 4.7 5.1 9.1 9.8 2.8 3 5.9 6.5 6.9 7.5l-.3-14.5c0-1.9-.2-2.5-1.1-2.7-.5-.1-1.2-.1-1.4-.1s-.2-.1-.2-.2c0-.2.2-.2.6-.2 1.3 0 2.7.1 3 .1s1.3-.1 2.4-.1c.3 0 .5 0 .5.2 0 .1-.1.2-.3.2-.1 0-.3 0-.7.1-.9.2-1.1.8-1.1 2.5l-.1 16.8c0 1.9-.1 2-.3 2-.2 0-.6-.3-2.1-1.8-.3-.3-4.4-4.5-7.5-7.8-3.3-3.6-6.5-7.2-7.5-8.2l.5 13.6zm27.3 3.5c-.4-.2-.4-.3-.4-1.1 0-1.4.1-2.6.1-3 0-.3.1-.5.2-.5.2 0 .2.1.2.3 0 .3 0 .7.1 1.1.4 2.1 2.3 2.9 4.2 2.9 2.7 0 4.1-2 4.1-3.8 0-2-.8-3.1-3.3-5.2l-1.3-1.1c-3-2.5-3.7-4.3-3.7-6.2 0-3.1 2.3-5.2 5.9-5.2 1.1 0 1.9.1 2.7.3.5.1.8.1 1 .1.2 0 .3.1.3.2s-.1 1.1-.1 3c0 .5-.1.7-.2.7-.2 0-.2-.1-.2-.4 0-.3-.2-1.1-.4-1.4s-.9-1.5-3.6-1.5c-2 0-3.5 1.2-3.5 3.3 0 1.6.8 2.6 3.5 4.8l.8.602c3.4 2.698 4.2 4.398 4.2 6.698 0 1.2-.5 3.3-2.4 4.7-1.2.9-2.8 1.2-4.3 1.2-1.4.3-2.7.1-3.9-.5m37.3-20.5c.3-.9.5-1.1.6-1.1.2 0 .3.1.6 1 .4 1.1 4.9 12.9 6.7 17.2 1 2.5 1.9 3 2.5 3.2.4.1.9.2 1.1.2.2 0 .302 0 .302.2s-.3.2-.6.2c-.4 0-2.5 0-4.5-.102-.5 0-.9 0-.9-.2 0-.1.1-.2.2-.2.2-.1.3-.3.2-.8l-2.7-7c-.1-.1-.1-.2-.3-.2h-6.2c-.1 0-.2.1-.3.2l-1.7 5.1c-.3.7-.4 1.4-.4 1.9 0 .6.6.8 1.1.8h.3c.2 0 .3.1.3.2 0 .2-.2.2-.4.2-.7 0-1.9-.1-2.2-.1S378.4 68 377.1 68c-.4 0-.5-.1-.5-.2s.1-.2.3-.2c.2 0 .6 0 .8-.1 1.3-.2 1.9-1.3 2.4-2.7l6.5-17.6zm2.9 11.4c.1 0 .1-.1.1-.2l-2.7-7.7c-.1-.4-.3-.4-.4 0l-2.5 7.7c-.1.1 0 .2.1.2h5.4zm16.6 5.6c.1 2.3.3 3.1 1.1 3.3.5.1 1.2.2 1.4.2.1 0 .2.1.2.2 0 .2-.2.2-.5.2-1.6 0-2.8-.1-3-.1-.3 0-1.5.1-2.7.1-.3 0-.5 0-.5-.2 0-.1.1-.2.2-.2.2 0 .7 0 1.2-.2.7-.2.9-1 .9-3.6V47.5c0-1.1.1-1.4.3-1.4s.7.6 1 .9c.4.5 4.7 5.1 9.1 9.8 2.8 3 6 6.5 6.9 7.5l-.3-14.5c0-1.9-.2-2.5-1.1-2.7-.5-.1-1.2-.1-1.4-.1-.2 0-.2-.1-.2-.2 0-.2.2-.2.6-.2 1.3 0 2.7.1 3 .1s1.3-.1 2.4-.1c.3 0 .5 0 .5.2 0 .1-.1.2-.3.2-.1 0-.3 0-.7.1-.9.2-1.1.8-1.1 2.5l-.1 16.6c0 1.9-.1 2-.3 2s-.6-.3-2.1-1.8c-.3-.3-4.4-4.5-7.5-7.8-3.3-3.6-6.6-7.2-7.5-8.2l.5 13.8zm29.2-9.4c0-4.5 0-5.3-.1-6.2-.1-1-.3-1.4-1.2-1.6-.2-.1-.7-.1-1-.1-.1 0-.2-.1-.2-.2 0-.2.1-.2.5-.2 1.3 0 3.1.1 3.2.1.3 0 2.1-.1 3.9-.1 2.8 0 8.1-.3 11.5 3.3 1.4 1.5 2.8 3.9 2.8 7.3 0 3.6-1.5 6.4-3.1 8.1-1.2 1.3-3.8 3.3-8.7 3.3-2.5 0-6.1-.3-6.4-.3-.1 0-1.9.1-2.8.1-.3 0-.5-.1-.5-.198 0-.1.1-.2.2-.2.3 0 .6-.1.9-.1.6-.1.7-.7.8-1.6.1-1.202.1-3.502.1-6.202l.1-5.2zm2.4 3c0 3 0 5.7.1 6.2 0 .7.1 1.9.3 2.2.4.5 1.5 1.1 4.9 1.1 2.7 0 5.1-1 6.8-2.7 1.5-1.5 2.3-4.2 2.3-6.8 0-3.6-1.6-6-2.7-7.2-2.7-2.8-5.9-3.2-9.4-3.2-.6 0-1.6.1-1.9.2-.3.1-.3.3-.3.6v9.6h-.1zm-291 44.9c-.4-.2-.4-.3-.4-1.1 0-1.4.1-2.6.1-3 0-.3.1-.5.2-.5.2 0 .2.1.2.3 0 .3 0 .7.1 1.1.4 2.1 2.3 2.9 4.2 2.9 2.7 0 4.1-2 4.1-3.8 0-2-.8-3.1-3.3-5.1l-1.3-1.1c-3-2.5-3.7-4.3-3.7-6.2 0-3.1 2.3-5.1 5.9-5.1 1.1 0 1.9.1 2.7.3.5.1.8.1 1 .1s.3.1.3.2-.1 1.1-.1 3c0 .5-.1.7-.2.7-.2 0-.2-.102-.2-.4s-.2-1.1-.4-1.4c-.2-.3-.9-1.5-3.6-1.5-2 0-3.5 1.2-3.5 3.3 0 1.6.8 2.6 3.5 4.8l.8.6c3.4 2.7 4.2 4.4 4.2 6.7 0 1.2-.5 3.3-2.4 4.7-1.2.9-2.8 1.2-4.3 1.2-1.4 0-2.7-.2-3.9-.7m19.3-13c0-4.5 0-5.3-.1-6.2-.1-1-.3-1.4-1.2-1.6-.2-.1-.7-.1-1-.1-.1 0-.2-.1-.2-.2 0-.2.1-.2.5-.2 1.3 0 3 .1 3.3.1.3 0 2-.1 2.8-.1.3 0 .5.1.5.2s-.1.2-.2.2c-.2 0-.4 0-.7.1-.8.1-1 .6-1.1 1.6-.1.9-.1 1.7-.1 6.2v4c0 4.1.9 5.9 2.1 7.1 1.4 1.3 2.7 1.6 4.3 1.6 1.7 0 3.5-.8 4.5-2.1 1.3-1.6 1.7-4.1 1.7-7v-3.6c0-4.5 0-5.3-.1-6.2-.1-1-.3-1.4-1.2-1.6-.2-.1-.7-.1-1-.1-.1 0-.2-.1-.2-.2 0-.2.1-.2.5-.2 1.3 0 2.9.1 3 .1.2 0 1.5-.1 2.4-.1.3 0 .5.1.5.2s-.1.2-.2.2c-.2 0-.4 0-.7.1-.8.1-1 .6-1.1 1.6-.1.9-.1 1.7-.1 6.2v3.1c0 3.1-.3 6.5-2.6 8.6-2.1 1.8-4.2 2.1-5.9 2.1-1 0-3.9-.1-5.9-2-1.4-1.3-2.5-3.3-2.5-7.5v-4.3zm28.3 0c0-4.5 0-5.3-.1-6.2-.1-1-.3-1.4-1.2-1.6-.2-.1-.7-.1-1-.1-.1 0-.2-.1-.2-.2 0-.2.1-.2.5-.2 1.3 0 3.1.1 3.2.1.3 0 2.5-.1 3.4-.1 1.8 0 3.7.2 5.2 1.3.7.5 2 1.9 2 3.9 0 2.1-.9 4.2-3.5 6.6 2.3 3 4.3 5.5 5.9 7.3 1.5 1.6 2.8 1.9 3.5 2.1.5.1.9.1 1.1.1.1 0 .3.1.3.2 0 .2-.2.2-.7.2h-2c-1.6 0-2.3-.1-3.1-.5-1.2-.7-2.2-2.1-3.9-4.2-1.2-1.6-2.5-3.5-3.1-4.2-.1-.1-.2-.2-.4-.2l-3.5-.1c-.1 0-.2.1-.2.2v.7c0 2.7 0 5 .1 6.2.1.8.3 1.5 1.1 1.6.4.1 1 .1 1.3.1.2 0 .2.1.2.2s-.1.2-.5.2c-1.6 0-3.4-.1-3.5-.1 0 0-1.8.1-2.7.1-.3 0-.5-.1-.5-.2s.1-.2.2-.2c.3 0 .6-.1.9-.1.6-.1.7-.7.8-1.6.1-1.2.1-3.5.1-6.2l.3-5.1zm2.3 2.5c0 .1.1.3.2.3.4.3 1.7.5 3 .5.7 0 1.5-.1 2.1-.5 1-.7 1.7-2.2 1.7-4.4 0-3.6-1.9-5.7-4.9-5.7-.9 0-1.6.1-1.9.2-.1.1-.2.2-.2.3v9.3zm36.1 3.5c0-2.3-.1-2.6-1.3-2.9-.2-.1-.7-.1-1-.1-.1 0-.2-.1-.2-.2 0-.2.1-.2.5-.2 1.3 0 3.1.1 3.2.1s1.9-.1 2.8-.1c.3 0 .5.1.5.2s-.1.2-.2.2c-.2 0-.4 0-.7.1-.8.1-1 .6-1.1 1.6-.1.9-.1 1.8-.1 3v3.2c0 1.3 0 1.3-.4 1.5-1.8 1-4.4 1.3-6.1 1.3-2.2 0-6.2-.3-9.4-3.1-1.7-1.5-3.4-4.6-3.4-8.2 0-4.6 2.2-7.8 4.8-9.4s5.4-1.8 7.6-1.8c1.8 0 3.8.4 4.4.5.6.1 1.6.3 2.3.3.3 0 .3.1.3.3 0 .4-.2 1.2-.2 4.102 0 .5-.1.6-.3.6-.1 0-.2-.2-.2-.4 0-.4-.2-1.2-.6-1.9-.7-1.1-3-2.3-6.7-2.3-1.8 0-3.9.2-6.1 1.9-1.7 1.3-2.8 3.9-2.8 7.3 0 4 2 7 3 7.9 2.3 2.2 4.9 3.1 7.5 3.1 1 0 2.5-.2 3.3-.6.4-.2.6-.5.6-1V95.7zm14-6c0-4.5 0-5.3-.1-6.2-.1-1-.3-1.4-1.2-1.6-.2-.1-.7-.1-1-.1-.1 0-.2-.1-.2-.2 0-.2.1-.2.5-.2 1.3 0 3.1.1 3.2.1h6.5c.5 0 1-.1 1.2-.1.1 0 .3-.1.4-.1s.1.1.1.3c0 .2-.1.5-.2 1.3 0 .3-.1 1.5-.1 1.9 0 .1-.1.3-.2.3-.2 0-.2-.1-.2-.4 0-.2 0-.7-.2-1-.2-.5-.5-.8-2-1-.5-.1-3.6-.1-3.9-.1-.1 0-.2.1-.2.3v7.9c0 .2 0 .3.2.3.4 0 3.9 0 4.5-.1.7-.1 1.1-.1 1.3-.4.2-.2.3-.4.4-.4s.1.1.1.2c0 .2-.1.7-.2 1.6-.1.602-.1 1.602-.1 1.8 0 .2 0 .5-.2.5-.1 0-.2-.1-.2-.3 0-.3 0-.6-.1-.898-.1-.4-.4-.9-1.5-1-.8-.102-3.6-.102-4.1-.102-.1 0-.2.1-.2.2v7.4c.1 2 .5 2.3 3.3 2.3.7 0 2 0 2.7-.3.7-.3 1.1-.9 1.3-2.1.1-.3.1-.4.3-.4.2 0 .2.2.2.4s-.2 2.2-.4 2.8c-.2.7-.4.7-1.5.7-4.3 0-6.2-.2-7.1-.2-.1 0-1.9.1-2.8.1-.3 0-.5-.1-.5-.2s.1-.2.2-.2c.3 0 .6-.1.9-.1.6-.1.7-.7.8-1.6.1-1.2.1-3.5.1-6.2l.2-4.9zM275 81c6.4 0 11.2 4.1 11.2 10.7 0 6.4-4.5 11.7-11.4 11.7-7.8 0-11.1-6.1-11.1-11.2 0-4.6 3.4-11.2 11.3-11.2m.6 21.4c2.6 0 7.9-1.5 7.9-9.8 0-6.9-4.2-10.6-8.7-10.6-4.8 0-8.4 3.1-8.4 9.4 0 6.7 4 11 9.2 11m21-3.2c.1 2.3.3 3.1 1.1 3.3.5.1 1.2.2 1.4.2.1 0 .2.1.2.2 0 .2-.2.2-.5.2-1.6 0-2.8-.1-3-.1-.3 0-1.5.1-2.8.1-.3 0-.5 0-.5-.2 0-.1.1-.2.2-.2.2 0 .7 0 1.2-.2.7-.2.9-1 .9-3.6V82.5c0-1.1.1-1.4.3-1.4.2 0 .7.6 1 .9.4.5 4.7 5.1 9.1 9.8 2.8 3 6 6.5 6.898 7.5l-.3-14.5c0-1.9-.2-2.5-1.1-2.7-.498-.1-1.198-.1-1.398-.1s-.2-.1-.2-.2c0-.2.2-.2.6-.2 1.3 0 2.7.1 3 .1s1.3-.1 2.4-.1c.3 0 .5 0 .5.2 0 .1-.1.2-.3.2-.1 0-.3 0-.7.1-.9.2-1.1.8-1.1 2.5l-.1 16.8c0 1.9-.1 2-.3 2-.2 0-.6-.3-2.1-1.8-.3-.3-4.4-4.5-7.5-7.8-3.3-3.6-6.6-7.2-7.5-8.2l.6 13.6zm27.4 3.5c-.4-.2-.4-.3-.4-1.1 0-1.4.1-2.6.1-3 0-.3.1-.5.2-.5.2 0 .2.1.2.3 0 .3 0 .7.1 1.1.4 2.1 2.3 2.9 4.2 2.9 2.8 0 4.1-2 4.1-3.8 0-2-.8-3.1-3.3-5.1l-1.3-1.1c-3-2.5-3.7-4.3-3.7-6.2 0-3.1 2.3-5.1 5.9-5.1 1.1 0 1.9.1 2.7.3.5.1.8.1 1 .1s.3.1.3.2-.1 1.1-.1 3c0 .5-.1.7-.2.7-.2 0-.2-.102-.2-.4s-.2-1.1-.4-1.4c-.2-.3-.9-1.5-3.6-1.5-2 0-3.5 1.2-3.5 3.3 0 1.6.8 2.6 3.5 4.8l.8.6c3.4 2.7 4.2 4.4 4.2 6.7 0 1.2-.5 3.3-2.4 4.7-1.2.9-2.8 1.2-4.3 1.2-1.4 0-2.7-.2-3.9-.7m39.8-22.1c6.4 0 11.2 4.1 11.2 10.7 0 6.4-4.5 11.7-11.4 11.7-7.8 0-11.1-6.1-11.1-11.2 0-4.6 3.4-11.2 11.3-11.2m.6 21.4c2.6 0 7.9-1.5 7.9-9.8 0-6.9-4.2-10.6-8.7-10.6-4.8 0-8.4 3.1-8.4 9.4.1 6.7 4.1 11 9.2 11M384 89.3c0-4.5 0-5.3-.1-6.2-.1-1-.3-1.4-1.2-1.6-.2-.1-.7-.1-1-.1-.1 0-.2-.1-.2-.2 0-.2.1-.2.5-.2 1.3 0 3.1.1 3.2.1h7c.5 0 1 0 1.3-.1.2-.1.3-.2.4-.2.1 0 .2.1.2.3 0 .2-.1.5-.2 1.3 0 .3-.1 1.5-.1 1.9 0 .1-.1.3-.2.3s-.2-.1-.2-.3c0-.2-.1-.7-.3-1.1-.2-.4-.8-.9-1.9-.9l-4.4-.1c-.2 0-.3.1-.3.3v7.9c0 .2 0 .3.2.3h5c.7-.1 1.1-.1 1.3-.5.1-.1.2-.3.3-.3.1 0 .1.1.1.2 0 .2-.1.7-.2 1.6-.1.6-.1 1.7-.1 1.9 0 .3 0 .5-.2.5-.1 0-.2-.1-.2-.3 0-.3-.1-.7-.2-1-.1-.4-.6-.9-1.5-1-.7-.1-3.8-.1-4.3-.1-.1 0-.2.1-.2.3v2.4c0 2.7 0 5 .1 6.2.102.8.302 1.5 1.102 1.6.4.1 1 .1 1.3.1.2 0 .2.1.2.2s-.1.2-.5.2c-1.6 0-3.4-.1-3.5-.1-.1 0-1.9.1-2.8.1-.3 0-.5-.1-.5-.2s.1-.2.2-.2c.3 0 .6-.1.9-.1.6-.1.7-.7.8-1.6.1-1.2.1-3.5.1-6.2l.098-5.1zm45.6 6.1c0-2.3-.1-2.6-1.3-2.9-.2-.1-.7-.1-1-.1-.1 0-.2-.1-.2-.2 0-.2.1-.2.5-.2 1.3 0 3.1.1 3.2.1.1 0 1.9-.1 2.8-.1.3 0 .5.1.5.2s-.1.2-.2.2c-.2 0-.4 0-.7.1-.8.1-1 .6-1.1 1.6-.1.9-.1 1.8-.1 3v3.2c0 1.3 0 1.3-.4 1.5-1.8 1-4.4 1.3-6.1 1.3-2.2 0-6.2-.3-9.4-3.1-1.7-1.5-3.4-4.6-3.4-8.2 0-4.6 2.2-7.8 4.8-9.4 2.6-1.6 5.4-1.8 7.6-1.8 1.802 0 3.802.4 4.4.5.6.1 1.6.3 2.3.3.3 0 .3.1.3.3 0 .4-.198 1.2-.198 4.1 0 .5-.1.602-.3.602-.1 0-.2-.2-.2-.4 0-.4-.2-1.2-.6-1.9-.7-1.1-3-2.3-6.7-2.3-1.8 0-3.9.2-6.1 1.9-1.7 1.3-2.8 3.9-2.8 7.3 0 4 2 6.9 3 7.9 2.3 2.2 4.898 3.1 7.5 3.1 1 0 2.5-.2 3.3-.6.4-.2.6-.5.6-1V95.4h-.002zm16.3-1c0 4.2.1 6 .6 6.5s1.2.7 3.4.7c1.5 0 2.8 0 3.5-.9.4-.5.7-1.2.7-1.7 0-.2.1-.4.3-.4.1 0 .2.1.2.4s-.2 2-.4 2.9c-.2.7-.3.8-1.8.8-4.1 0-6-.2-7.7-.2-.3 0-1.9.1-2.8.1-.3 0-.5-.1-.5-.2s.1-.2.2-.2c.3 0 .6-.1.9-.1.6-.1.7-.7.8-1.6.1-1.2.1-3.5.1-6.2v-5c0-4.5 0-5.3-.1-6.2-.1-1-.3-1.4-1.2-1.6-.2-.1-.7-.1-1-.1-.1 0-.2-.1-.2-.2 0-.2.1-.2.5-.2 1.3 0 3.1.1 3.2.1.1 0 2.2-.1 3.1-.1.3 0 .5.1.5.2s-.1.2-.2.2c-.2 0-.6 0-.9.1-.8.1-1.1.6-1.1 1.6-.1.9-.1 1.7-.1 6.2v5.1zm21.8-12.7c.3-.9.5-1.1.6-1.1.2 0 .3.1.6 1 .4 1.1 4.9 12.9 6.7 17.3 1 2.5 1.9 3 2.5 3.2.4.1.9.2 1.1.2s.3 0 .3.2-.3.2-.6.2c-.4 0-2.5 0-4.5-.1-.5 0-.9 0-.9-.2 0-.102.1-.2.2-.2.2-.1.3-.3.2-.8l-2.7-7c-.1-.102-.1-.2-.3-.2h-6.2c-.1 0-.2.1-.3.2l-1.7 5.1c-.3.7-.4 1.4-.4 1.9 0 .6.602.8 1.102.8h.3c.2 0 .3.1.3.2 0 .2-.2.2-.4.2-.7 0-1.9-.102-2.2-.102-.3 0-1.9.1-3.2.1-.4 0-.5-.1-.5-.2s.1-.2.3-.2.6 0 .8-.1c1.3-.2 1.9-1.3 2.4-2.7L467.7 81.7zm3 11.5c.1 0 .1-.1.1-.2l-2.7-7.7c-.1-.4-.3-.4-.4 0l-2.5 7.7c-.1.1 0 .2.1.2h5.4zm14.2 9.1c-.4-.2-.4-.3-.4-1.1 0-1.4.1-2.6.1-3 0-.3.1-.5.2-.5.2 0 .2.1.2.3 0 .3 0 .7.1 1.1.4 2.1 2.3 2.9 4.2 2.9 2.7 0 4.1-2 4.1-3.8 0-2-.8-3.1-3.3-5.1l-1.3-1.1c-3-2.5-3.7-4.3-3.7-6.2 0-3.1 2.3-5.1 5.9-5.1 1.1 0 2 .1 2.7.3.5.1.8.1 1 .1s.3.1.3.2-.1 1.1-.1 3c0 .5-.1.7-.2.7-.2 0-.2-.1-.2-.4 0-.3-.2-1.1-.4-1.4-.2-.3-.9-1.5-3.6-1.5-2 0-3.5 1.2-3.5 3.3 0 1.602.8 2.602 3.5 4.8l.8.602c3.4 2.7 4.2 4.4 4.2 6.7 0 1.2-.5 3.3-2.4 4.8-1.2.9-2.8 1.2-4.3 1.2-1.4-.002-2.7-.202-3.9-.802m34.6-6.9c0-2.3-.1-2.6-1.3-2.9-.2-.1-.7-.1-1-.1-.1 0-.2-.1-.2-.2 0-.2.1-.2.5-.2 1.3 0 3.1.1 3.2.1.1 0 1.9-.1 2.8-.1.3 0 .5.1.5.2s-.1.2-.2.2c-.2 0-.4 0-.7.1-.8.1-1 .6-1.1 1.6-.1.9-.1 1.8-.1 3v3.2c0 1.3 0 1.3-.4 1.5-1.8 1-4.4 1.3-6.1 1.3-2.2 0-6.2-.3-9.4-3.1-1.7-1.5-3.4-4.6-3.4-8.2 0-4.6 2.2-7.8 4.8-9.4 2.6-1.6 5.4-1.8 7.6-1.8 1.8 0 3.8.4 4.4.5.6.1 1.6.3 2.3.3.3 0 .3.1.3.3 0 .4-.2 1.2-.2 4.1 0 .5-.1.602-.3.602-.1 0-.2-.2-.2-.4 0-.4-.2-1.2-.6-1.9-.7-1.102-3-2.302-6.7-2.302-1.8 0-3.9.2-6.1 1.9-1.7 1.3-2.8 3.9-2.8 7.3 0 4 2 6.9 3 7.9 2.3 2.2 4.9 3.1 7.5 3.1 1 0 2.5-.2 3.3-.6.4-.2.6-.5.6-1v-5zm21.9-14.8c6.4 0 11.2 4.1 11.2 10.7 0 6.4-4.5 11.7-11.4 11.7-7.8 0-11.1-6.1-11.1-11.2.1-4.6 3.4-11.2 11.3-11.2m.6 21.4c2.6 0 7.9-1.5 7.9-9.8 0-6.9-4.2-10.6-8.7-10.6-4.8 0-8.4 3.1-8.4 9.4.1 6.7 4.1 11 9.2 11m38-3.3h.1c.8-2.6 3.4-10.9 4.4-14.6.3-1.1.3-1.5.3-1.8 0-.5-.3-.9-1.6-.9-.1 0-.3-.1-.3-.2s.1-.2.5-.2c1.5 0 2.7.1 2.9.1s1.4-.1 2.3-.1c.3 0 .4.1.4.2s-.1.2-.3.2c-.1 0-.7 0-1 .1-.9.3-1.3 1.5-1.9 3.1-1.3 3.6-4.1 12.7-5.3 15.9-.7 2.1-.9 2.5-1.2 2.5s-.5-.4-.9-1.5l-5.6-15.9h.2c-1 2.7-4.9 13.2-6 15.9-.5 1.2-.6 1.5-.9 1.5-.3 0-.4-.3-1-2.3l-5.1-17c-.5-1.5-.8-1.9-1.6-2.2-.4-.1-1.1-.2-1.3-.2-.1 0-.3 0-.3-.2 0-.1.2-.2.5-.2 1.5 0 3.1.1 3.4.1s1.5-.1 2.898-.1c.4 0 .5.1.5.2 0 .2-.1.2-.3.2s-.8 0-1.1.2c-.2.1-.4.3-.4.7s.3 1.4.5 2.6c.4 1.8 3.4 12.3 3.8 13.8h.1l6.1-16.3c.4-1.2.5-1.3.7-1.3s.4.4.7 1.3L580 98.7z"/>
  <path fill="#F6A01A" d="M145.7 111H233v6.7h-87.3z"/>
  <path fill="#9E0A34" d="M236.2 111h87.3v6.7h-87.3z"/>
  <path fill="#679146" d="M326.7 111H414v6.7h-87.3z"/>
  <path fill="#00A8CB" d="M417.3 111h87.3v6.7h-87.3z"/>
  <path fill="#A13192" d="M507.9 111h87.3v6.7h-87.3z"/>
  <g>
    <path fill="#849EC3" stroke="#000" stroke-width="0.5732" d="M103.6 113.9l-46.5-13.5-50.8 13.8s-2.2.5-3.7 1.7c-1.6 1.2-2.5 3.2 0 6.2 0 0 .4.9.5 1.8.1 1-.2 2.1-1.6 2.6l.5 1.1.5 1.1s4.9.2 10.6.7c5.7.5 12.1 1.4 15.1 2.9s10 2.6 16.3 3.4 11.7 1.2 11.7 1.2h1.6s5.5-.4 11.7-1.2c6.3-.8 13.3-1.9 16.3-3.4s9.5-2.4 15.1-2.9c5.7-.5 10.1-.7 10.1-.7l.7-1.1.3-1c-1.4-.5-1.4-1.6-1.3-2.6.1-1 .5-1.8.5-1.8 2.5-3 1.8-4.9.4-6.2-1.4-1.2-3.4-1.7-3.4-1.7l-2.3-.2-2.3-.2z"/>
    <g>
      <path fill="#FFF" stroke="#000" stroke-width="0.5732" d="M2.2 121.8s16.1.4 23.4 3c7.3 2.6 14.3 4.7 30.9 5.6h.6c16.6-.9 23.6-3 30.9-5.6 7.3-2.6 23.2-2.9 23.2-2.9l.1.3s-.4.9-.5 1.8c-.1.9.2 2.102 1.6 2.602l-.5 1.1-.5 1.1s-4.9.2-10.6.7c-5.7.5-12.1 1.4-15.1 2.9s-10 2.6-16.3 3.4c-6.3.8-11.7 1.2-11.7 1.2H56s-5.5-.4-11.7-1.2C38 135 31 133.9 28 132.4s-9.5-2.4-15.1-2.9c-5.7-.5-10.6-.7-10.6-.7l-.5-1.1-.5-1.1c1.4-.5 1.7-1.6 1.6-2.6s-.5-1.8-.5-1.8l-.2-.4z"/>
      <g>
        <path d="M6.8 124.6v.5c-.1 1.3-.1 2 0 2.1.1.2.5.1.5.2-.1 0-.3 0-.5-.1h-.7c0-.1.1 0 .2-.1.1 0 .1-.1.2-.2v-.3c0-.2 0-.5.1-.8v-.4c.1-.9.1-1.4 0-1.5-.1-.2-.4-.1-.3-.2H7c.5.7 1.3 1.6 2.5 2.8 0-.3 0-.5.1-.6v-.3c.1-1 .1-1.5-.1-1.6-.1-.1-.3-.1-.3-.1.1 0 .3.1.5.1h.3s.1 0 .1.1-.2 0-.3.1c-.1.102-.2.602-.2 1.5v.7c0 .5 0 .9-.1 1.102v.1c-.1 0-.1-.3-.6-.9C7.8 125.7 7.1 125 6.8 124.6m5.1 1.3c0 .4.1.9.3 1.2.3.4.7.7 1.2.8.8.1 1.3-.5 1.4-1.3.1-1-.5-1.9-1.4-1.9-.9-.1-1.5.4-1.5 1.2m1.6-1.4c1 .1 1.7.9 1.6 1.9s-.9 1.7-2 1.6c-1-.1-1.7-1-1.6-2 .1-.9 1-1.6 2-1.5zm3.7 1.1l-.1.5c-.2 1.3-.3 2-.2 2.1.1.2.5.2.5.3-.1 0-.3-.1-.5-.1h-.7c0-.1.1 0 .2-.1.1 0 .1-.1.2-.2v-.3c0-.2.1-.5.1-.8l.1-.4c.1-.9.2-1.3.1-1.5-.1-.2-.3-.2-.3-.2h.1c.1 0 .2 0 .3.1h.3c.4.7 1.2 1.7 2.3 3 0-.2.1-.5.1-.6v-.3c.1-1 .2-1.5 0-1.6-.1-.1-.3-.1-.3-.1.1 0 .3.1.5.1h.3c.1 0 .1 0 .1.1s-.2 0-.3.1-.2.6-.3 1.5l-.1.7c-.1.5-.1.9-.1 1.1v.102h-.1s-.1-.3-.6-.9c-.6-1.502-1.3-2.302-1.6-2.602m4.5 1.6l.7-.7.6.7-.6.7-.7-.7m5.8-.2c.1 0 .2 0 .4.1 0 0 .1 0 0 0 0 .1-.1 0-.2 0-.2 0-.4.2-.6.5-.9 1.1-1.5 1.8-1.7 2-.1.2-.1.2-.2.2s0 0-.1-.3c0-.3-.1-.9-.3-1.8-.1-.5-.1-.9-.2-1.1-.1-.3-.1-.5-.2-.6-.1-.1-.2-.1-.2-.1h.1c.1 0 .3.1.5.2.3.1.5.1.5.1 0 .1-.3-.1-.3.1 0 .1.1.8.2 1.9.1.7.1 1 .1 1s.2-.2.5-.6c.8-.9 1.2-1.5 1.3-1.7 0-.102 0-.2-.1-.2 0 0-.2-.1-.1-.1h.1c.2.3.3.4.5.4m2.9 1.2c0 .1-.2 0-.4 0-.1.1-.4.7-.8 1.8l-.2.5c-.2.4-.2.6 0 .7.1.1.3.1.2.2h-.1c-.1-.1-.4-.2-.6-.3-.2-.1-.4-.1-.4-.1H28h.1c.2.1.4.1.5-.1.1-.1.3-.6.6-1.3.4-.9.5-1.4.4-1.5-.1-.2-.3-.2-.3-.2h.1c.2.1.3.1.5.2 0 0 .3 0 .5.1m4.1 1.1c.1 0 .2 0 .4.1 0 0 .1 0 0 0 0 .1-.1 0-.2.1-.2 0-.4.2-.6.602-.9 1.1-1.4 1.8-1.6 2.1-.1.2-.1.3-.2.2-.1 0 0 0-.1-.3s-.2-.9-.4-1.8c-.1-.5-.2-.9-.2-1.1-.1-.3-.1-.5-.2-.5-.1-.1-.2-.1-.2-.1h.1c.1 0 .3.1.5.1.3.1.5.1.5.1 0 .1-.3-.1-.3.1 0 .1.1.7.3 1.9.1.7.2 1 .2 1s.2-.2.5-.6c.8-1 1.2-1.6 1.2-1.7 0-.1 0-.2-.1-.2l-.2-.1h.1c.2-.002.3-.002.5.098m3.8 1.3v-.3c0-.2-.2-.3-.8-.4-.2 0-.4-.1-.7-.1-.1.4-.2.8-.2 1.2v.1c0 .1 0 .1.2.2h.3c.5.1.7.1.9 0 .1-.1.1-.3.2-.2 0 .1-.1.2-.1.4v.4s0 .1-.1.1 0-.1 0-.3-.2-.3-.7-.4l-.3-.1c-.3-.1-.3 0-.4.1l-.1.3c0 .3-.1.6-.1 1 .2.1.4.1.7.2.6.1.9.1 1.2-.2.1-.1.1-.2.2-.2 0 .1-.1.3-.4.7-.5-.1-.9-.2-1.2-.2-.8-.1-1.2-.2-1.3-.2h-.1c0-.1.2 0 .3-.1.1-.1.2-.7.4-2l.1-.5c.1-.4.1-.6 0-.7-.1-.1-.2-.1-.2-.1h.1s.2.1.5.1c.1 0 .8.1 1.9.3-.2.7-.2.9-.3.9m2.8 1.5c.6.1.9-.2 1-.6.1-.5-.2-.9-.7-1-.3 0-.4 0-.4.1s-.1.6-.2 1.4c0 0 .2 0 .3.1m1.7 1.9c.3.2.4.2.4.2H43c-.6-.1-1.1-.8-1.7-2.1h-.1c-.2 0-.3-.1-.5-.1 0 .1 0 .2-.1.3v.3c-.1.6-.1.9 0 .9.2.1.3.1.3.2-.1 0-.3-.1-.6-.1h-.5c0-.102.1 0 .2-.102.2 0 .2-.3.3-.7l.2-1.1c.1-.9.2-1.3.1-1.4-.1-.1-.3-.1-.3-.1h.1s.2 0 .4.1c.3 0 .6 0 .9.1.7.1 1.1.6 1 1.1-.1.4-.3.7-.8.7.2.902.5 1.502.9 1.802zm4.3-2.2s0-.1 0 0v-.3s-.2-.3-.9-.4h-.7c-.1.4-.1.8-.2 1.2v.1c0 .1 0 .1.2.1h.3c.5.102.8.102.9 0 .1-.1.1-.3.2-.3 0 .1-.1.2-.1.4v.5c-.1 0 0-.1 0-.2 0-.2-.2-.3-.7-.3h-.3c-.3 0-.3 0-.4.1v.3c0 .3-.1.602-.1 1 .2.102.4.102.7.102.6.1.9 0 1.2-.3.1-.1.1-.2.2-.2 0 .1-.1.3-.3.7-.5-.1-.9-.1-1.2-.2-.8-.102-1.3-.102-1.3-.102h-.1c0-.1.2 0 .3-.1.1-.1.2-.7.3-2l.1-.5c0-.4.1-.6-.1-.7-.1-.1-.2-.1-.2-.1h.1s.2 0 .5.1c.1 0 .8.1 1.9.2-.2.6-.2.9-.3.9m16.8 1l.7-.6.7.6-.7.7-.7-.7m-12.8 2.3c0-.5-.1-.8-.1-.9h.1s0 .2.1.4.6.5 1 .5c.5 0 .8-.2.8-.6 0-.5-.3-.7-.9-1-.5-.3-.8-.5-.7-1 0-.5.5-.9 1.2-.8.3 0 .5.1.7.2.1 0 .2-.102.2-.102s-.1.1-.1.3v.4h-.1s0-.1-.1-.3c-.1-.2-.4-.4-.8-.5-.4 0-.7.2-.8.6-.1.6.4.7 1 1 .4.3.7.6.6 1 0 .5-.5.9-1.2.8-.3.002-.6-.098-.9.002.1-.1.1-.1 0 0m6.3-2.5c-.1-.1 0-.1 0-.3 0-.2-.2-.3-.9-.3-.2 0-.5 0-.7.1v1.3c0 .1 0 .1.3.1h.3c.5 0 .8 0 .9-.1.1-.1.1-.3.1-.3v.9c-.1 0 0-.1-.1-.2-.1-.2-.2-.2-.8-.2h-.3c-.3 0-.3 0-.3.1v1.3c.2 0 .5.1.7.1.6 0 .9-.1 1.1-.4.1-.1.1-.2.1-.2 0 .102 0 .4-.2.8H55c0-.1.2-.1.3-.1.1-.1.1-.8.1-2v-.5c0-.4 0-.6-.2-.6-.1-.1-.2 0-.2-.1h2.6c-.1.3-.1.6-.2.6m2.5-.7c0 .1 0 .6.1 1.6.1.8.1 1.2.2 1.3.1.1.4.2.8.1.9-.1 1.4-.8 1.3-1.8-.1-1-.8-1.6-1.8-1.5-.3.2-.5.3-.6.3m.8-.3c.5 0 .8 0 1.2.2.5.3.9.8.9 1.3.1 1-.6 1.8-1.9 2h-.8c-.3 0-.5.1-.6.1h-.1c0-.1.1 0 .2-.1.2-.1.2-.2.1-.6l-.1-1.3c-.1-.8-.1-1.2-.2-1.3-.1-.102-.3 0-.3-.102l.1-.1h.4c.3.102.6.002 1.1-.098zm30.7-4.6l.7-.7.6.7-.6.7-.7-.7m-22 3.7c.1 0 .2 0 .4-.1h.1c0 .1 0 0-.2.1s-.3.4-.4.8c-.4 1.4-.7 2.2-.8 2.5 0 .2 0 .3-.1.3s0 0-.2-.3c-.1-.3-.5-.8-1-1.6-.3-.4-.5-.7-.6-.9-.2-.2-.3-.4-.4-.4-.1 0-.2 0-.2-.1h.6c.3 0 .5-.1.5-.1 0 .1-.3 0-.3.2 0 .1.3.7 1 1.7.4.6.5.9.5.9s.1-.3.3-.8c.4-1.2.6-1.9.5-2 0-.102-.1-.2-.1-.102h-.2c.3-.098.4-.098.6-.098m2.3.4l-.3 1.4v.1h.1l1-.1v-.1l-.8-1.3m.9 1.5c0-.1-.1-.1-.1 0l-1.1.2c-.1 0-.1 0-.1.1l-.1.7v.2c0 .3.4.1.5.2h-.6c-.2 0-.3.1-.4.1 0 0 .1 0 .2-.1.2-.1.3-.6.5-1.6.3-1.4.4-2 .5-2s.1.1.2.3c.4.7.9 1.5 1.4 2.4.2.3.3.398.4.5h-.3c-.2 0-.4.1-.5.1H73c0-.1.3-.1.2-.3v-.1l-.6-.7zm4.3.4c-1.1.2-1.7.3-1.8.3H75c0-.1.1 0 .2-.1s.1-.2.1-.5c0-.2-.1-.4-.1-.8-.2-1.1-.3-1.7-.4-1.8-.1-.1-.3 0-.3-.1v-.1s.2 0 .5-.102c.3-.1.5-.1.6-.2 0 .1-.2 0-.3.2-.1.1-.1.3 0 .8l.1.5c.2 1 .3 1.6.3 1.7 0 .1.2.1.5.1.7-.1 1.1-.3 1.2-.5s0-.3.1-.3h.1c0 .2 0 .4-.1.7-.1.202-.3.202-.6.202m3.9-3.6c-.1-.1-.1-.1-.1-.3 0-.2-.3-.2-.9 0-.2 0-.4.1-.7.2.1.4.1.8.2 1.2v.1c0 .1 0 .1.3.1l.3-.1c.5-.1.7-.2.8-.3.1-.1 0-.3.1-.3 0 .1 0 .2.1.4s.1.4.1.4v.1c-.1 0 0-.1-.1-.2-.1-.2-.3-.2-.8-.1l-.3.1c-.3.1-.3.1-.3.2l.1.3c.1.3.1.6.3 1 .2 0 .5 0 .7-.1.6-.1.9-.3 1-.7 0-.1 0-.2.1-.2 0 .1 0 .4-.1.8-.5.102-.9.2-1.2.2-.8.2-1.2.3-1.3.3H79c0-.1.2-.1.3-.2 0-.1-.1-.8-.4-2l-.1-.5c-.1-.398-.1-.6-.3-.6h-.2s.2 0 .5-.1c.1 0 .8-.2 1.9-.5.1.5.2.7.1.8m3.3 0c.5-.2.7-.6.5-1-.2-.5-.7-.7-1.2-.4-.2.1-.3.2-.3.3 0 .1.2.5.6 1.3.1-.1.2-.1.4-.2m2.4.8c.3 0 .4-.1.4 0v.1l-.1.1c-.6.3-1.4 0-2.5-.8h-.1c-.2.1-.3.1-.5.2.1.1.1.2.1.3l.1.3c.3.5.4.8.5.8.2 0 .3-.1.3 0-.1 0-.3.1-.6.2s-.4.2-.4.3c0-.1 0-.1.1-.1.1-.1.1-.3-.1-.7l-.5-1c-.4-.8-.6-1.2-.7-1.2s-.3.1-.3 0v-.1s.2-.1.3-.1c.3-.1.5-.3.8-.5.6-.3 1.2-.1 1.5.4.2.3.1.7-.3 1.1.9.3 1.6.6 2 .7zm3.1-3.6s-.1 0 0 0c-.1-.1-.1-.1-.1-.3 0-.2-.3-.2-.9 0-.2 0-.4.1-.7.2.1.4.2.8.2 1.2v.1c0 .1 0 .1.3.1l.3-.1c.5-.1.7-.2.8-.3.1-.1 0-.3.1-.3 0 .1 0 .2.1.4s.1.4.1.4v.1c-.1 0 0-.1-.1-.2-.1-.2-.3-.2-.8-.1l-.3.1c-.3.1-.3.1-.3.2l.1.3c.1.3.1.6.3 1 .2 0 .5-.1.7-.1.6-.1.9-.3 1-.7 0-.1 0-.2.1-.2 0 .1 0 .4-.1.8-.5.1-.9.2-1.2.2-.8.2-1.2.3-1.3.3h-.1c0-.1.2-.1.3-.2 0-.1-.1-.8-.4-2l-.1-.5c-.1-.398-.1-.6-.3-.6h-.2s.2 0 .5-.1c.1 0 .8-.2 1.9-.5.1.5.2.8.1.8m-41 6.4l.7-.6.7.6-.7.7-.7-.7m48.1-8.2c.1 0 .2 0 .4-.1h.1c0 .1 0 0-.2.1s-.2.4-.4.8c-.4 1.4-.7 2.2-.7 2.6 0 .2 0 .3-.1.3s0 0-.2-.2c-.1-.3-.5-.8-1-1.6-.3-.4-.5-.7-.6-.9-.2-.198-.3-.398-.4-.398s-.2 0-.2-.1h.6c.3 0 .5-.1.5-.1 0 .1-.3 0-.3.2 0 .1.4.7 1 1.7.4.6.5.898.5.898s.1-.3.3-.8c.4-1.2.5-1.9.5-2s-.1-.2-.1-.1h-.2c.1-.3.3-.2.5-.3m2.9-.3c0 .1-.2.1-.3.2-.1.1-.1.8.1 2l.1.5c0 .5.1.6.3.7h.3l-.1.1h-.7c-.2 0-.4.1-.5.1h-.2s0-.1.1-.1c.3 0 .4-.1.4-.3s0-.6-.1-1.4c-.1-1-.2-1.5-.3-1.5-.2-.1-.4 0-.4-.1l.1-.1h.5c.2 0 .5-.1.7-.1m4.7-.4c-.1.4-.1.6-.1.6h-.1v-.2c0-.2-.3-.2-.9-.2h-.4c0 .3 0 .7.1 1.3.1 1.1.1 1.7.2 1.8.1.1.2.1.4.1h.1v.102h-.6c-.4 0-.7.1-.8.1 0-.1.3-.1.5-.2.1-.1 0-.5 0-1.4v-.5c0-.6-.1-1-.1-1.2h-.6c-.4 0-.7.1-.7.2-.1.1-.1.2-.1.2h-.1s.1-.2.1-.5v-.2h.5c.2 0 .4 0 .7-.1h.2c.6 0 1.1-.1 1.4-.1.1.198.2.198.3.198m2.1.6l-.4 1.3v.1h.1l1-.1v-.1l-.7-1.2c.1 0 .1 0 0 0m.8 1.5c0-.1-.1-.1-.1-.1l-1.1.1c-.1 0-.1 0-.1.1l-.2.7v.2c0 .3.4.2.4.3h-.6s-.3 0-.4.1c0 0 .1 0 .2-.1.2-.1.3-.6.6-1.5.4-1.4.6-1.9.6-2 .1 0 .1.1.2.3.3.8.7 1.6 1.2 2.5.1.3.2.4.4.5h-.3s-.4.1-.5.1h-.1c0-.1.3 0 .2-.2v-.1l-.4-.9z"/>
      </g>
    </g>
  </g>
  <g>
    <g>
      <path fill="#31556D" stroke="#000" stroke-width="0.7132" d="M8.9 73.6s.1 1 .2 2.6.3 3.7.4 5.9c.1 2.2.2 4.4.2 6.1s.3 3.1 0 3.4l-.9 7.6-.5 7.7-1.2 9.5 3.2 2.8s.4-.8 1-2.6c.6-1.7 1.3-4.3 2.1-7.8s1.5-8 2.1-13.4c.6-5.4 1-11.8 1-19.2l1.4-7-.8-8.9s-.6.3-1.4.8c-.9.5-2 1.2-3.1 2s-2.3 1.6-3.1 2.4-.2.9-.1 1.4l-.5 6.7z"/>
      <path fill="#849EC3" stroke="#000" stroke-width="0.7928" d="M9.4 97.4l-2.6 19.7 3.6 2.4z"/>
      <path fill="#31556D" stroke="#000" stroke-width="0.7132" d="M30.9 62.6l-.9 3.9 1.7 5.8s1.7-.9 1.9-1.5c.2-.6 1.8-3.8 1.8-4.5 0-.7-1.8-4.4-1.8-4.4l-2.7.1"/>
      <path fill="#849EC3" stroke="#000" stroke-width="0.7928" d="M31.9 117.9s5.2 1 6.8-1.5c0 0-2.3-13.2-1-17.3l-2.1-28.3-3.3 2.9s-1.4 42.4-1.4 42.7c.1.3 1 1.5 1 1.5z"/>
      <path fill="#31556D" d="M38.3 114.9s-4.5-1-6.6 2l.1.8s5.1.7 6.6-1.4c0-.3-.1-1.4-.1-1.4"/>
      <path d="M9.7 92.8l1 25.7s-2-22.7-1-25.7m22 23.3s2.6-2.8 6.7-1.2l-.1.4s-4.2-1.5-6.6 1.7v-.9"/>
    </g>
    <g>
      <path fill="#FFD38D" stroke="#000" stroke-width="0.5949" d="M16.1 118s-2.3 2-4.1 1.2l-.8-1.1 2.5-1.2 2.4 1.1zm9.7.2s.6 2.1 1.8 2.1c0 0 1.8-.4 2.6-1.6l-1.3-1.8s-3.3.8-3.1 1.2v.1z"/>
    </g>
    <g>
      <path fill="#F5E7D9" d="M20.7 55.2c.7-1.3-.1-4.6-.1-4.6l-.1-.4 5.2-.1s-.7 3.9 0 5.2c0 0-.5 2.6-2.5 2.3 0-.1-1.1.2-2.5-2.4"/>
      <path fill="#D4D5D1" stroke="#000" stroke-width="0.5949" d="M31.5 62.9s.1 1.4-.5 3 .3 1.5.5 2.1c.1.6.1 1-1 .9-1.1-.1-5.6-1.6-6.7-1-1.1.6-3.9-1.5-5.3.3-1.4 1.7-2.6-5.4-2.6-5.4s-.5-.2 1.3-3.7 2.6-2 2.6-2 .2-.9 1.1-.9c.9-.1 2.7.1 3.7.2.9 0 6.4 1.1 6.9 6.5z"/>
      <path fill="#D4D5D1" stroke="#000" stroke-width="0.5949" d="M11 119.1l2.5-2.3 1.7.9 6.5.3.8.6c6.4-2.3 8.3.2 8.3.2 2.2-1.7 1.1-28.6 1.1-28.6 1.1-7.1.7-16.2.7-16.2L31 66.1s-8.5-1.4-8.9-1c-.4.3-5.2 1.9-5.2 1.9L15 82.5s-.5 21.3-3.2 25.5l-.8 11.1z"/>
    </g>
    <g>
      <path d="M35.5 93.9s-.4 7.7.6 12.9c0 0-.4-6.3 0-8.4.3-2.1-.6-2.4-.6-4.5m-.5-7.1l-2.8 16.7-.1 3.1 3-17.5s-.3-.9-.1-2.3m-8.4 30.6s5.2-12.9 5.5-22.5c0 0-2.9 21.2-4.9 22.3s.1.1-.6.2m.5-27.1s-3.4 26.6-5.5 27.4l.8.9s4.7-16 4.7-28.3"/>
      <path stroke="#000" stroke-width="0.5949" d="M11.9 118s8.1-20.5 8.8-24.4c0 0-6.8 23.6-7.9 23.7-1.1 0-.9.7-.9.7z"/>
      <path d="M18.2 82.9s-2.5 14.7-4.1 15.7l-.7 5c-.1-.1 4.3-9.4 4.8-20.7"/>
    </g>
    <g>
      <path d="M31.9 113.6s1.9-2.8 6-1.2l.4 1.5s-4.2-1.5-6.6 1.7l.2-2m-8.9 2.2l4.9-1.9.7.3 2.8 2-.2 1-3.1-2.2-5.4 2.2.3-1.4m-9.7-.4c.2 0 1-2.1 1-2.1l2.8 1.9 5.6.5-.4 1.3-5.3-.7-2.5-1.6-1.4 1.2.2-.5m-5.7-1.7l-.3 1.3 3.2 1.5-.1-1.9s-2.8-2.1-2.8-1.9c.1.2-.1 1 0 1"/>
    </g>
    <g>
      <path fill="#849EC3" stroke="#000" stroke-width="0.5949" d="M20.6 54.4s-7 .8-8.1 4c0 0-2.9 5.9-3.8 6.5 0 0 .5 2.8.7 3.7.2.9 11.1-7.7 11.8-12.3 0 0-.8-1-.6-1.9zm5-.3s.3 2.6-1.1 2.5c0 0 1.2 2.5 2.1 3.1.8.6 9.6 6.5 11.5 6.5 0 0 1.2 0-.1-1.5l-5.9-8.9c0-.1-3.5-1-6.5-1.7z"/>
      <path d="M13.1 64.1c2.9-1.5 4.8-6.3 4.8-6.3l.6 1.4s-4 6.6-7 6.9c0-.2 1.6-2 1.6-2m13-7.1s.9 2.3 7.3 5.7l1.2-.3s-7.3-4.1-7.7-5.9l-.8.5"/>
    </g>
    <g>
      <g>
        <path fill="#F5E7D9" stroke="#000" stroke-width="0.397" d="M19.8 47.9s.1 4.5 2.9 5.7c0 0 2.9.3 3.4-6l-.2-3.1-6.2-.1.1 3.5z"/>
        <path d="M22.5 47.2s-1.5-.6-2.2-.1l-.3.3s1.5-.5 2.4 0l.1-.2m1 0s1.5-.6 2.2-.1l.3.3s-1.5-.5-2.4 0l-.1-.2"/>
        <path stroke="#000" stroke-width="0.1146" d="M22.2 48.1s-.1-.2-.4-.4c-.3-.1-.7-.1-1.3.3l.6-.2c.3-.1.7-.1.9.2l.2.1zm1.7 0s.4-1.1 1.5-.1c.1 0-1.1-.5-1.5.1"/>
        <ellipse cx="21.4" cy="47.9" stroke="#000" stroke-width="0.1146" rx="0.4" ry="0.2"/>
        <ellipse cx="24.6" cy="47.9" stroke="#000" stroke-width="0.1146" rx="0.4" ry="0.2"/>
        <path fill="#FFF" stroke="#000" stroke-width="0.1146" d="M21.9 51h1.9c.3 0 .3.1.6 0-.4.1-.7.1-1.1.1-.7-.1-1-.1-1.4-.1h-.1"/>
        <path d="M22.5 51.5l.1.1h1l.2-.1s-.8.1-1.3 0m-.1-1.7l-.1.1h1.1s.3.1.3 0"/>
      </g>
      <g>
        <path fill="#FFD38D" stroke="#000" stroke-width="0.4755" d="M19.1 43s1.2-2.1 3-2.2l-.4-1.8h2.5l-.5 1.7s1.9.4 2.5 2c.1-.1-3.2-2-7.1.3z"/>
        <path fill="#FFD38D" stroke="#000" stroke-width="0.4755" d="M20.9 38.3s.3 1.6.4 1.5c.1-.1 2.4-.8 3 0l.4-1.7c.1 0-2.1-1-3.8.2zm1.7 7.2c-.9 0-2.5.8-2.5.8.8 4.1-1.8 5.6-1.8 5.6-1.7 1.6 1.3 2.7 1.3 2.7-5.3-.6-1.9-4.5-1.9-4.5 1.4-3.8 0-5.7 0-5.7s1.5-2.4 4.6-2.6h.9c3.1.2 4.8 2.6 4.8 2.6s-1.6 1.9-.2 5.7c0 0 3.3 4-1.9 4.6 0 0 3-1.2 1.3-2.8 0 0-2.1-1.7-1.3-5.8 0 0-2.1-.6-3-.6h-.3z"/>
      </g>
      <g>
        <path fill="#FFE8C7" stroke="#000" stroke-width="0.4755" d="M20.2 50.7c.1.7.8 1.1 1 1.8.3.9.4 1.7.2 2.6-.4 1.6-.9 3.2 0 4.6.5.7.5.5.4 1.4-.1.6-.8 1.3-1.3 1.8.3-.6.8-1.2.7-1.9-.3-1.398-1.4-.7-2.3-1.6-.7-.8-1.1-1.9-.7-2.9.3-.898.5-1.1 0-2 0 0-1.2-1.6-.2-2.5 1-.898 2.1-2 2.1-2l.1.7zm7.4 3.7c.4.6.4 1.5-1.5 2.6 0 0-.3.2.1.9 0 0 .2.7-1.1 1.4 0 0 .5-.8.2-1.4-.2-.6-.8-1.3-.2-2.2s.5-1.1-.3-2.7l.2-.9s.8-1.1.7-1.6c-.1-.5.6.8.6.8s1.5 1.1 1.1 1.8c-.2.6.2 1.3.2 1.3"/>
      </g>
    </g>
    <path fill="#F5E7D9" stroke="#000" stroke-width="0.4574" d="M9.1 54.1l-2.8.5 1.4 9.5 1.8 2.4s-.4 1.7.8.6l4.9-5.1c.7-.8 1-1.8.1-2.6s-1.9-.7-2.6-.3c-.7.3-2.6 3.8-2.6 3.8l-1-8.4v-.4z"/>
    <g>
      <path fill="#D4D5D1" stroke="#000" stroke-width="0.6106" d="M5.9 41.5l10.2 79.1s.9 1.1 1.7-.3c.7-1.3-10.6-79.4-10.6-79.4s-1.2-.7-1.3.6z"/>
      <path fill="#D4D5D1" stroke="#000" stroke-width="0.5949" d="M6.7 41.2l1.6-.6-.3-1 1.1-.3s-4.1-9.6-4.5-10c-.4.9-.2.8-.9 11l1.1-.1v1h1.9z"/>
    </g>
    <g>
      <path fill="#F5E7D9" stroke="#000" stroke-width="0.3656" d="M6.4 54.2c.4-.1-.2-.1.7-.1 0 0 1.1.3.3.4H9s1.1.5 1.1.7c0 0 0 .4-.2.3 0 0 .3.5 0 .8 0 0 .4.5-.3.8 0 0-.3.5-.8.5-.5-.1-.4.2-.4.2s-2.1 0-2.5-.8c-.3-.7 0-2.7.5-2.8z"/>
      <path d="M9.8 55.4L8.3 55s2.7.5 1.6 1.2l-1.7-.4c-1.3-.3 1.8.6 1.8.7 0 0 .3 1.2-2 .3 1.3.4 1.6.7 1.3.8l.3-.2.3-.4.2-.5-.2-.2.2-.3.1-.2-.4-.4"/>
    </g>
  </g>
  <g>
    <g>
      <path fill="#31556D" stroke="#000" stroke-width="0.9919" d="M57.3 117.5c-21.9-4.7-22-28.6-22-28.6V66.3h44.2v22.6s-.2 24-22 28.6h-.2z"/>
      <path fill="#FFF" d="M57.3 66.8H79v21.6H57.3zm-.2 22H35.8s-.1 12.1 8.3 21c0 0 5.1 5.8 13.1 7.3l-.1-28.3z"/>
      <path fill="none" stroke="#000" stroke-width="0.7303" d="M57.5 66.6v50.5"/>
      <path fill="none" stroke="#000" stroke-width="0.5949" d="M35.5 88.6h43.6"/>
    </g>
    <g>
      <g>
        <path fill="#FBFBFC" d="M72.7 103.9h-.4c-.1 0-.1 0-.1-.1-.1-.4-.2-.7-.4-1-.4-.7-1-1.2-1.9-1.4h-.3c.1-.3.5-.5 1.1-.2v-.2c-.1-.3-.2-.6-.3-.8-.1-.3-.3-.5-.6-.6-.3-.2-.6-.3-.9-.4h-.1c.2-.1.4-.1.7 0 .1 0 .3.1.4.1h.2v-.2c-.4-.5-.5-1.1-.5-1.8 0 .3.1.6.3.9.1.1.2.2.2.3.1.1.1.1.2-.1 0-.2 0-.3.1-.5v-.1c.1.6.4 1 .7 1.4l.6.9s0 .1.1.1c.2.3.2.7.3 1.1v.2c0 .1.1.1.2.1s.1-.1.1-.1v-4.8c0-.1 0-.1-.1-.2s-.2-.1-.2-.3c0-.1.1-.2.2-.3.2-.102.5-.102.7 0 .2.1.2.398 0 .5-.1 0-.1.1-.1.2v4.8c0 .1 0 .2.1.2s.2 0 .2-.102c0-.2.1-.4.1-.6s.1-.5.2-.7.2-.5.4-.7c.1-.2.3-.4.4-.6.3-.4.5-.7.6-1.2 0 .2 0 .3.1.5 0 .1 0 .1.1.2.1 0 .1-.1.2-.1.3-.3.4-.6.4-.9v-.1c0 .4 0 .8-.1 1.1-.1.2-.2.5-.3.7 0 0 0 .1-.1.2h.2c.2 0 .4-.1.6-.1h.4c-1.1.3-1.7 1-1.9 2.1.4-.1.8-.2 1.1.2-.1 0-.2 0-.3.1-.9.2-1.5.8-2 1.6-.4.102-.5.402-.6.702v-.4.4z"/>
        <path fill="#FCFCFC" d="M72.5 93.2c.7 0 1.3.6 1.3 1.3 0 .5-.3.8-.7 1.1H73c-.3-.2-.7-.2-1 0h-.1c-.5-.2-.7-.8-.7-1.3.1-.5.5-.9 1-1 .1 0 .2-.1.3-.1z"/>
        <path fill="#FBFBFC" d="M72.4 92.4c.4 0 .7.2 1 .4v.1c-.1.1-.1.2-.2.3 0 .1-.1.1-.1 0-.5-.3-.9-.3-1.4-.1h-.1c-.1-.1-.1-.2-.2-.3v-.1c.4-.2.7-.3 1-.3z"/>
      </g>
      <g>
        <path fill="#FFF" d="M67.3 106.7c0 .5-.3.9-.7.9s-.7-.4-.7-.9v-14c0-.5.3-.9.7-.9s.7.4.7.9v14z"/>
        <path fill="#839DC2" d="M64.8 107.7s-.2-1.1.9-1.6c0 0 3.3-1 3-3.5 0 0 0-1.1-1.5-2v1.9s.3 1.4-1.5 1.6c0 0-3 .5-2.4 2.6 0 0 .8 1.5 1.5 1zm2.5-14.5s4.4 2.8.2 4.8c0 0-1.9.5-1.7 3.4 0 0-3.3-1.9 0-4.4 0 0 2.3-.6 1.4-1.9v-1.9h.1z"/>
        <path fill="#FBFBFC" d="M59.4 96.6c.5-.2.9-.5 1.2-.9-.7 0-1.4 0-2-.2.1 0 3.4-.6 3.5-.7l-.5.5c-.4.3-.8.7-1.2 1-.2.1-.4.3-.6.3h-.4z"/>
        <path fill="#839DC2" d="M60.1 94.7c.8.2 2.4-.1 2.4-.1.3.1-1.1 1.2-1.1 1.2l1 .2 2.1-1.9h1.4v-1.5l-2.1-.1c-2.7-.4-3.7 2.2-3.7 2.2zm2.6-1.3c-.4 0-.5.7-.5.7-.4-.3-.8-.1-.8-.1.4-.7 1.3-.6 1.3-.6z"/>
      </g>
      <g>
        <path fill="#FFF" d="M61.3 107.6l3.1-4.1-1-1.2-2.7 3.3.6 2zm.5-1.5c0 .2-.2.4-.4.4s-.4-.2-.4-.4.2-.4.4-.4c.3 0 .4.2.4.4z"/>
        <path fill="#FFF" d="M61.2 104.6l-1.8-2.4-1.4 1.2 3 4.2-.7-2m.2-5v2.6l.9 1.1.9-1.1v-2.6l-.9-1.1"/>
      </g>
    </g>
    <g>
      <path fill="#849EC3" d="M41.1 106.1s8.8-4.5 16 1.4v9.6s-9.5-1.3-16-11z"/>
      <g>
        <g>
          <path fill="#849EC3" stroke="#FFF" stroke-width="0.3845" d="M52.9 97.4c.2.3.4.9.9.8.3 0 .5-.4.5-.7.2.4.7 1.4 1.4.9.4-.3.1-.8-.1-1 .3-.1.9-.1 1-.4.1-.5-.5-.6-.8-.7.1-1.1-1.5-.9-1.4 0-.1-.3-.2-.6-.6-.6-.5 0-.2.2-.4.4s-.4.3-.4.6c0 .4.3.5.4.8"/>
          <path fill="#849EC3" stroke="#FFF" stroke-width="0.3845" d="M51.9 96.2c0-.1-2-1.1-.4-1.8 0 0-1.2-1.4.3-1.4 0 0-.5-1.4.8-1.2l.1.5s.3-1.5.9-1c0 0 .7.7 0 1.3 0 0 1.6-.1.1 1.2 0 0 1.4.8-.3 1.1 0-.1.9 2.1-1.5 1.3"/>
          <path fill="#849EC3" stroke="#FFF" stroke-width="0.3845" d="M49.3 97.2s1.3-.3.6-.9c0 0 1.1-.6 0-.9 0 0 1.6-.9.1-1.7 0 0 .4-1.1-.5-1 0 0-.7.1-.3 1 0 0-1.3-.5-.5 1.6 0 0-1 .102-.2.9.1 0-1.1.8.8 1z"/>
          <path fill="#849EC3" stroke="#FFF" stroke-width="0.3845" d="M47.4 97s-1.8-.2-1-1.3c0 0-1.2-1.1 0-1.4 0 0-1.1-1.4 0-1.4 0 0-.2-1.6 1-.4l.1.4s1.5-.2.3 1.4c0 0 1.3.5.1 1.3-.1-.1 1 .8-.5 1.4z"/>
          <path fill="#849EC3" stroke="#FFF" stroke-width="0.3845" d="M44.8 97.1c.3 0 1.5-.2.8-1 0 0 .8-1-.3-1 0 0 1.3-1.8-.4-1.6 0 0 .5-1.2-.7-1 0 0-.9-.1-.3.9 0 0-1.1.3.1 1.398 0 0-1.5-.3-.2 1.4.2.002-.4 1.002 1 .902z"/>
          <path fill="#849EC3" stroke="#FFF" stroke-width="0.3845" d="M42.5 95.2s1.2-.6.3-1.4c0 0 1.5-1.2-.1-1.4 0 0 .3-1.3-.7-.8 0-.1 0-.8-.9-.9 0 0-.6.3-.2 1 0 0-1.1-.1-.3 1.2 0 0-1.3.5.4 1.2 0 0-.8.2 0 1.4.8 1.1 1.5-.3 1.5-.3z"/>
          <path fill="#849EC3" stroke="#FFF" stroke-width="0.3845" d="M42.3 96.7s-.9 1.5-2 .5c0 0-1.2.9-1.5-.3 0 0-1.5.1-.7-.9 0 0-1-.4-.6-.8 0 0 .3-.8 1 0 0 0-.5-.7.3-.8.7-.1.9.7.9.7s.3-1 .9-.3c0 0 .6.4.3 1.1 0 0 .5-1.2 1-.4.4.8.4 1.2.4 1.2z"/>
          <path fill="#849EC3" stroke="#FFF" stroke-width="0.3845" d="M43.5 99.4s-.4 1-1.1.4c0 0-.8 1.3-1.1 0 0 0-.6 1.1-1.7.3 0 0-.5-.5.3-.9 0 0-.9.4-1.1-.4-.2-.8.7-1.4 1.4-.5 0 0 .4-1.4 1.3.1 0 0 .5-1.4 1 0 0 0 .2-1.3 1.3.1 1.1 1.4-.3.9-.3.9z"/>
        </g>
        <g>
          <path fill="#31556D" stroke="#FFF" stroke-width="0.1917" d="M55.2 93.3l-1.1-.1s.3 1.1.6 1.2l-.5-.1s-.7.7.1 1.2c0 0 .9.4 1.4-.1s.1-.3.1-.3l-.2-.3s.5.3.7.3c.2 0 .2-.8-.1-1l-1-.8z"/>
          <path fill="#849EC3" stroke="#FFF" stroke-width="0.1917" d="M56.2 92.5s-.7 0-1 .4l-.4.7s.5.8 1 .7l.5-.7c0-.1.1-.9-.1-1.1z"/>
        </g>
        <g>
          <path fill="#31556D" stroke="#FFF" stroke-width="0.1917" d="M50.7 90.7s-1.3.1-.1 1.1l-.4-.2s-.3 1.6.6 1.6c0 0 .7.2 1.1-.5s.2-.5.2-.5-.3-.2-.7-.2c0 0 1.4 0 .5-.8s-1-.5-1.2-.5z"/>
          <path fill="#849EC3" stroke="#FFF" stroke-width="0.1917" d="M51.6 89.8s-.7.3-.7.6l-.1.9s.6.4.9.2c.4-.1.2-.7.2-.7s.2-.4-.3-1z"/>
        </g>
        <g>
          <path fill="#31556D" stroke="#FFF" stroke-width="0.1917" d="M42.5 90.3s-.9.7.1 1c.1 0 .2.1.3.1 0 0-1.2.6.1 1.4 0 0 1.2.3 1.3-.7 0 0 0-.9-.5-.8 0 0 1.1-.6.1-1.2 0 0-.7.5-1.4.2z"/>
          <path fill="#849EC3" stroke="#FFF" stroke-width="0.1917" d="M43.2 89.3s-.6.1-.5.7l.1.7s.4.4.7.3c.3-.1.7-.4.5-1-.3-.7-.6-.7-.8-.7z"/>
        </g>
        <g>
          <path fill="#31556D" stroke="#FFF" stroke-width="0.2686" d="M37.3 92.5l-.1 1s.7.1 1.2-.1l-.5.3s.2 1 1.5.6c0 0 1.2-.8 0-1.8l-.4.2.3-.9-1.1-.1c.1 0-.3.9-.9.8"/>
          <path fill="#849EC3" stroke="#FFF" stroke-width="0.1917" d="M37.2 91.2s-.6 1.2.5 1.7c0 0 .7.1 1-.6.1.1.1-1.1-1.5-1.1z"/>
        </g>
        <path fill="#31556D" stroke="#FFF" stroke-width="0.3845" d="M46.3 104.7l2.9.1s-.7-4.5-.1-5.5c0 0 2.1-2 5.6-2.4 0 0-1.6-.5-2.6-.3l.7-2.8s-1.3 3.1-2.8 3.4c0 0-.7 0-.7-2.7 0 0-.3 4.9-1.3 3.5l-1-3.6s.7 4.2-.7 3.9c-1.4-.3-1.6-3.6-1.6-3.6s0 2.5-.4 2.5-1.1-.5-1.6-1.7-.8-2.3-.8-2.3 0 2.4.1 3.2l-2.2-.2s2 .5 2.7 1 1.4 1.3 1.8 1.2c.4-.102-1.6.6-3 .398 0 0 2.1.7 2.8.3.7-.3 2.8.5 2.7 1.5.1.102.1 4.002-.5 4.102z"/>
      </g>
      <g>
        <path fill="#849EC3" stroke="#FFF" stroke-width="0.2022" d="M43 102.9c-.4.2-.5.6-.4.9.2.3.6.3.9.1.4-.2.5-.6.4-.9s-.5-.3-.9-.1zm1.6-.3c.3.5 0 1.3-.8 1.7-.7.4-1.6.3-1.9-.2-.3-.5 0-1.3.8-1.7.7-.4 1.6-.3 1.9.2z"/>
        <ellipse cx="42.906" cy="102.405" fill="#849EC3" stroke="#FFF" stroke-width="0.2887" transform="rotate(-105.963 42.91 102.41)" rx="0.7" ry="1.4"/>
      </g>
      <g>
        <path fill="#31556D" stroke="#FFF" stroke-width="0.2396" d="M43.8 103.3s-2 3.2 5.5 4.9c0 0 0-.8.7-1.4-.1 0-5.6 1.2-6.2-3.5z"/>
        <path fill="#31556D" stroke="#FFF" stroke-width="0.1917" d="M45.9 104s2.5.7 3.2-.8l1.6 1.1s-1.5 1-4.6.3l-.2-.6z"/>
        <path fill="#31556D" stroke="#FFF" stroke-width="0.2887" d="M51.6 103.7s1.6-.2 1.6 1.4m-2.4-.8s1.7-.7 2.3-3.2c0 0 1.3 1.3.5 2.5 0 0 .9-.2 1.6.7.7 1 .9.7.9.7s-2.1-.5-3.5.6c-1.3 1-2.7 1.2-2.7 1.2s-2.5.7-4.6-.5c0 0 1.5-.3.5-2.2.1 0 3.2 1.4 5 .2z"/>
        <path fill="#31556D" stroke="#FFF" stroke-width="0.1917" d="M43.4 103.3l.9 1 .4-.8s1.3.3 1.3.7c.1.4.7 1.4-.7 2 0 .1-2-.5-1.9-2.9z"/>
        <path fill="#FFF" d="M44 104.8h.5l.1.4-.4.1-.2-.5"/>
      </g>
      <g>
        <path fill="#31556D" stroke="#FFF" stroke-width="0.2887" d="M51 98.3l-.9 2.4h3.1l-.9-2.3s.7-1.5-.7-1.4c0-.1-1.2-.2-.6 1.3zm-.1 2.4h1.4s-.2.7-.7.7c-.4 0-.7-.7-.7-.7z"/>
      </g>
      <g>
        <path fill="#31556D" stroke="#FFF" stroke-width="0.1917" d="M47.7 91.4s1.5 1 1.8.9c0 0-.2-.9 0-1.2-.1.1-1.4.4-1.8.3z"/>
        <path fill="#31556D" stroke="#FFF" stroke-width="0.1917" d="M45.2 89.6s.2-.1.9-.4c0 0 .9-.4 1 .5h-.2s.5 0 .8.4c0 0 .8 1.3 1.7 1.1 0 0-1.5.4-2.3 0 0 0-.7 0-1.1-.9-.4-.8-.8-.7-.8-.7z"/>
        <path fill="#FFF" d="M46.6 91.1l-.1.9.2-.1.1-.6c.1 0-.2-.1-.2-.2m.5.2s.3.6.2.8l.2.3.1-1-.5-.1"/>
        <path fill="#31556D" stroke="#FFF" stroke-width="0.1917" d="M46.7 89.9c.4.3-.6.5-.6.5s.2.8 1.2.9c0 0-.4-.6-.4-1 .1-.4-.2-.4-.2-.4z"/>
        <path fill="#FFF" d="M46.4 89.5l-.3.1.2.2.2-.3h-.1"/>
      </g>
    </g>
    <g>
      <path fill="#9D0832" d="M69.8 80.4c.3 0 .3.2.5.3.2-.3.5-.4.4-1-.6-.1-.8.3-.9.7zM67.6 75c.1.2.7.9.9.3H68c-.1-.7-.9-.8-1-1.4-.3.8.3 1.8.6 1.1zm1.5 6.5c0-.4 0-.6.4-.6-.8.2 0-1.5-.5-1.7-.2 0-.2.1-.4.1-.1.4.2.5.2 1-.6.9-2.3-.4-2.9.4-.4-.1-.2-.8.1-.9-.2-.3-.5.1-.6.1-.1-.7.7-.8 1.1-.7.1-.3-.3-.1-.3-.4.6-.198.8.4.9.9.4 0 .7 0 .8-.3-.2-.5-.9-.5-.8-1.3.4-.2.7-.4 1.2-.4-.1-.2-.3-.2-.4-.4-.5.2-.9.4-1 1.102-.2 0-.5.1-.5-.1-.3.1.1.2 0 .4-.3 0-.3-.1-.5-.2 0-.2 0-.3.1-.4-.3-.102-.5.198-.4.298-.2.3-.4-.3-.3-.6.2-.1.5-.1.4-.4-.1-.2-.4 0-.5 0 .2-.6 1-.1 1.6-.2.1-.1.2-.2.2-.3-.4-.2-.8-.4-.5-1.1-.4.1-.9-.4-1.4-.2-.1-.6-.1-.6 0-.8.2-.1.4-.1.7-.1v-.4c-.1-.2-.3-.2-.5-.2 0-.3.2-.4.4-.5.3 0 .4.2.5.4.1-.1.3-.2.3-.4h.9c.1.1.3.2.3.4.2 0 0-.3.1-.4.9-.1 1.9-.6 2.7-.2-.5.3.2.7-.3.8.4.7 0 1.6-.3 2.2 0 .3.2.3.4.3 0 .3-.4.3-.3.6.5 1.7 2-.3.6-.9.1-.3.2 0 .4-.1-.2-1-.2-2.4.7-2.5-.3 1.9 1 5.2-1.1 4.7-.1.4.2.5.4.7.3 0 .4-.2.8-.2.1.9-.2 1.4-.4 2-.2 0-.3 0-.4.1v.4c-.2.1-.6.1-.4.4-.9-.1-.7-.8-1.5-.4z"/>
      <path fill="#9D0832" d="M62.4 71.7v11.9h11.9V71.7H62.4zm.4.4h4.9c0 .2.3.4.7.4s.7-.2.7-.4H74V77c-.2 0-.4.3-.4.7s.2.7.4.7v4.9h-4.9c0-.2-.3-.4-.7-.4s-.7.2-.7.4h-4.9v-4.9c.2 0 .4-.3.4-.7s-.1-.7-.4-.7v-4.9z"/>
      <path fill="#9D0832" d="M61.4 70.7v13.9h13.9V70.7H61.4zm.2.2h13.5v13.5H61.6V70.9z"/>
      <path fill="#9D0832" d="M74.1 69.6c0 .1 0 .1 0 0l-4.6.1.8-1.4-1.3.2-.4-1.2h-.4l-.4 1.2-1.3-.2.8 1.4h-4.6v-.1c.2-.6 0-1.3-.4-1.5-.4-.2-1 .1-1.3.7 0 .1 0 .1-.1.2-.1-.1-.1-.3-.2-.4-.4-.4-.9-.4-1.3 0s-.3.9 0 1.3c.1.1.2.2.4.2h-.2c-.6.3-.9.8-.7 1.3.2.4.9.7 1.5.4v4.7l-1.4-.8.2 1.3-1.2.4v.4l1.2.4-.2 1.3 1.4-.8v4.7h-.1c-.6-.2-1.3 0-1.5.4-.2.4.1 1 .7 1.3h.2c-.1.1-.3.1-.4.2-.4.4-.4.9 0 1.3s.9.3 1.3 0c.1-.1.2-.2.2-.4 0 .1 0 .1.1.2.3.6.8.9 1.3.7.4-.2.7-.9.4-1.5v-.1h4.7l-.8 1.5 1.3-.2.4 1.2h.4l.4-1.2 1.3.2-.8-1.4h4.7v.1c-.2.6 0 1.3.4 1.5s1-.1 1.3-.7c0-.1 0-.1.1-.2.1.1.1.3.2.4.4.4.9.4 1.3 0s.4-.9 0-1.3c-.1-.1-.2-.2-.4-.2h.2c.6-.3.9-.8.7-1.3-.2-.4-.9-.7-1.5-.4h-.1v-4.7l1.4.8-.2-1.3 1.2-.4v-.4l-1.2-.4.2-1.3-1.4.8v-4.7h.1c.6.2 1.3 0 1.5-.4.2-.4-.1-1-.7-1.3h-.2c.1-.1.3-.1.4-.2.4-.4.4-.9 0-1.3s-.9-.3-1.3 0c-.1.1-.2.2-.2.4 0-.1 0-.1-.1-.2-.3-.6-.8-.9-1.3-.7-.5.1-.8.8-.5 1.4zm.1.1c.2-.4.5-.6.8-.5.2.1.4.3.4.5h-1.2zm2.1.8c.3.1.5.2.5.4.1.3-.1.7-.5.8v-1.2zm-15.7 1.3v-1.9h15.5v15.5H60.6V71.8zm-.2-.1c-.3-.2-.5-.5-.4-.8.1-.2.2-.3.4-.4v1.2zm.9-2c.1-.3.2-.5.4-.5.3-.1.7.1.8.5h-1.2zm12.9 15.9h1.3c-.1.3-.2.5-.4.5-.4.1-.7-.1-.9-.5zm2.1-.8v-1.3c.4.2.6.5.5.8-.1.3-.2.4-.5.5zm-15.9-1.3v1.3c-.3-.1-.4-.2-.5-.4-.1-.4.2-.7.5-.9zm.9 2.1h1.3c-.2.4-.5.6-.8.5-.3-.1-.5-.3-.5-.5z"/>
    </g>
    <g>
      <g>
        <path fill="#FBFBFC" d="M51.9 83.3h-.4c-.1 0-.1 0-.1-.1-.1-.4-.2-.7-.4-1-.4-.7-1-1.2-1.9-1.4h-.3c.1-.3.5-.5 1.1-.2v-.2c-.1-.3-.2-.6-.3-.8-.1-.3-.3-.5-.6-.6-.3-.2-.6-.3-.9-.4H48c.2-.1.4-.1.7 0 .1 0 .3.1.4.1h.2v-.2c-.4-.5-.5-1.1-.5-1.8 0 .3.1.6.3.9.1.1.2.2.2.3.1.1.1.1.2-.1 0-.2 0-.3.1-.5v-.1c.1.6.4 1 .7 1.4l.6.9s0 .1.1.1c.2.3.2.7.3 1.1v.2c0 .1.1.1.2.1s.1-.1.1-.1v-4.8c0-.1 0-.1-.1-.2s-.2-.1-.2-.3c0-.2.1-.2.2-.3.2-.1.5-.1.7 0 .2.1.2.4 0 .5-.1 0-.1.1-.1.2v4.8c0 .1 0 .2.1.2s.2 0 .2-.1c0-.2.1-.4.1-.602 0-.2.1-.5.2-.7.1-.2.2-.5.4-.7.1-.2.3-.4.4-.6.3-.398.5-.698.6-1.198 0 .2 0 .3.1.5 0 .1 0 .1.1.2.1 0 .1-.1.2-.1.3-.3.4-.6.4-.9v-.1c0 .4 0 .8-.1 1.1-.1.2-.2.5-.3.7 0 0 0 .1-.1.2h.2c.2 0 .4-.1.6-.1h.4c-1.1.3-1.7 1-1.9 2.1.4-.1.8-.2 1.1.2-.1 0-.2 0-.3.1-.9.2-1.5.8-2 1.6-.3 0-.4.3-.6.7v-.4c.1.1.1.2 0 .4z"/>
        <path fill="#FCFCFC" d="M51.7 72.6c.7 0 1.3.6 1.3 1.3 0 .5-.3.8-.7 1.1h-.1c-.3-.2-.7-.2-1 0h-.1c-.5-.2-.7-.8-.7-1.3.1-.5.5-.9 1-1 .1-.1.2-.1.3-.1z"/>
        <path fill="#FBFBFC" d="M51.7 71.7c.4 0 .7.2 1 .4v.1c-.1.1-.1.2-.2.3 0 .1-.1.1-.1 0-.4-.3-.9-.3-1.4-.1h-.1c-.1-.1-.1-.2-.2-.3V72c.3-.2.7-.3 1-.3z"/>
      </g>
      <g>
        <path fill="#FFF" d="M46.5 84.4c0 .5-.3.9-.7.9-.4 0-.7-.4-.7-.9v-14c0-.5.3-.9.7-.9.4 0 .7.4.7.9v14z"/>
        <path fill="#839DC2" d="M44.1 85.4s-.2-1.1.9-1.6c0 0 3.3-1 3-3.5 0 0 0-1.1-1.5-2v1.9s.3 1.4-1.5 1.6c0 0-3 .5-2.4 2.6 0 0 .7 1.5 1.5 1zm2.4-14.5s4.4 2.8.2 4.8c0 0-1.9.5-1.7 3.4 0 0-3.3-1.9 0-4.4 0 0 2.3-.6 1.4-1.9v-1.9h.1z"/>
        <path fill="#FBFBFC" d="M38.6 74.2c.5-.2.9-.5 1.2-.9-.7 0-1.4 0-2-.2.1 0 3.4-.6 3.6-.7l-.5.5c-.4.3-.8.7-1.1 1-.2.2-.4.3-.6.3-.3.1-.4.1-.6 0z"/>
        <path fill="#839DC2" d="M39.3 72.4c.8.2 2.4-.1 2.4-.1.3.1-1.1 1.2-1.1 1.2l1 .2 2.1-1.9h1.4v-1.5H43c-2.6-.5-3.7 2.1-3.7 2.1zM42 71c-.4 0-.5.7-.5.7-.4-.3-.8-.1-.8-.1C41 71 42 71 42 71z"/>
      </g>
      <g>
        <path fill="#FFF" d="M40.6 83.1l3.1-4.1-1-1.2-2.7 3.3.6 2zm.5-1.6c0 .2-.2.4-.4.4s-.4-.2-.4-.4.2-.4.4-.4c.2.1.4.2.4.4z"/>
        <path fill="#FFF" d="M40.4 80.1l-1.8-2.4-1.3 1.1 2.9 4.3-.6-2m.2-5.1v2.7l.8 1.1.9-1.1V76l-.9-1"/>
      </g>
    </g>
  </g>
  <g>
    <path fill="#849EC3" stroke="#000" stroke-width="0.3584" d="M30.2 74.2s-3.9 5.4-7.6 2.7c0 0 .5 3.8 4.7 1.5 0 0-3.4 3.8-6 1 0 0 .1 4.4 4.8 1.4 0 0-2.1 3.5-5.4 2.4 0 0 2 2.7 3.9.9 0 0-1.5 3.1-3.6 2.898 0 0 2 2 2.9-.1 0 0-1.9 5 1.4 8.9 0 0-1.1-3.8.2-6.8 0 0-.7 2.6 3.2 3.4 0 0-1.9-2.2-2-4.8 0 0 2.3 4.398 4.6 2.198 0 0-3.4-1.5-3.3-5.9 0 0 2.3 4 5 1.9 0 0-5.6-2.3-2.5-8.6 3.1-6.4.1-.1.1-.1l.8-3-.3-.7-.9.804z"/>
    <path fill="#F5E7D9" stroke="#000" stroke-width="0.5949" d="M37.9 66.2l-.2-.7-.2-.7-3.1-2.1-1.4.1-1.4.1 2.5 2.7s-.3.6-.6 1.4l-.9 3.4v.8c-.1.1-.5.3-.9.5s-.7.5-.7.9c0 0-.4.398-.8.8-.4.398-.7.898-.6 1l.1.1c.1 0 .2-.2.7-.5l.1-.1.1-.102-.1.802-.1.8-.4.4c-.2.3-.1.2-.2.5s-.6 1-.5 1.2c0 .2.2.2.6-.3 0 0 .3-.2.8-.5s.8-.6 1.3-.8c0 0 .5-.5.7-.9.2-.4.4-.6.5-1.5 0 0 .1-.3.4-.8.3-.5.7-1.1 1.3-1.6l.3-.602 2.7-4.298"/>
    <path fill="none" stroke="#000" stroke-width="0.397" d="M29.8 77.5l1.9-2.7-1.4 2.3z"/>
  </g>
  <g>
    <g>
      <path fill="#FFD38D" stroke="#000" stroke-width="0.5949" d="M99.6 117.8s2.3 2 4.1 1.2l.8-1.1-2.5-1.2-2.4 1.1zm-9.7.2s-.6 2.1-1.8 2.1c0 0-1.8-.4-2.6-1.6l1.3-1.8s3.3.8 3.1 1.2v.1z"/>
    </g>
    <path fill="#FFE8C7" stroke="#000" stroke-width="0.5949" d="M89 47l-3 2.3-.9 3.7.7 2.6s5.7 1.3 6.4 1.3c.7 0 3.9.6 3.9.6s2-1.1 2.6-2.6c.6-1.5.7-4.5.7-4.5l-3-2.4-2.4-3.3-3-1.1-2.4 1.5.4 1.9z"/>
    <g>
      <path fill="#FFF" stroke="#000" stroke-width="0.5949" d="M88.8 56c.3 0 5.4-1 5.7.2s4.7 2.6 4.9 3.4c.3.8 2.8 4 3 5.4.3 1.4.8 5.4.8 5.4s-5.6 5.2-6 4.898C96.7 75 86 68.2 85.9 67.2c-.1-1.1 2.9-11.2 2.9-11.2z"/>
      <path fill="#FFF" stroke="#000" stroke-width="0.5949" d="M85 62.2l-3.4 2.7-1.5 6.6L78.9 92s-.5 4-.1 5.3c.4 1.2.2 10.4 2 10.8 1.7.4 6.5-.5 6.7-1.3.2-.9 3.7-12.5 3.4-15.2-.2-2.7-2.8-21.2-2.9-21.9-.2-.9-3-7.5-3-7.5z"/>
      <path fill="#FFF" stroke="#000" stroke-width="0.5949" d="M105.2 119.1l-2.9-2.5-1.7.9-6.5.3-.8.6c-6.4-2.3-8.3.2-8.3.2-2.2-1.7-1.1-28.6-1.1-28.6-1.1-7.1-.7-16.2-.7-16.2l1.5-7.9s8.5-1.4 8.9-1c.4.3 4.5 1.7 4.5 1.7l2.5 15.7s.5 21.3 3.2 25.5l1.4 11.3z"/>
      <path fill="#FFF" stroke="#000" stroke-width="0.5949" d="M84.6 58.8l3.5-.8s2.7 2.8 7.9.1l1 3.2s2.3 6.4 1.3 7c0 0 .5-1.6-.4-1.6-.9-.1-1.3-.9-1.9-.7-.5.2-2.1-1.4-3.7-1.1-1.6.3-2.6.6-3 .5-.3-.1-2.1.2-2.6.3s-1.3.4-1.7.2c-.4-.1-1.3-3-1.5-5.2-.1-2.1.6-2 1.1-1.9zm22 10l-3 38.5s-5-22.4-4.1-28l-.2-4.3s7.3-8.1 7.3-6.2z"/>
      <path fill="#FFF" stroke="#000" stroke-width="0.5949" d="M105.2 87.3s5.5 28 5.3 27.6c-.2-.4-5 4.5-5 4.5l-.9-4-1.3-8.9 1.9-19.2zm-27.3 13.2s-1.1 13.6-1.6 15c0 0 2.4 2.5 8.2.8.1 1.1-2.8-26.2-5-30.2 0 0 .4 9.4-1.6 14.4z"/>
      <g>
        <path fill="#9D0933" d="M105.3 117.2l4.6-3.7-.2-1.2-4.7 3.5c-.1.1.3 1.4.3 1.4m-2.9-3l1.8.8.3 1.5-1.5-.6-.6-1.7m-6.8 1.1l-2.7-.4.2.9.4.9 2.6-.2 2.6-.1 1.4-.1 1.8-1.1-.5-1.3-1.5 1.1-3.8.2-.5.1m-7.3-.1s2.3-.3 4.2.5l.3 1.2s-3-1.2-4.1-.5l-.4-1.2m-3.7 0s.8-1 2.7-.7l.3 1s-3.3.5-3 1.5c.2 1 0-1.8 0-1.8m-7.8-.5s2.5-.7 7.3 0l-.1-1.5s-4.8-.8-7 .3l-.2 1.2"/>
      </g>
      <g>
        <path d="M103.8 117.8S95.7 97.3 95 93.4c0 0 6.8 23.6 7.9 23.7 1.1 0 .9.7.9.7M88.6 90.1s3.4 26.6 5.5 27.4l-.8.9s-4.7-16-4.7-28.3m8.9-7.4s2.5 14.7 4.1 15.7l.7 5c.1-.1-4.3-9.4-4.8-20.7m-8.4 34.5s-.5-1.3-1.3-3.5c-1.5-4.5-4-12.6-4.2-19 0 0 2.9 21.2 4.9 22.3 2 1.1-.1.1.6.2"/>
      </g>
      <path d="M96.7 66l-.2-2-.4 1.7-1.4-.7-.2-1.9-.2 1.8-2.8-.3s.7-1.3.3-2.1c0 0-.2 2.2-.8 2.3l-1.4.2s-.6 0-1.1-1.1c-.6-1.1 0 1.1.6 1.1s-2.1.4-2.1.4-1-2.2-1-2.6c0-.4.6 2.5.6 2.5l-1.8.3.3.3 1.3-.2 3.9-.4 2.9-.3s2.9 1.3 3.1 1.3c.2-.1.8.2.4-.3"/>
    </g>
    <path fill="#F5E7D9" stroke="#000" stroke-width="0.5949" d="M89.2 55.2c.7-1.3-.1-4.6-.1-4.6l-.1-.4 5.2-.1s-.7 3.9 0 5.2c0 0-.5 2.6-2.5 2.3.1-.1-1 .2-2.5-2.4z"/>
    <g>
      <path fill="#FFF" stroke="#000" stroke-width="0.4755" d="M100.3 66.6s.4 1.6.8 1.9.4 1.9-.4 2.1c-.8.2-1.1 1.8-1.1 1.8s1 2 .8 2.5c0 0 4.8-2 5.6-4.1l.3-1.9c-.1-.1-4.5-3.4-6-2.3z"/>
      <path fill="#FFF" stroke="#000" stroke-width="0.496" d="M94.2 53.6s4 2.8 6 3.1c0 0 2 .8 2 2.7 0 0 .5 2 1.1 2.7.5.7 1.9 3.6 1.9 4 0 .4 1.2 1.3 1.5 2.2.3.9-.1 2.4-.1 2.4s-1.7-1.9-3.5-2.6c-1.8-.7-9.3-7-10.5-10.602 0 0 1.1-.5 1.3-1.5l.3-.9c.1.102-.7-.998 0-1.498z"/>
      <path fill="#9D0933" d="M93.6 57.1s4.2 8.7 13 11.7l-.1-.7-.4-.3S96.9 63.4 94 56.5l-.4.6"/>
    </g>
    <g>
      <path fill="#FFF" stroke="#000" stroke-width="0.4755" d="M84.1 63.3l-.7 2-1-.2-.6 1.2.1 1.3s-2.4.7-2.3 1.9l-.1-3.2-1.2-.1V65s5.5-3.6 5.8-1.7z"/>
      <path fill="#FFF" stroke="#000" stroke-width="0.496" d="M76.1 66.1c-.1-.4 1.1-1.6 2.7-3.7 1.6-2 1.8-2.7 2.6-3.7s1.6-2.2 1.6-2.2c2-.1 6.3-2.9 6.3-2.9l-.1 1.4v.1s1.1 2.3 1.9 2.3c0 0-1.9 3-7.8 5.6 0 0-4.5 2.4-5.1 3.1h-2.1z"/>
      <path fill="#9D0933" d="M89.8 56.6s-1.7 1.9-2.8 2.6-9 4.6-9.9 5.7l-.6.9s-.4 0 1.9-1.2c0 0 3.7-2 5.7-3.2 2-1.1 4.1-2 6-4.4l-.3-.4"/>
    </g>
    <g>
      <path fill="#FFD38D" stroke="#000" stroke-width="0.4755" d="M97.1 78.2l-.4 1.3s1.9.4 3.8-1.3c0 0-.5-.3-1.4-1.2.1 0-.9 1.3-2 1.2z"/>
      <ellipse cx="95.982" cy="72.418" fill="#FFD38D" stroke="#000" stroke-width="0.496" transform="rotate(-117.02 95.977 72.415)" rx="2.1" ry="4.8"/>
      <path fill="#FFD38D" stroke="#000" stroke-width="0.4755" d="M92 74.9s6.6 3.7 8.4-3.6c0 0-2.4 4.3-8.4 3.6z"/>
    </g>
    <g>
      <path fill="#31556D" stroke="#000" stroke-width="0.4755" d="M86.7 72.2s3.1-6.2 9.6-1.9c0 0 2.5.9 1.2 3.3l-1.1-1.1s.4.9-.1 1.6c0 0-.9 0-1.2-.6-.3-.6-.5-.7-.6-1.9 0 0-2.3-1.3-4.2-.3 0 0-1.9.8-1.9 2.5s-2.5-.6-1.7-1.6z"/>
      <path d="M96.5 71s.9.6.6 1.2c0 0-.5-.4-.5-.5-.1-.1.3-.6-.1-.7m-1.8.5s.3-.5-.1-.8l.6.4s-.7 2.3 1.1 2.8c0 .1-1.5.4-1.6-2.4"/>
    </g>
    <g>
      <path fill="#F5E7D9" stroke="#000" stroke-width="0.4755" d="M83.9 72.2c.5-.1 2.9.1 2.9.1s.3.4-.8.5l1.3-.1s1.4.6 1.4.9c0 0 .1.5-.3.4 0 0 .4.6-.1 1 0 0 .5.7-.3 1 0 0-.3.7-1 .6-.6-.1-.6.2-.6.2s-2.7.1-3.2-1c-.4-.9.1-3.5.7-3.6z"/>
      <path d="M88.3 73.9l-1.6-.4s2.8.6 1.6 1.3l-1.8-.3s2 .4 1.9.8c0 0 .3 1.3-2.1.3 0 0 2.2.6 1.4.8l.3-.2.4-.3.2-.6-.2-.2.2-.3.1-.4-.4-.5"/>
    </g>
    <g>
      <path fill="#31556D" stroke="#000" stroke-width="0.4755" d="M80.6 74s-2.1 1.7-.7 5.5c0 0 2.1 3.9 1.5 5.2 0 0-1.4 2.7 1.2 1.8-.1-.3 1.9-1.7-.5-5.6 0 0-1.6-2.6-.7-3.9l-.1-2.8-.5-.6-.2.4z"/>
      <path fill="#31556D" stroke="#000" stroke-width="0.4755" d="M84.5 70.8s.9-3.8-2.8-3c0 0-2.8.3-2 3.6 0 0-.1 2.8 2 2.2l.4-.7s-1.9-1.1.1-2.4c0 0 1.1-.7 1.3.9-.1-.1.4-.7 1-.6z"/>
      <path fill="#31556D" stroke="#000" stroke-width="0.4755" d="M86 71.8s-1.7-2.9-4.1.7c0 0-2.8 6 3.2 5.5 0 0 1.4-.3 1.3-1.1l-1.4-.8s-2.3-.3-1.5-2.2c0 0 .3-.9 1.5-1.2 1.1-.3 1-.9 1-.9z"/>
    </g>
    <g>
      <path fill="#F5E7D9" stroke="#000" stroke-width="0.1979" d="M95.7 75.9s-.3 1 .6 1c0 0-.2.4.6.6 0 0-.3.8.7.7 0 0 1.5-.1 2.5-2.9v-1.5l-.5-.8c0-.1-1.1 2.3-3.9 2.9"/>
      <path d="M95.9 75.9s-.3.7.7.6c0 0 .4.2 1.2-.6 0 0-.1.6-1.4 1.1 0 0-.2.4.4.4 0 0 .6-.1 1.3-.5 0 0-1 .7-1.2.7 0 0-.1 1 1.8-.1 0 0-1.3 1.5-1.9.3v-.2s-.6 0-.5-.5c.1-.5 0-.1 0-.1h-.2s-.6-.1-.5-.9c.2-.9.3-.2.3-.2"/>
    </g>
    <g>
      <path fill="#F5E7D9" stroke="#000" stroke-width="0.5949" d="M88.7 47.9s.1 4.5 2.9 5.7c0 0 2.9.3 3.5-6l-.2-3.1-6.2-.1v3.5z"/>
      <path d="M91.3 47.1s-1.6-.6-2.3-.1l-.3.3s1.6-.5 2.5 0l.1-.2m.8 0s1.5-.6 2.2-.1l.3.3s-1.5-.5-2.4 0l-.1-.2"/>
      <path stroke="#000" stroke-width="0.1146" d="M90.9 47.7s0-.1-.4-.2c-.3-.1-.8-.1-1.5.3 0 0 .3-.1.7-.2.4-.1.7-.3.9.1h.3z"/>
      <ellipse cx="90" cy="47.7" stroke="#000" stroke-width="0.1146" rx="0.4" ry="0.2"/>
      <path stroke="#000" stroke-width="0.1146" d="M92.6 47.8s.6-.9 1.9 0c0 0-1.4-.6-1.9 0"/>
      <ellipse cx="93.5" cy="47.7" stroke="#000" stroke-width="0.1146" rx="0.4" ry="0.2"/>
      <path d="M90.7 50.8h2.2c-.2.1-.4.1-.5.1h-1.3s-.1 0-.4-.1c.1.1 0 0 0 0-.1 0-.1 0 0 0m.5.7l.1.2h1l.2-.2c-.1-.1-.9.1-1.3 0m.1-1.8l-.1.1h.8s.2.1.2 0"/>
    </g>
    <g>
      <g>
        <path fill="#FFE8C7" stroke="#000" stroke-width="0.4755" d="M88.7 45.9l2.5-.7s-.2 1.5-2.2 3l-.7.2c-2.6 2.2-2.2 3.3-2.1 4.6.1 1.3.9 2 .9 2-1.2 1.1-1.8.6-2.2-.2-.3-.8-.4-1.9-.4-1.9-.2 1.1.1 1.8.5 2.3.3.4.7.6.7.6l-1.2.6-.1-.1V56c-1.6-2.9-.8-5.3.4-7 1.2-1.7 2.8-2.6 2.8-2.6l.7-.4.4-.1z"/>
        <path d="M88.9 45.8s-.7.6-.9.8c-.2.2-1.6 1.5-2 1.8 0 0 .5-.5 1.5-1s1.4-1 1.5-1.3l-.1-.3"/>
      </g>
      <g>
        <path fill="#FFE8C7" stroke="#000" stroke-width="0.4755" d="M95.6 45.9l-2.6-.7s.2 1.5 2.2 3l.7.2c2.6 2.2 2.2 3.3 2.1 4.6s-.9 2-.9 2c1.2 1.1 1.8.6 2.2-.2.3-.8.4-1.9.4-1.9.2 1.1-.1 1.8-.5 2.3-.3.4-.7.6-.7.6l.6.302.6.3.1-.1.1-.1c1.6-2.9.8-5.3-.4-7s-2.8-2.6-2.8-2.6l-.4-.2-.4-.402-.3-.1z"/>
        <path d="M95.5 45.8s.7.6.9.8c.2.2 1.6 1.5 2 1.8 0 0-.5-.5-1.5-1s-1.4-1-1.5-1.3l.1-.3"/>
      </g>
    </g>
    <path fill="#FFD38D" stroke="#000" stroke-width="0.4755" d="M87.8 46.2s3.4-2.5 8.5-.3c0 0 .8-1 .2-1.2-.5-.2-.1-.4-.1-.4l-.7-.1 1.5-1.5-1.2-.3.3-1.6-1.9.9-.6.6-.3-.2.3-1-.5-.6.1-.8-.9.1-.9-1.4-.6 1.3-.9-.5.1 1.3-.8.1.3.7.6.3-.5.7-.3-.8-2-1-.1 2h-.9l1.3 1.5-.9.2.5.4c0 .1-.7.7.4 1.6z"/>
  </g>
  <g>
    <path fill="#31556D" stroke="#000" stroke-width="0.7132" d="M46.1 21.4L45 22.9h-1.4l-2 14.8s2.6-1.2 7.7-1.9 12.7-1 23.4 1.7L71 22.7l-.7-.1-.7-.1-.7-.9-.7-.9s-4.2-1-9.1-1.4c-4.8-.5-10.4-.3-13 2.1z"/>
    <path fill="#849EC3" stroke="#000" stroke-width="0.4755" d="M45 22.9L43.4 36l27.8-.3-1.6-12.8-1.1-1.7-11.1-2.1-10.9 1.7z"/>
    <path fill="#FFF" stroke="#000" stroke-width="0.7132" d="M57.4 19.1s-6.5-1-11.1 1.7l-1.4 13.9 24.9-.2-1.7-14.1c0-.1-6.3-1.9-10.7-1.3z"/>
    <path fill="#31556D" stroke="#000" stroke-width="0.5949" d="M72.2 31.5s1.3.2 1.4.4l.1 1.7s-1.2-.2-1.3-.1l-.2-2zm-.8-7.4l1.6.6.1 1.8s-1.1-.2-1.4-.4l-.3-2z"/>
    <path fill="#31556D" stroke="#000" stroke-width="0.543" d="M42.3 31.5l-1 .2-.2 2.2 1-.4z"/>
    <path fill="#31556D" stroke="#000" stroke-width="0.5949" d="M43.2 24.4l-1.6.4-.3 2.1s1.2-.8 1.7-.8l.2-1.7z"/>
  </g>
  <g>
    <path fill="#849EC3" stroke="#000" stroke-width="0.5949" d="M50.7 37.2L45 48.8h24.5l-4.7-11.7z"/>
    <path fill="#849EC3" stroke="#000" stroke-width="0.5949" d="M45.8 49.4s4.1 9.8 3.6 10.3l-1.7 4.2s4.3 3.2 9.3 3.2c0 0 4 1 9.8-3.1l-1.7-4.6 3.5-10.2s-10.3-4.1-11.3-3.9c.1.1-7.2 2.2-11.5 4.1z"/>
    <path fill="#31556D" d="M57.5 45.6l5 1.6-1 4.7-4.1 3-4.3-2.8-1.2-4.7"/>
    <path d="M51.8 47.1l1.3 5 4.3 2.7 4.1-2.9 1.1-5.2 2.7.8-2.3 1.2-.6 3.4-5 3.4-4.9-2.8-1.1-3.9-2.8-.7"/>
    <path stroke="#000" stroke-width="0.1979" d="M57.2 57l.2 3.7.2-3.7z"/>
    <path d="M49.8 47.7s1.8 6.3 1.6 6.2c-.2-.1 5.9 3.6 5.9 3.6l6.5-4.1.5-5.9-.4-.2-.7 5.6-5.9 3.8-5.4-3.3-1.7-5.9"/>
    <path fill="#849EC3" stroke="#000" stroke-width="0.5949" d="M57.4 68.6c5.4-.1 10-2.7 10-2.7l.5.9.9-.2.4-1.7-2.4-1.2c-4.7 3.8-9.4 3.3-9.4 3.3h-.2s-5 .5-9.6-3.3l-2.4 1.2.4 1.7.9.2.5-.9c.1 0 4.9 2.6 10.4 2.7z"/>
    <g>
      <g>
        <path d="M51.1 45.9l-.6-3.7-.2.1.2 3.8.6-.2"/>
        <path fill="none" stroke="#000" stroke-width="0.1979" d="M51.1 45.9l-.6-3.7-.6.3.2 3.8z"/>
      </g>
      <g>
        <path d="M51.6 40.4l1.3.5.5 4.5-.5.1-1.3-5.1"/>
        <path fill="none" stroke="#000" stroke-width="0.1979" d="M52.4 45.6l1-.2-.6-5.3-1.2.3z"/>
      </g>
      <g>
        <path d="M54.3 39.6l1 .3.6 4.7-.5.1-1.1-5.1"/>
        <path fill="none" stroke="#000" stroke-width="0.1979" d="M55.2 39.2l-1 .3.8 5.4s.9-.2.9-.3c0-.1-.7-5.4-.7-5.4z"/>
      </g>
      <g>
        <path d="M60.3 39.5l-.8.4-.5 4.8.4.1.9-5.3"/>
        <path fill="none" stroke="#000" stroke-width="0.1979" d="M59.5 39.1c.1.1.9.4.9.4L60 45l-1-.3.5-5.6z"/>
      </g>
      <g>
        <path d="M63.1 40.3l-1.3.5-.5 4.5.5.1 1.3-5.1"/>
        <path fill="none" stroke="#000" stroke-width="0.1979" d="M61.9 39.9l1.2.4-.6 5.3-1.2-.3z"/>
      </g>
      <g>
        <path d="M64.1 46.1l.7-4.5-.3-.2-.9 4.5.5.2"/>
        <path fill="none" stroke="#000" stroke-width="0.1979" d="M63.6 45.9l1.2.3.7-4.4-1-.4z"/>
      </g>
    </g>
    <g>
      <path fill="#31556D" stroke="#000" stroke-width="0.397" d="M67.7 40.2s2.5-3.1-3.6-4.1c0 0 2.1 2.3 1.6 2.9-.6.5 2 1.2 2 1.2z"/>
      <path fill="#849EC3" stroke="#000" stroke-width="0.5949" d="M59.1 35.1c1.7 1.1 2.5 2.8 2.5 2.8 2.3-.2 3.7 1.9 4.1 1 0 0-.1-1.4-1.7-3-.1.1-2.3-.8-4.9-.8"/>
      <path fill="#31556D" stroke="#000" stroke-width="0.397" d="M61.4 37.9l-3.8-.5s-1.9-2.1-3.1-2.3h4.6s2.9 2.8 2.3 2.8z"/>
      <path fill="#849EC3" stroke="#000" stroke-width="0.5949" d="M57.6 37.4s-3.6.2-4.2.4c0 0-2-2-2.9-2-.8 0 3.1-1 4-.8.8.4 3.1 2.4 3.1 2.4z"/>
      <path fill="#31556D" stroke="#000" stroke-width="0.397" d="M50.5 35.9s-3.1.8-3.5 1.3 3.1.8 2.8 1.5c-.3.7 3.3-.7 3.6-.8.3-.1-2.2-1.9-2.9-2z"/>
      <path fill="#849EC3" stroke="#000" stroke-width="0.5949" d="M46.9 37.3s-2.2 2.4.5 3.2l2.5-1.7c-.1 0 .5-.5-3-1.5z"/>
    </g>
  </g>
  <g>
    <path fill="#31556D" stroke="#000" stroke-width="0.5949" d="M73.8 61.5s3.8-5-.7-10.7c0 0 4.4 6 9.2 3.1 0 0 .9-4.2-2.8-5 0 0 3.6-.5 1.1-4.1 0 0-4.8 2.6-6.5.6l4.4-1.3s2.5-2.1 2.4-2.6.3-5.8.3-5.8l-3-2.7-3.2.4-1.3 2.1s2.3-1.8 3.8.9-5 4.9-8.7 2.6c-3.6-2.3-4-3.3-6.1-3.5.1 0 10.3 25.9 11.1 26z"/>
    <path fill="#849EC3" stroke="#000" stroke-width="0.5949" d="M74 45.4s6.5-1.6 5.9-7.2c-.6-5.7-5.7-3.8-5.7-3.8s2.6-8.4 7.3-1.4c0 0-.6-5-4-6.8-3.4-1.7-1.1-2.5.1-2.4 0 0-5.4-3.1-7.4-4.9s4.4-5.5 8-2.8c0 0 2.4 3.1 2.3 4.7 0 0-2.8-9.3 7.7-6.1l.1 6.6s3.8-5.2 3.3-1.3c0 0 1.6-2.2 3.7-2.1 2.1.1 2.8 2.1 2.8 2.1L90 29.7s7.7-4.8 6.5 1.1c0 0 3.8.1 3.1 5.1 0 0-7.7-6.4-16 2.6 0 0 2.7.602 2 3.9 0 0-2.4-.9-7.1 2.5.1 0-2.8 1.4-4.5.5z"/>
    <path fill="#31556D" stroke="#000" stroke-width="0.5949" d="M73.7 9.5s6.1 1.1 2.3 5.1c0 0 3.9 4.2-2.3 5.8 0 0 1.7-2.7-1.6-2.6 0 0-2.3.5 0 2.7 0 0-4.9-2.4-1.7-6.1 3.3-3.6 3.7-3.1 3.3-4.9zm11.2 2.9c.4 0 3.8.9 4.3 4.3s-1.3 8.9-4.2 12.1c0 0 .9-.4.3-2-.6-1.6-3.9-3.5 0-7.5 0 0-4.1 2.2-4.2-2.1l1.3-1.8s1.1 2.6 2.7.1c0 0 .4-2.4-3-1.8 0 0 .7-1.1 2.8-1.3zm8.9 5.1s5.4-5.1 10.1-.6c0 0 1.6.9 2.8 7.7 0 0 .8 2.4 2.1 2.5 0 0-4.9 3.1-5.9-1.7 0 0 .9 4.3-4.5 6.3 0 0-1.7-4.9.9-7.7 0 0-1.5 2.8-3.8 2.8-2.3.1-5.8-2.9-1.4-6.3 0 0 2.1 4.1 3.8-1 0 0-.9-2.3-3.8-1.3l-.3-.7z"/>
    <path fill="#849EC3" stroke="#000" stroke-width="0.5949" d="M62.6 35.5s7.3 24.9 11 25.4c0 0-4.8-13.7-4-14.1l1.9-1.3c.1 0-4.8-7.8-8.9-10z"/>
  </g>
  <g>
    <path fill="#31556D" stroke="#000" stroke-width="0.5949" d="M41 61.5s-3.8-5 .7-10.7c0 0-4.4 6-9.2 3.1 0 0-.9-4.2 2.8-5 0 0-3.6-.5-1.1-4.1 0 0 4.8 2.6 6.5.6l-4.4-1.3s-2.5-2.1-2.4-2.6-.3-5.8-.3-5.8l3-2.7 3.2.3 1.3 2.1s-2.3-1.8-3.8.9 5 4.9 8.7 2.6c3.6-2.3 4.2-3.1 6.3-3.3-.2.1-10.5 25.8-11.3 25.9z"/>
    <path fill="#849EC3" stroke="#000" stroke-width="0.5949" d="M40.7 45.4s-6.5-1.6-5.9-7.2c.6-5.7 5.7-3.8 5.7-3.8S37.9 26 33.2 33c0 0 .6-5 4.1-6.8 3.4-1.7 1.1-2.5-.1-2.4 0 0 5.4-3.1 7.4-4.9s-4.4-5.5-8-2.8c0 0-2.4 3.1-2.3 4.7 0 0 2.8-9.3-7.7-6.1l-.1 6.6s-3.8-5.2-3.3-1.3c0 0-1.6-2.2-3.7-2.1-2.1.1-2.7 2.3-2.7 2.3l7.4 9.2s-7.1-4.4-5.9 1.5c0 0-3.8.1-3.1 5.1 20.8-17.3 12.1-1.6 16 2.6 0 0-2.7.6-2 3.9 0 0 2.4-.9 7.1 2.5-.1-.1 2.8 1.3 4.4.4z"/>
    <path fill="#31556D" stroke="#000" stroke-width="0.5949" d="M41.1 9.5s-6.1 1.1-2.3 5.1c0 0-3.9 4.2 2.3 5.8 0 0-1.7-2.7 1.6-2.6 0 0 2.3.5 0 2.7 0 0 4.9-2.4 1.7-6.1-3.3-3.6-3.7-3.1-3.3-4.9zm-11.3 2.9c-.4 0-3.8.9-4.3 4.3s.9 8.8 3.8 12c0 0-.5-.4.1-1.9.6-1.6 3.9-3.5 0-7.5 0 0 4.1 2.2 4.2-2.1l-1.3-1.8s-1.1 2.6-2.7.1c0 0-.4-2.4 3-1.8.1 0-.6-1.1-2.8-1.3zM21 17.5s-5.4-5.1-10.1-.6c0 0-1.6.9-2.8 7.7 0 0-.8 2.4-2.1 2.5 0 0 4.9 3.1 5.9-1.7 0 0-1.2 4.2 4.2 6.3 0 0 2-4.9-.6-7.6 0 0 1.5 2.8 3.8 2.8s5.8-2.9 1.4-6.3c0 0-2.1 4.1-3.8-1 0 0 .9-2.3 3.8-1.3l.3-.8z"/>
    <path fill="#849EC3" stroke="#000" stroke-width="0.5949" d="M52.1 35.9s-7.3 24.5-11 25c0 0 4.8-13.7 4-14.1l-1.9-1.3s4.8-7.3 8.9-9.6z"/>
  </g>
  <g>
    <path fill="#849EC3" stroke="#000" stroke-width="0.4755" d="M57.1 23l-3.2 2.5h6.5z"/>
    <circle cx="57.2" cy="22.8" r="0.9" fill="#849EC3" stroke="#000" stroke-width="0.4755"/>
    <path fill="#849EC3" stroke="#000" stroke-width="0.4755" d="M48.5 26.5l3-.9s-.3-1.1 1.5-1.3c0 0-.3-1.2-2-.6 0 0 1.5-1.9-1.5-2.4 0 0 .5 1.7-.9 2.2 0 0 0-1.3-1.7-.9 0 0 1 1 .8 1.4-.2.4.8 2.5.8 2.5z"/>
    <path fill="#849EC3" stroke="#000" stroke-width="0.4755" d="M63.4 28s0 1.6-1.1 1.6m.6-4.2s.8.8.3.9m2.8-2.4L64.4 26s.7 1.3.1 2l2.3.4s.4-3.4-.8-4.5zm-17.9 1.8l14.8-.3 2.4-3.6s3.9 2.6 2.3 8l-15.5-.5c.1-.1-3.9.6-4-3.6z"/>
    <path fill="#849EC3" stroke="#000" stroke-width="0.4755" d="M60.3 31.6l-2.1-.1m-3.8-.1h2.1m-.7-1.9l-1.4 1.9-.7.2.2.8 6.7.2.4-.6-.3-.5-.6-.3-1-1.7h-3.3z"/>
  </g>
  <g>
    <path fill="#FFF" stroke="#000" stroke-width="0.5732" d="M19.1 8.7c2.5-.9 2.5-1 7.2-2.4C30.4 5 36.4 3.4 43.5 2.4c0 0 11.2-2 28.1 0 7.1 1 13.1 2.6 17.2 3.9 4.2 1.3 6.5 2.4 6.5 2.4l.1.3v.9s-.2 0-.6.2c-.3.2-.7.4-1 .9-.3.5-.6 1.1-.6 2 0 .9.2 2.1.8 3.5 0 0-2.3-1.1-6.4-2.5-4.1-1.4-9.9-3.1-16.8-4.2-16.5-2.2-27.4 0-27.4 0-7 1.1-12.8 2.8-16.8 4.2-4.1 1.4-6.4 2.5-6.4 2.5.6-1.5.8-2.6.8-3.5 0-.9-.3-1.6-.6-2-.3-.5-.7-.7-1-.9-.3-.2-.6-.2-.6-.2v-1l.3-.2z"/>
    <g>
      <path d="M26.8 11.6c-1 .4-2-.1-2.4-1-.3-1 .2-1.9 1.2-2.3.5-.2.8-.1 1-.2l.1-.1s0 .2.1.5v.2h-.1v-.1c0-.1-.1-.2-.3-.2-.3-.1-.6 0-.9.1-.7.3-1.1 1.1-.8 1.9.3.9 1.2 1.4 2 1.1.5-.2.7-.4.8-.8 0-.2 0-.2.1-.2 0 .1 0 .3.1.7-.3 0-.5.2-.9.4m3-3.1c.1.4.4.8.7 1 .4.3.9.4 1.4.3.7-.2 1.1-.9.8-1.7-.3-.9-1.2-1.5-2-1.3-.8.2-1.1.9-.9 1.7m1-1.9c1-.3 1.9.2 2.2 1.2s-.3 2-1.3 2.2c-1 .3-1.9-.3-2.2-1.3-.3-.9.3-1.8 1.3-2.1zm4.6-.5l.1.5c.3 1.3.4 2 .5 2.1.2.1.5 0 .6.1-.1 0-.3 0-.5.1-.2 0-.4.1-.5.1h-.1c0-.1.1-.1.2-.1.1-.1.1-.1.1-.3l-.1-.2c0-.2-.1-.5-.1-.7l-.1-.4c-.2-.9-.3-1.3-.4-1.4-.2-.1-.4 0-.4-.1.1 0 .2 0 .3-.1.1 0 .2 0 .3-.1.6.5 1.7 1.198 3.2 2 0-.2-.1-.5-.1-.602l-.1-.3c-.2-1-.3-1.4-.5-1.5-.1-.1-.3 0-.3 0 .1 0 .3 0 .5-.1.1.002.2-.098.3-.098h.1c0 .1-.1.1-.2.1-.1.1 0 .6.2 1.5l.1.7c.1.5.2.9.2 1v.2c-.1 0-.2-.2-.8-.7-1.2-1-2-1.4-2.5-1.7m29.7-.6l.7-.7.7.7-.7.7-.7-.7M41.4 9.2c-.1 0-.1 0-.2-.1.2-.1.2-.2.3-.2h.1c.2 0 .2-.5.1-1.6l-.1-.7c-.2-1.2-.3-1.8-.5-1.9-.2-.1-.4 0-.4-.1s0-.1.1-.1c.2 0 .4 0 .6-.1.2 0 .4-.1.6-.1h.1c0 .1-.1 0-.2.1-.2.1-.2.2-.1.7v.1c.2 1 .3 2 .5 2.9-.4.6-.6 1-.9 1.1m4-5.3c0 .1-.1.1-.3.2-.1 0-.1.2-.1.7l.1 1.4c.1.7.5 1 1.2.9.6-.1.9-.3 1.1-.6.1-.3.1-.8 0-1.7-.1-.6-.1-.9-.2-1-.1 0-.3 0-.3-.1l.1-.1h.5l.4-.1c0 .1-.4 0-.3.3v.4c.1 1.1.1 1.8 0 2.1-.1.5-.5.8-1.3.8-.9.1-1.5-.3-1.5-1 0-.1 0-.4-.1-.8-.1-.8-.2-1.3-.3-1.4-.1-.1-.3 0-.3-.1h.6c.3.1.5.1.7.1m6 1.2c.6 0 .9-.3.9-.8s-.4-.9-.9-.9c-.3 0-.4.1-.4.2V5c.1.1.2.1.4.1m1.9 1.6c.3.2.4.1.4.2h-.1c-.6 0-1.3-.5-2-1.7H51v.6c0 .6 0 .9.2.9.2.1.3 0 .3.1h-.6c-.3 0-.5.1-.5.1 0-.1 0 0 .2-.1s.2-.3.2-.7V5c0-.9-.1-1.3-.2-1.4-.1-.1-.3 0-.3-.1v-.1h.4c.3 0 .6-.1.9-.1.7 0 1.2.3 1.2.9 0 .4-.2.7-.7.9.4.8.8 1.4 1.2 1.6zM56.9 4c-.1 0-.1 0 0 0l-.6 1.3v.1h1.1v-.1L56.9 4m.6 1.6c0-.1-.1-.1-.1-.1h-1.1c-.1 0-.1 0-.1.1l-.3.7v.2c0 .3.4.2.4.3h-1s.1 0 .2-.1c.2-.1.4-.6.7-1.5.5-1.3.7-1.9.8-1.9s.1.1.1.3c.3.8.6 1.6 1 2.6.1.3.2.5.4.5.1 0 .1 0 .1.1h-1c0-.1.3 0 .3-.2v-.1l-.4-.9zm6-2.1c-.2.4-.2.6-.2.6h-.1V4c0-.2-.2-.3-.8-.3H62c0 .3-.1.7-.1 1.3-.1 1.1-.1 1.7 0 1.8 0 .1.2.1.4.1h.1V7c-.1 0-.3-.1-.6-.1H61c0-.1.4 0 .5-.1.1-.1.1-.5.1-1.4v-.5c0-.6.1-1 0-1.3H61c-.4 0-.7 0-.8.1-.1.1-.1.2-.1.2H60s.1-.2.2-.5c0-.1 0-.2.1-.2 0 0 0 .1.1.1.1.1.2.1.4.1h.9c.6 0 1.1.1 1.4.1h.4m6.4 1.4l-.7 1.2v.1h.1l1 .1v-.1l-.4-1.3m.5 1.7c0-.1-.1-.1-.1-.1l-1.1-.1c-.1 0-.1 0-.1.1l-.3.6c0 .1-.1.1-.1.2 0 .3.4.3.4.3h-.2c-.1 0-.2-.1-.4-.1h-.4s.1 0 .2-.1c.2-.1.4-.5.9-1.4.7-1.3.9-1.8 1-1.8.1 0 0 .1.1.3.2.8.4 1.7.7 2.7.1.3.1.5.3.6.1 0 .1 0 .1.1h-.1s-.2 0-.4-.1h-.5s-.1 0 0 0c0-.1.3 0 .3-.2v-.1l-.3-.9zm4.9 1c0 .2 0 .2.1.2s.7-.8 1.9-2.4c.1 0 .2 0 .3.1h.1c-.2 0-.3.3-.4.8-.2 1.3-.4 2.1-.3 2.3.1.2.4.1.3.2h-.1s-.2 0-.4-.1c-.5-.1-.8-.1-.8-.1v-.1c0-.1.1 0 .4-.1.2-.102.3-.3.3-.7 0-.2.1-.4.1-.7.1-.4.2-.9.2-1.3-1.4 1.7-1.9 2.6-1.9 2.6s0-.1-.1-.5c0-.1-.3-1-.8-2.6-.2 1.1-.4 1.8-.5 2.3v.1c-.1.3-.1.5.1.6.2.1.3.1.3.1H74s-.2-.1-.5-.1c-.3-.1-.5-.1-.6-.1 0-.1.3 0 .5-.1.1-.1.2-.4.3-.8.2-.8.3-1.3.3-1.6.1-.4.1-.6-.1-.8-.2-.1-.4-.1-.3-.2h.1s.2.1.5.1c.1 0 .2 0 .4.1 0 .8.3 1.7.7 2.8m6.1-1.3c0 .1-.2 0-.4.1-.1.1-.3.7-.6 1.9l-.1.5c-.1.5-.1.6.1.7.2.1.3.1.3.1h-.1c-.2 0-.4-.1-.7-.2-.2 0-.4-.1-.5-.1h-.1.1c.3.1.4 0 .5-.1 0-.2.1-.6.3-1.4.2-1 .3-1.5.2-1.6-.2-.1-.4-.1-.4-.2h.1c.2 0 .3.1.5.1.3.1.6.1.8.2m3.1 4.4c-1.1-.3-1.6-1.2-1.4-2.2.3-1 1.2-1.5 2.3-1.2.5.1.8.4.9.4h.1s-.1.2-.2.5c0 .1-.1.1-.1.1v-.2c0-.1 0-.2-.1-.4-.2-.2-.5-.4-.8-.5-.8-.2-1.5.3-1.7 1.2-.3 1 .2 1.8 1 2 .5.1.8 0 1.1-.3.1-.1.1-.2.2-.2 0 .1-.2.2-.3.6-.3.3-.6.3-1 .2m6.4-1c-.1-.1-.1-.1 0 0 0-.1 0-.1.1-.3s-.2-.3-.8-.5c-.2-.1-.4-.1-.7-.2-.2.4-.3.8-.4 1.2v.1c0 .1 0 .1.2.2l.2.1c.5.2.7.2.8.2l.2-.2c0 .1-.1.2-.2.4s-.1.4-.1.4 0 .1-.1.1v-.3s-.1-.3-.7-.5l-.3-.1c-.3-.1-.3-.1-.4 0l-.1.3c-.1.3-.2.6-.3 1l.6.3c.6.2.9.2 1.2-.1.1-.1.1-.2.2-.2 0 .1-.2.3-.5.7-.5-.2-.9-.3-1.1-.4-.8-.3-1.2-.4-1.3-.4 0 0-.1 0 0-.1 0-.1.2 0 .3 0 .1-.1.3-.7.7-1.9l.2-.5c.4-.2.5-.4.4-.5-.1-.1-.2-.1-.2-.2h.1s.2.1.5.2c.1 0 .7.2 1.9.6-.3.3-.3.6-.4.6"/>
    </g>
  </g>
</svg>
