<?xml version="1.0" encoding="UTF-8"?>
<svg version="1.1" xmlns="http://www.w3.org/2000/svg" width="430" height="96">
<path d="M0 0 C1.27322113 0.00424484 2.54644226 0.00848969 3.85824585 0.01286316 C7.20882845 0.0267196 10.55877271 0.05357134 13.90917969 0.0869751 C17.34174141 0.11791472 20.77436965 0.131419 24.20703125 0.14648438 C30.91683977 0.17941788 37.62635187 0.22951512 44.3359375 0.29296875 C44.42926785 7.64786609 44.50001789 15.00263247 44.54318619 22.35800552 C44.56392151 25.77469282 44.59197512 29.19097033 44.63769531 32.60742188 C44.69010897 36.54942652 44.70899886 40.49127444 44.7265625 44.43359375 C44.74720764 45.64033752 44.76785278 46.8470813 44.78912354 48.09039307 C44.79291067 62.63474911 39.84016609 73.46220233 30.0234375 84.04296875 C19.46489069 94.03587913 7.91765827 96.80736656 -6.19433594 96.71264648 C-20.31672489 96.30186618 -31.39271976 90.45584975 -41.0703125 80.23046875 C-51.43793384 67.62669378 -53.07142574 54.10588963 -51.6640625 38.29296875 C-49.41232339 25.90840366 -41.52142853 14.92054172 -31.3515625 7.63671875 C-21.20845088 1.1704851 -11.89855912 -0.15137678 0 0 Z " fill="#0FA1CB" transform="translate(51.6640625,-0.29296875)"/>
<path d="M0 0 C1.216875 -0.02191406 2.43375 -0.04382813 3.6875 -0.06640625 C7 0.5625 7 0.5625 9.421875 2.796875 C11.07804698 5.6992754 11.4460307 7.09148579 11.25 10.375 C11.21390625 11.16519531 11.1778125 11.95539062 11.140625 12.76953125 C11.09421875 13.36121094 11.0478125 13.95289063 11 14.5625 C11.59167969 14.51609375 12.18335938 14.4696875 12.79296875 14.421875 C13.58316406 14.38578125 14.37335937 14.3496875 15.1875 14.3125 C16.35345703 14.24289063 16.35345703 14.24289063 17.54296875 14.171875 C21.04478036 14.72860181 22.58882101 15.99141735 25 18.5625 C26.24303914 24.28779205 26.03128336 29.79933812 23.0625 34.875 C18.94053169 37.14628866 15.60277222 37.01375218 11 36.5625 C11.05800781 37.15417969 11.11601563 37.74585938 11.17578125 38.35546875 C11.41106269 42.47625507 11.3375633 44.94988511 9.3125 48.625 C4.23683812 51.59378336 -1.27470795 51.80553914 -7 50.5625 C-9.57108265 48.15132101 -10.83389819 46.60728036 -11.390625 43.10546875 C-11.32101563 41.93951172 -11.32101563 41.93951172 -11.25 40.75 C-11.21390625 39.95980469 -11.1778125 39.16960938 -11.140625 38.35546875 C-11.09421875 37.76378906 -11.0478125 37.17210937 -11 36.5625 C-11.59167969 36.60890625 -12.18335938 36.6553125 -12.79296875 36.703125 C-13.97826172 36.75726563 -13.97826172 36.75726563 -15.1875 36.8125 C-15.96480469 36.85890625 -16.74210937 36.9053125 -17.54296875 36.953125 C-21.06681927 36.39289439 -22.59161438 35.17298791 -25 32.5625 C-25.62890625 29.25 -25.62890625 29.25 -25.5625 25.5625 C-25.56378906 24.345625 -25.56507812 23.12875 -25.56640625 21.875 C-25 18.5625 -25 18.5625 -23.29296875 16.140625 C-20.52162522 14.2332608 -19.07649732 14.13742119 -15.75 14.3125 C-14.85796875 14.34859375 -13.9659375 14.3846875 -13.046875 14.421875 C-12.03367187 14.49148437 -12.03367187 14.49148437 -11 14.5625 C-11.04640625 13.88703125 -11.0928125 13.2115625 -11.140625 12.515625 C-11.17671875 11.62359375 -11.2128125 10.7315625 -11.25 9.8125 C-11.29640625 8.93078125 -11.3428125 8.0490625 -11.390625 7.140625 C-11 4.5625 -11 4.5625 -9.421875 2.26953125 C-6.17217086 -0.02098602 -3.94931275 -0.00418359 0 0 Z " fill="#FDFEFE" transform="translate(49,23.4375)"/>
<path d="M0 0 C2.64 0 5.28 0 8 0 C8 5.28 8 10.56 8 16 C13.28 16 18.56 16 24 16 C24 10.72 24 5.44 24 0 C26.97 0 29.94 0 33 0 C33 13.2 33 26.4 33 40 C30.03 40 27.06 40 24 40 C24 34.39 24 28.78 24 23 C18.72 23 13.44 23 8 23 C8 28.61 8 34.22 8 40 C5.03 40 2.06 40 -1 40 C-1.02464775 34.46411467 -1.04283496 28.928261 -1.05493164 23.39233398 C-1.05997244 21.5075627 -1.06680498 19.62279535 -1.07543945 17.73803711 C-1.08751617 15.03498364 -1.09323068 12.33198169 -1.09765625 9.62890625 C-1.10281754 8.78099014 -1.10797882 7.93307404 -1.11329651 7.0594635 C-1.11349195 5.03928932 -1.06206211 3.01922066 -1 1 C-0.67 0.67 -0.34 0.34 0 0 Z " fill="#070809" transform="translate(258,12)"/>
<path d="M0 0 C2.64 0 5.28 0 8 0 C8 5.28 8 10.56 8 16 C13.28 16 18.56 16 24 16 C24 10.72 24 5.44 24 0 C26.97 0 29.94 0 33 0 C33 13.2 33 26.4 33 40 C30.03 40 27.06 40 24 40 C24 34.39 24 28.78 24 23 C18.72 23 13.44 23 8 23 C8 28.61 8 34.22 8 40 C5.03 40 2.06 40 -1 40 C-1.02464775 34.46411467 -1.04283496 28.928261 -1.05493164 23.39233398 C-1.05997244 21.5075627 -1.06680498 19.62279535 -1.07543945 17.73803711 C-1.08751617 15.03498364 -1.09323068 12.33198169 -1.09765625 9.62890625 C-1.10281754 8.78099014 -1.10797882 7.93307404 -1.11329651 7.0594635 C-1.11349195 5.03928932 -1.06206211 3.01922066 -1 1 C-0.67 0.67 -0.34 0.34 0 0 Z " fill="#0F9BC8" transform="translate(121,12)"/>
<path d="M0 0 C2.97 0 5.94 0 9 0 C9.33 4.95 9.66 9.9 10 15 C11.65 14.01 13.3 13.02 15 12 C19.13691212 11.40901255 21.1591675 11.4609424 24.69921875 13.73046875 C28.27606933 18.81336168 27.5327428 23.76429392 27.3125 29.8125 C27.28994141 30.98232422 27.26738281 32.15214844 27.24414062 33.35742188 C27.18532091 36.23958769 27.10317141 39.11913681 27 42 C24.36 42 21.72 42 19 42 C18.97494385 41.44014404 18.9498877 40.88028809 18.92407227 40.3034668 C18.80796255 37.76458695 18.6853042 35.22606447 18.5625 32.6875 C18.52318359 31.80642578 18.48386719 30.92535156 18.44335938 30.01757812 C18.40146484 29.17001953 18.35957031 28.32246094 18.31640625 27.44921875 C18.27974854 26.66893311 18.24309082 25.88864746 18.20532227 25.0847168 C18.05874737 22.80670899 18.05874737 22.80670899 17 20 C14.56282742 20.27034634 14.56282742 20.27034634 12 21 C9.9859044 24.0211434 9.73163404 24.80660017 9.5859375 28.23046875 C9.52792969 29.43413086 9.52792969 29.43413086 9.46875 30.66210938 C9.42234375 31.91217773 9.42234375 31.91217773 9.375 33.1875 C9.31699219 34.4549707 9.31699219 34.4549707 9.2578125 35.74804688 C9.16363721 37.83167524 9.08073325 39.91580753 9 42 C6.03 42 3.06 42 0 42 C0 28.14 0 14.28 0 0 Z " fill="#060608" transform="translate(402,10)"/>
<path d="M0 0 C3.03188585 2.85353962 4.28880167 5.94817718 5.125 10 C5.125 12.31 5.125 14.62 5.125 17 C-3.29 17.495 -3.29 17.495 -11.875 18 C-11.545 19.32 -11.215 20.64 -10.875 22 C-5.34532059 22.71033431 -0.37516964 23.30267176 5.125 22 C5.125 24.31 5.125 26.62 5.125 29 C-1.37471086 30.45743969 -7.95261883 31.00954986 -14.3125 28.8125 C-17.72170514 26.401111 -20.00884878 23.73230245 -21.875 20 C-22.59326164 12.89980711 -22.37020648 7.67815555 -17.875 2 C-12.4287208 -1.92638733 -6.22447319 -2.16503415 0 0 Z M-9.875 5 C-12.21787418 7.67247634 -12.21787418 7.67247634 -12.875 11 C-9.905 11 -6.935 11 -3.875 11 C-4.205 9.35 -4.535 7.7 -4.875 6 C-6.525 5.67 -8.175 5.34 -9.875 5 Z " fill="#070709" transform="translate(318.875,23)"/>
<path d="M0 0 C3.03188585 2.85353962 4.28880167 5.94817718 5.125 10 C5.125 12.31 5.125 14.62 5.125 17 C-3.29 17.495 -3.29 17.495 -11.875 18 C-11.545 19.32 -11.215 20.64 -10.875 22 C-5.34532059 22.71033431 -0.37516964 23.30267176 5.125 22 C5.125 24.31 5.125 26.62 5.125 29 C-1.37471086 30.45743969 -7.95261883 31.00954986 -14.3125 28.8125 C-17.72170514 26.401111 -20.00884878 23.73230245 -21.875 20 C-22.59326164 12.89980711 -22.37020648 7.67815555 -17.875 2 C-12.4287208 -1.92638733 -6.22447319 -2.16503415 0 0 Z M-9.875 5 C-12.21787418 7.67247634 -12.21787418 7.67247634 -12.875 11 C-9.905 11 -6.935 11 -3.875 11 C-4.205 9.35 -4.535 7.7 -4.875 6 C-6.525 5.67 -8.175 5.34 -9.875 5 Z " fill="#0F9CC8" transform="translate(181.875,23)"/>
<path d="M0 0 C3.07365786 1.80803404 4.43019732 2.86039464 6 6 C6.15004973 7.3734635 6.24838006 8.7528526 6.31640625 10.1328125 C6.35830078 10.93847656 6.40019531 11.74414062 6.44335938 12.57421875 C6.48267578 13.41597656 6.52199219 14.25773437 6.5625 15.125 C6.60568359 15.97449219 6.64886719 16.82398437 6.69335938 17.69921875 C6.79954236 19.79928223 6.90028497 21.89961948 7 24 C7.66 24.33 8.32 24.66 9 25 C9 26.98 9 28.96 9 31 C1.25 31.125 1.25 31.125 -1 30 C-1 29.34 -1 28.68 -1 28 C-1.66 28.495 -2.32 28.99 -3 29.5 C-6.81741563 31.40870782 -9.80958277 31.87863587 -14 31 C-16.9838283 29.01078114 -18.60276841 27.61497432 -19.4765625 24.0625 C-19.77202976 19.95706014 -19.2983264 18.37895515 -16.6875 15.0625 C-13.12447062 12.32808211 -10.67560729 11.87426656 -6.3125 11.9375 C-5.10013672 11.95103516 -5.10013672 11.95103516 -3.86328125 11.96484375 C-2.94095703 11.98224609 -2.94095703 11.98224609 -2 12 C-2.66 10.35 -3.32 8.7 -4 7 C-8.51617599 6.92345464 -12.59085217 6.89771304 -17 8 C-17 6.02 -17 4.04 -17 2 C-11.39894473 -0.57401437 -6.07349843 -0.70563467 0 0 Z M-11 20 C-10.67 21.32 -10.34 22.64 -10 24 C-8.20800528 24.78282648 -8.20800528 24.78282648 -6 25 C-3.65373496 23.99033641 -3.65373496 23.99033641 -2 22 C-1.66574265 19.37374861 -1.66574265 19.37374861 -2 17 C-6.27709699 17 -7.55930376 17.70620251 -11 20 Z " fill="#08080A" transform="translate(348,22)"/>
<path d="M0 0 C3.07365786 1.80803404 4.43019732 2.86039464 6 6 C6.15004973 7.3734635 6.24838006 8.7528526 6.31640625 10.1328125 C6.35830078 10.93847656 6.40019531 11.74414062 6.44335938 12.57421875 C6.48267578 13.41597656 6.52199219 14.25773437 6.5625 15.125 C6.60568359 15.97449219 6.64886719 16.82398437 6.69335938 17.69921875 C6.79954236 19.79928223 6.90028497 21.89961948 7 24 C7.66 24.33 8.32 24.66 9 25 C9 26.98 9 28.96 9 31 C1.25 31.125 1.25 31.125 -1 30 C-1 29.34 -1 28.68 -1 28 C-1.66 28.495 -2.32 28.99 -3 29.5 C-6.81741563 31.40870782 -9.80958277 31.87863587 -14 31 C-16.9838283 29.01078114 -18.60276841 27.61497432 -19.4765625 24.0625 C-19.77202976 19.95706014 -19.2983264 18.37895515 -16.6875 15.0625 C-13.12447062 12.32808211 -10.67560729 11.87426656 -6.3125 11.9375 C-5.10013672 11.95103516 -5.10013672 11.95103516 -3.86328125 11.96484375 C-2.94095703 11.98224609 -2.94095703 11.98224609 -2 12 C-2.66 10.35 -3.32 8.7 -4 7 C-8.51617599 6.92345464 -12.59085217 6.89771304 -17 8 C-17 6.02 -17 4.04 -17 2 C-11.39894473 -0.57401437 -6.07349843 -0.70563467 0 0 Z M-11 20 C-10.67 21.32 -10.34 22.64 -10 24 C-8.20800528 24.78282648 -8.20800528 24.78282648 -6 25 C-3.65373496 23.99033641 -3.65373496 23.99033641 -2 22 C-1.66574265 19.37374861 -1.66574265 19.37374861 -2 17 C-6.27709699 17 -7.55930376 17.70620251 -11 20 Z " fill="#109CC8" transform="translate(242,22)"/>
<path d="M0 0 C3.42561087 -0.41905531 6.59223158 -0.61912129 10 0 C12.43990832 2.13961191 13.43792489 4.08412645 15 7 C15.268125 6.4946875 15.53625 5.989375 15.8125 5.46875 C17.07576515 3.37438935 18.22083453 1.68619246 20 0 C22.90516143 -0.63902812 24.99278126 -0.35678866 28 0 C25.49024156 5.10915111 22.86805047 10.08334206 20 15 C20.6496875 15.92683594 21.299375 16.85367188 21.96875 17.80859375 C22.81262221 19.01814391 23.65636558 20.22778397 24.5 21.4375 C24.92925781 22.04916016 25.35851562 22.66082031 25.80078125 23.29101562 C29 27.88671875 29 27.88671875 29 29 C25.27257322 29.34703629 21.71439979 29.53444601 18 29 C14 24.72093023 14 24.72093023 14 21 C13.34 21 12.68 21 12 21 C11.731875 21.5775 11.46375 22.155 11.1875 22.75 C10.795625 23.4925 10.40375 24.235 10 25 C9.62875 25.7425 9.2575 26.485 8.875 27.25 C6.60532144 29.36836666 5.83217179 29.25 2.8125 29.25 C1.554375 29.1675 0.29625 29.085 -1 29 C-0.51789063 28.25234375 -0.03578125 27.5046875 0.4609375 26.734375 C1.09257812 25.74953125 1.72421875 24.7646875 2.375 23.75 C3.00148437 22.77546875 3.62796875 21.8009375 4.2734375 20.796875 C5.65134852 18.56478385 6.88312642 16.36912578 8 14 C7.4225 13.15695313 6.845 12.31390625 6.25 11.4453125 C5.49975807 10.33870565 4.74977126 9.23192581 4 8.125 C3.2575 7.03445312 2.515 5.94390625 1.75 4.8203125 C0 2 0 2 0 0 Z " fill="#109CC9" transform="translate(191,23)"/>
<path d="M0 0 C2.05078125 0.03255208 4.1015625 0.06510417 6.15234375 0.09765625 C6.15234375 2.07765625 6.15234375 4.05765625 6.15234375 6.09765625 C8.13234375 6.09765625 10.11234375 6.09765625 12.15234375 6.09765625 C12.15234375 7.74765625 12.15234375 9.39765625 12.15234375 11.09765625 C10.17234375 11.09765625 8.19234375 11.09765625 6.15234375 11.09765625 C6.48234375 16.70765625 6.81234375 22.31765625 7.15234375 28.09765625 C9.62734375 29.08765625 9.62734375 29.08765625 12.15234375 30.09765625 C12.19506475 31.7637753 12.19298207 33.4314851 12.15234375 35.09765625 C10.59283824 36.65716176 9.06357244 36.37962323 6.90234375 36.47265625 C6.1340625 36.52164063 5.36578125 36.570625 4.57421875 36.62109375 C0.72542487 35.78925765 -0.57563911 34.28806345 -2.84765625 31.09765625 C-3.44435383 27.6357751 -3.32091212 24.28468779 -3.16015625 20.78515625 C-3.13759766 19.85380859 -3.11503906 18.92246094 -3.09179688 17.96289062 C-3.03307703 15.67281665 -2.95102483 13.3860775 -2.84765625 11.09765625 C-3.83765625 11.09765625 -4.82765625 11.09765625 -5.84765625 11.09765625 C-5.84765625 9.44765625 -5.84765625 7.79765625 -5.84765625 6.09765625 C-4.85765625 6.09765625 -3.86765625 6.09765625 -2.84765625 6.09765625 C-2.86828125 5.29328125 -2.88890625 4.48890625 -2.91015625 3.66015625 C-2.82452531 0.14928781 -2.82452531 0.14928781 0 0 Z " fill="#08080A" transform="translate(383.84765625,16.90234375)"/>
<path d="M0 0 C2.97 0 5.94 0 9 0 C9 13.86 9 27.72 9 42 C6.03 42 3.06 42 0 42 C0 28.14 0 14.28 0 0 Z " fill="#060608" transform="translate(362,10)"/>
<path d="M0 0 C0.90492188 0.02320312 1.80984375 0.04640625 2.7421875 0.0703125 C4.10730469 0.09738281 4.10730469 0.09738281 5.5 0.125 C6.19867188 0.14820312 6.89734375 0.17140625 7.6171875 0.1953125 C7.67129874 2.61228122 7.71091028 5.02803037 7.7421875 7.4453125 C7.76732422 8.46818359 7.76732422 8.46818359 7.79296875 9.51171875 C7.82903799 13.22685 7.80531485 16.10439134 5.6171875 19.1953125 C2.84618356 20.58081447 0.6837169 20.3830592 -2.3828125 20.1953125 C-3.3728125 19.5353125 -4.3628125 18.8753125 -5.3828125 18.1953125 C-5.3828125 17.2053125 -5.3828125 16.2153125 -5.3828125 15.1953125 C-2.7428125 15.5253125 -0.1028125 15.8553125 2.6171875 16.1953125 C2.9471875 15.5353125 3.2771875 14.8753125 3.6171875 14.1953125 C3.0603125 14.4221875 2.5034375 14.6490625 1.9296875 14.8828125 C-0.3828125 15.1953125 -0.3828125 15.1953125 -3.0703125 14.0703125 C-5.3828125 12.1953125 -5.3828125 12.1953125 -6.3203125 9.8203125 C-6.39348518 6.74705994 -5.78096208 4.91802484 -4.3828125 2.1953125 C-2.3828125 0.1953125 -2.3828125 0.1953125 0 0 Z M-1.3828125 3.1953125 C-2.73899749 4.32065355 -2.73899749 4.32065355 -2.4453125 7.2578125 C-2.4246875 8.2271875 -2.4040625 9.1965625 -2.3828125 10.1953125 C-0.4028125 11.1853125 -0.4028125 11.1853125 1.6171875 12.1953125 C3.96692568 10.29776106 3.96692568 10.29776106 3.7421875 7.0703125 C3.7009375 6.1215625 3.6596875 5.1728125 3.6171875 4.1953125 C1.96104093 3.81312483 0.29261726 3.48136148 -1.3828125 3.1953125 Z " fill="#474848" transform="translate(171.3828125,69.8046875)"/>
<path d="M0 0 C2.09765625 0.4375 2.09765625 0.4375 4.16015625 2.9375 C4.46953125 3.7625 4.77890625 4.5875 5.09765625 5.4375 C3.77765625 5.7675 2.45765625 6.0975 1.09765625 6.4375 C0.76765625 5.7775 0.43765625 5.1175 0.09765625 4.4375 C-2.93168866 3.77977572 -2.93168866 3.77977572 -5.90234375 3.4375 C-5.90234375 4.7575 -5.90234375 6.0775 -5.90234375 7.4375 C-5.27585938 7.55867188 -4.649375 7.67984375 -4.00390625 7.8046875 C-3.18664062 7.97226563 -2.369375 8.13984375 -1.52734375 8.3125 C-0.71523437 8.47492188 0.096875 8.63734375 0.93359375 8.8046875 C3.09765625 9.4375 3.09765625 9.4375 5.09765625 11.4375 C5.47265625 14.375 5.47265625 14.375 5.09765625 17.4375 C2.75704997 20.24622754 1.24362988 20.42185997 -2.40234375 20.8125 C-6.02831962 20.42400259 -7.53253961 20.1864728 -9.90234375 17.4375 C-10.15234375 14.75 -10.15234375 14.75 -9.90234375 12.4375 C-8.91234375 12.4375 -7.92234375 12.4375 -6.90234375 12.4375 C-6.57234375 13.4275 -6.24234375 14.4175 -5.90234375 15.4375 C-2.93234375 15.9325 -2.93234375 15.9325 0.09765625 16.4375 C0.42765625 15.4475 0.75765625 14.4575 1.09765625 13.4375 C0.38738281 13.16035156 -0.32289063 12.88320312 -1.0546875 12.59765625 C-1.97378906 12.23542969 -2.89289063 11.87320313 -3.83984375 11.5 C-4.75636719 11.14035156 -5.67289063 10.78070313 -6.6171875 10.41015625 C-8.90234375 9.4375 -8.90234375 9.4375 -9.90234375 8.4375 C-10.36433205 4.04861111 -10.36433205 4.04861111 -8.66796875 1.8046875 C-5.87933906 -0.35464965 -3.41812205 -0.08892675 0 0 Z " fill="#464646" transform="translate(243.90234375,64.5625)"/>
<path d="M0 0 C2.09765625 0.4375 2.09765625 0.4375 4.16015625 2.9375 C4.46953125 3.7625 4.77890625 4.5875 5.09765625 5.4375 C3.77765625 5.7675 2.45765625 6.0975 1.09765625 6.4375 C0.76765625 5.7775 0.43765625 5.1175 0.09765625 4.4375 C-2.93168866 3.77977572 -2.93168866 3.77977572 -5.90234375 3.4375 C-5.90234375 4.7575 -5.90234375 6.0775 -5.90234375 7.4375 C-5.27585937 7.55867188 -4.649375 7.67984375 -4.00390625 7.8046875 C-3.18664062 7.97226563 -2.369375 8.13984375 -1.52734375 8.3125 C-0.71523437 8.47492188 0.096875 8.63734375 0.93359375 8.8046875 C3.09765625 9.4375 3.09765625 9.4375 5.09765625 11.4375 C5.47265625 14.375 5.47265625 14.375 5.09765625 17.4375 C2.75704997 20.24622754 1.24362988 20.42185997 -2.40234375 20.8125 C-6.02831962 20.42400259 -7.53253961 20.1864728 -9.90234375 17.4375 C-10.15234375 14.75 -10.15234375 14.75 -9.90234375 12.4375 C-8.91234375 12.4375 -7.92234375 12.4375 -6.90234375 12.4375 C-6.57234375 13.4275 -6.24234375 14.4175 -5.90234375 15.4375 C-2.93234375 15.9325 -2.93234375 15.9325 0.09765625 16.4375 C0.42765625 15.4475 0.75765625 14.4575 1.09765625 13.4375 C0.38738281 13.16035156 -0.32289063 12.88320312 -1.0546875 12.59765625 C-1.97378906 12.23542969 -2.89289063 11.87320313 -3.83984375 11.5 C-4.75636719 11.14035156 -5.67289062 10.78070313 -6.6171875 10.41015625 C-8.90234375 9.4375 -8.90234375 9.4375 -9.90234375 8.4375 C-10.36433205 4.04861111 -10.36433205 4.04861111 -8.66796875 1.8046875 C-5.87933906 -0.35464965 -3.41812205 -0.08892675 0 0 Z " fill="#464646" transform="translate(130.90234375,64.5625)"/>
<path d="M0 0 C5.94 0 11.88 0 18 0 C19.93395001 3.86790003 20.23289353 5.1500459 20.125 9.25 C20.10695313 10.14203125 20.08890625 11.0340625 20.0703125 11.953125 C20.04710937 12.62859375 20.02390625 13.3040625 20 14 C18.68 14 17.36 14 16 14 C16 10.37 16 6.74 16 3 C14.68 3.33 13.36 3.66 12 4 C11.67 7.3 11.34 10.6 11 14 C10.01 14 9.02 14 8 14 C7.67 10.7 7.34 7.4 7 4 C6.01 4 5.02 4 4 4 C3.67 7.3 3.34 10.6 3 14 C2.01 14 1.02 14 0 14 C0 9.38 0 4.76 0 0 Z " fill="#494A4B" transform="translate(261,70)"/>
<path d="M0 0 C3.3 0 6.6 0 10 0 C13.43071786 3.43071786 13.43071786 3.43071786 13.4375 7.5 C13.32281106 10.56169615 13.2684684 11.64892594 11.375 14.125 C8.25969781 15.27274291 6.17780914 14.79445229 3 14 C3 15.98 3 17.96 3 20 C2.01 20 1.02 20 0 20 C0 13.4 0 6.8 0 0 Z M5 3 C2.7508092 4.82703227 2.7508092 4.82703227 2.75 7.5 C2.7508092 10.17296773 2.7508092 10.17296773 5 12 C7.78237655 11.59471099 7.78237655 11.59471099 10 10 C10.2500773 7.54190002 10.2500773 7.54190002 10 5 C9.34 4.34 8.68 3.68 8 3 C7.01 3 6.02 3 5 3 Z " fill="#464747" transform="translate(285,70)"/>
<path d="M0 0 C0.99 0 1.98 0 3 0 C3 6.27 3 12.54 3 19 C-6 20 -6 20 -8.5 18.875 C-10.42118388 16.47352015 -10.85680999 15.07858517 -11 12 C-10.1875 8.75 -10.1875 8.75 -9 6 C-6.29120665 4.64560332 -3.99066732 4.93498549 -1 5 C-0.67 3.35 -0.34 1.7 0 0 Z M-6 8 C-6.67673447 11.40320934 -6.67673447 11.40320934 -7 15 C-6.34 15.66 -5.68 16.32 -5 17 C-2.21762345 16.59471099 -2.21762345 16.59471099 0 15 C0.2500773 12.54190002 0.2500773 12.54190002 0 10 C-0.66 9.34 -1.32 8.68 -2 8 C-3.32 8 -4.64 8 -6 8 Z " fill="#464646" transform="translate(359,65)"/>
<path d="M0 0 C3.5625 0.4375 3.5625 0.4375 5.5 2.75 C6.5625 5.4375 6.5625 5.4375 6.5625 8.4375 C3.2625 8.4375 -0.0375 8.4375 -3.4375 8.4375 C-2.4475 9.9225 -2.4475 9.9225 -1.4375 11.4375 C-0.1175 11.4375 1.2025 11.4375 2.5625 11.4375 C2.5625 10.7775 2.5625 10.1175 2.5625 9.4375 C3.8825 9.7675 5.2025 10.0975 6.5625 10.4375 C5.9375 12.375 5.9375 12.375 4.5625 14.4375 C1.02270825 15.61743058 -0.77110541 15.70405784 -4.25 14.3125 C-6.4375 12.4375 -6.4375 12.4375 -7.375 10.0625 C-7.44817268 6.98924744 -6.83564958 5.16021234 -5.4375 2.4375 C-3.4375 0.4375 -3.4375 0.4375 0 0 Z M-2.4375 3.4375 C-2.7675 4.0975 -3.0975 4.7575 -3.4375 5.4375 C-1.4575 5.4375 0.5225 5.4375 2.5625 5.4375 C2.2325 4.7775 1.9025 4.1175 1.5625 3.4375 C0.2425 3.4375 -1.0775 3.4375 -2.4375 3.4375 Z " fill="#494949" transform="translate(339.4375,69.5625)"/>
<path d="M0 0 C3.5625 0.4375 3.5625 0.4375 5.5 2.75 C6.5625 5.4375 6.5625 5.4375 6.5625 8.4375 C3.2625 8.4375 -0.0375 8.4375 -3.4375 8.4375 C-2.4475 9.9225 -2.4475 9.9225 -1.4375 11.4375 C-0.1175 11.4375 1.2025 11.4375 2.5625 11.4375 C2.5625 10.7775 2.5625 10.1175 2.5625 9.4375 C3.8825 9.7675 5.2025 10.0975 6.5625 10.4375 C5.9375 12.375 5.9375 12.375 4.5625 14.4375 C1.02270825 15.61743058 -0.77110541 15.70405784 -4.25 14.3125 C-6.4375 12.4375 -6.4375 12.4375 -7.375 10.0625 C-7.44817268 6.98924744 -6.83564958 5.16021234 -5.4375 2.4375 C-3.4375 0.4375 -3.4375 0.4375 0 0 Z M-2.4375 3.4375 C-2.7675 4.0975 -3.0975 4.7575 -3.4375 5.4375 C-1.4575 5.4375 0.5225 5.4375 2.5625 5.4375 C2.2325 4.7775 1.9025 4.1175 1.5625 3.4375 C0.2425 3.4375 -1.0775 3.4375 -2.4375 3.4375 Z " fill="#494949" transform="translate(189.4375,69.5625)"/>
<path d="M0 0 C1.32 0 2.64 0 4 0 C4.99 2.64 5.98 5.28 7 8 C7.99 5.36 8.98 2.72 10 0 C11.32 0 12.64 0 14 0 C13.03904219 3.01391314 12.02662875 6.00785979 11 9 C10.69835937 9.92039062 10.39671875 10.84078125 10.0859375 11.7890625 C9.76882812 12.68367188 9.45171875 13.57828125 9.125 14.5 C8.83882812 15.3353125 8.55265625 16.170625 8.2578125 17.03125 C7 19 7 19 4.3671875 19.78125 C3.58601562 19.8534375 2.80484375 19.925625 2 20 C2 19.01 2 18.02 2 17 C2.66 16.67 3.32 16.34 4 16 C3.39891424 10.34979382 1.92471317 5.33835539 0 0 Z " fill="#474848" transform="translate(208,70)"/>
<path d="M0 0 C0.99 0 1.98 0 3 0 C3.33 3.63 3.66 7.26 4 11 C4.99 11 5.98 11 7 11 C7.66 7.37 8.32 3.74 9 0 C9.99 0 10.98 0 12 0 C12 4.62 12 9.24 12 14 C10.576875 14.20625 9.15375 14.4125 7.6875 14.625 C6.88699219 14.74101563 6.08648437 14.85703125 5.26171875 14.9765625 C3 15 3 15 0 13 C-0.29296875 9.9609375 -0.29296875 9.9609375 -0.1875 6.375 C-0.16042969 5.18648438 -0.13335937 3.99796875 -0.10546875 2.7734375 C-0.07066406 1.85820313 -0.03585938 0.94296875 0 0 Z " fill="#454646" transform="translate(140,70)"/>
<path d="M0 0 C2.97 0 5.94 0 9 0 C9 1.32 9 2.64 9 4 C6.69 3.67 4.38 3.34 2 3 C2 3.66 2 4.32 2 5 C2.66 5 3.32 5 4 5 C4 5.99 4 6.98 4 8 C3.34 8 2.68 8 2 8 C2 11.63 2 15.26 2 19 C1.01 19 0.02 19 -1 19 C-1 15.37 -1 11.74 -1 8 C-1.99 8 -2.98 8 -4 8 C-4 7.01 -4 6.02 -4 5 C-3.01 5 -2.02 5 -1 5 C-0.67 3.35 -0.34 1.7 0 0 Z " fill="#474748" transform="translate(320,65)"/>
<path d="M0 0 C1.32 0.33 2.64 0.66 4 1 C4 6.94 4 12.88 4 19 C2.68 19 1.36 19 0 19 C0 12.73 0 6.46 0 0 Z " fill="#5D6A71" transform="translate(302,65)"/>
<path d="M0 0 C2.64 0 5.28 0 8 0 C8 0.99 8 1.98 8 3 C6.68 3.33 5.36 3.66 4 4 C3.67 7.3 3.34 10.6 3 14 C2.01 14 1.02 14 0 14 C0 9.38 0 4.76 0 0 Z " fill="#444444" transform="translate(199,70)"/>
<path d="M0 0 C2.64 0 5.28 0 8 0 C8 0.99 8 1.98 8 3 C6.68 3.33 5.36 3.66 4 4 C3.67 7.3 3.34 10.6 3 14 C2.01 14 1.02 14 0 14 C0 9.38 0 4.76 0 0 Z " fill="#444444" transform="translate(156,70)"/>
<path d="M0 0 C1.32 0 2.64 0 4 0 C4 4.62 4 9.24 4 14 C2.68 14 1.36 14 0 14 C0 9.38 0 4.76 0 0 Z " fill="#525353" transform="translate(325,70)"/>
<path d="M0 0 C0.99 0 1.98 0 3 0 C3 4.62 3 9.24 3 14 C2.01 14 1.02 14 0 14 C0 9.38 0 4.76 0 0 Z " fill="#444444" transform="translate(310,70)"/>
<path d="M0 0 C0.99 0 1.98 0 3 0 C3 4.62 3 9.24 3 14 C2.01 14 1.02 14 0 14 C0 9.38 0 4.76 0 0 Z " fill="#444444" transform="translate(253,70)"/>
<path d="M0 0 C0.99 0 1.98 0 3 0 C3 1.32 3 2.64 3 4 C2.01 4 1.02 4 0 4 C0 2.68 0 1.36 0 0 Z " fill="#454545" transform="translate(310,65)"/>
<path d="M0 0 C0.99 0 1.98 0 3 0 C3 1.32 3 2.64 3 4 C2.01 4 1.02 4 0 4 C0 2.68 0 1.36 0 0 Z " fill="#454545" transform="translate(253,65)"/>
</svg>
