<svg version="1.1" id="Layer_1" xmlns:x="ns_extend;" xmlns:i="ns_ai;" xmlns:graph="ns_graphs;" xmlns="http://www.w3.org/2000/svg" xmlns:xlink="http://www.w3.org/1999/xlink" x="0px" y="0px" viewBox="0 0 330.6 75" style="enable-background:new 0 0 330.6 75;" xml:space="preserve">
 <style type="text/css">
  .st0{fill-rule:evenodd;clip-rule:evenodd;fill:#2CB7DF;}
	.st1{fill-rule:evenodd;clip-rule:evenodd;fill:#263077;}
 </style>
 <metadata>
  <sfw xmlns="ns_sfw;">
   <slices>
   </slices>
   <sliceSourceBounds bottomLeftOrigin="true" height="75" width="330.6" x="-230.6" y="0.1">
   </sliceSourceBounds>
  </sfw>
 </metadata>
 <desc>
  Practo Logo
 </desc>
 <g>
  <path class="st0" d="M25.5,36.1c0-7-5.7-12.7-12.7-12.7C5.7,23.3,0,29,0,36.1c0,7,5.7,12.7,12.7,12.7
		C19.8,48.8,25.5,43.1,25.5,36.1 M330.6,36.1c0-7-5.7-12.7-12.7-12.7c-7,0-12.7,5.7-12.7,12.7c0,7,5.7,12.7,12.7,12.7
		C324.9,48.8,330.6,43.1,330.6,36.1">
  </path>
  <path class="st1" d="M195.4,47.5c-6.2,0-11.2-4.6-11.2-11.4s5-11.4,11.2-11.4c4,0,7.4,1.9,9.5,5.1l10.4-7.4
		c-4.4-6.3-11.6-10.4-19.9-10.4c-13.3,0-24.1,10.8-24.1,24.1c0,13.3,10.8,24.1,24.1,24.1c7.9,0,15-3.5,20.4-10.9L205.3,42
		C203.1,45.2,199.8,47.5,195.4,47.5 M141.3,47.5c-6.2,0-11.2-4.6-11.2-11.4s5-11.4,11.2-11.4c6.2,0,11.2,4.6,11.2,11.4
		C152.5,42.9,147.4,47.5,141.3,47.5z M152.7,17.2c-3.2-3-7.5-5.3-13.5-5.3c-11.5,0-22.1,9.7-22.1,24.1c0,14.5,10.5,24.1,22.1,24.1
		c5.6,0,9.8-2.2,13-5.3v4h12.9V13.3h-12.5C152.7,13.3,152.7,17.2,152.7,17.2z M98.4,18.6v-5.3H86v45.5h12.9V37.2
		c0-9.1,5-11.5,10.6-11.5c1.4,0,2.8,0.1,4.4,0.5V13.3c-0.9-0.3-2.3-0.5-3.7-0.5C106.6,12.8,101.3,14,98.4,18.6 M233.3,0h-12.9v44.4
		c0,9.1,5.5,14.8,16.5,14.8c4.4,0,8.5-0.6,11.2-1.4V46.2c-2.5,0.7-5.4,1.3-8.9,1.3c-3.6,0-5.9-1-5.9-4.8V24.6h15V13.2h-15V0
		 M275.6,47.5c-6.2,0-11.2-4.6-11.2-11.4s5-11.4,11.2-11.4c6.2,0,11.2,4.6,11.2,11.4C286.8,42.9,281.8,47.5,275.6,47.5z M275.6,11.9
		c-13.3,0-24.1,10.8-24.1,24.1c0,13.3,10.8,24.1,24.1,24.1c13.3,0,24.1-10.8,24.1-24.1C299.8,22.7,289,11.9,275.6,11.9z M55.7,47.5
		c-6.2,0-11.2-4.6-11.2-11.4c0-6.8,5-11.4,11.2-11.4c6.2,0,11.2,4.6,11.2,11.4S61.9,47.5,55.7,47.5z M57.7,11.9
		c-6,0-10.3,2.3-13.5,5.3v-3.9H31.8V75h12.9l0-20.2c3.2,3.2,7.5,5.3,13,5.3c11.6,0,22.1-9.7,22.1-24.1
		C79.8,21.6,69.2,11.9,57.7,11.9z">
  </path>
 </g>
</svg>