<svg width="157" height="24" viewBox="0 0 157 24" fill="none" xmlns="http://www.w3.org/2000/svg">
<path d="M16.212 24C25.1656 24 32.4239 16.6502 32.4239 7.58371C32.4239 4.84791 31.763 2.26842 30.5941 0H30.4817L30.4815 0.000959876L30.4808 0.00425097L30.4781 0.0176351C30.4757 0.0295062 30.4721 0.0471701 30.4672 0.0700271C30.4576 0.115747 30.4432 0.18221 30.4244 0.264623C30.3868 0.429539 30.3317 0.657859 30.2616 0.911359C30.1201 1.42318 29.9221 2.02018 29.691 2.41019C29.21 3.2221 28.5664 4.20064 26.6232 6.66033C25.2591 8.3869 24.1178 10.8385 23.6666 12.0267C23.241 10.9832 22.2329 9.18009 20.7039 7.63181C20.2494 7.17163 19.7538 6.70996 19.2837 6.27208L19.2833 6.27178L19.2821 6.27058C19.0794 6.08182 18.8815 5.8975 18.6938 5.71962C18.0613 5.12055 17.553 4.60292 17.3237 4.21601C17.088 3.81812 16.8488 3.25439 16.6669 2.78371C16.5765 2.54966 16.5011 2.34096 16.4483 2.19083C16.4219 2.11578 16.4012 2.05544 16.3872 2.01395C16.3801 1.99321 16.3748 1.97718 16.3712 1.9664L16.3671 1.95421L16.3661 1.95119L16.3659 1.95047L16.212 1.50969L16.0582 1.95028L16.0579 1.95119L16.0569 1.95421L16.0528 1.9664C16.0492 1.97718 16.0438 1.99321 16.0368 2.01395C16.0227 2.05544 16.002 2.11578 15.9757 2.19083C15.9229 2.34096 15.8475 2.54966 15.757 2.78371C15.5751 3.25439 15.336 3.81812 15.1002 4.21601C14.871 4.60292 14.3626 5.12055 13.7302 5.71962C13.5421 5.89778 13.3439 6.08242 13.1409 6.27149L13.1404 6.27202C12.6703 6.70992 12.1746 7.1716 11.7201 7.63181C10.1911 9.18008 9.18295 10.9831 8.75736 12.0267C8.30622 10.8385 7.16486 8.38688 5.8008 6.66032C3.85755 4.20063 3.21404 3.22208 2.73295 2.41017C2.50186 2.02016 2.3039 1.42316 2.16237 0.911343C2.09227 0.657843 2.03715 0.429523 1.99957 0.264607C1.98079 0.182194 1.96641 0.115731 1.95676 0.0700113C1.95193 0.0471543 1.94829 0.0294904 1.94587 0.0176193L1.94316 0.00423518L1.94235 0.000173535L1.82976 0.000143261C0.660864 2.26853 0 4.84797 0 7.58371C0 16.6502 7.25834 24 16.212 24Z" fill="#980438"/>
<path d="M48.6008 14.757V23.1384H46.0762V2.57141H58.2989C60.8646 2.57141 62.835 3.09718 64.2102 4.14873C65.5853 5.17966 66.2729 6.61265 66.2729 8.4477C66.2729 9.25182 66.1293 9.97347 65.8419 10.6126C65.5546 11.2312 65.1851 11.7982 64.7336 12.3137C64.282 12.8291 63.656 13.3034 62.8555 13.7364C62.055 14.1693 61.1416 14.4477 60.1154 14.5714C60.4848 15.9529 60.8543 17.1384 61.2237 18.1281C61.6137 19.1178 62.0345 19.8807 62.486 20.4168C62.9376 20.9322 63.5328 21.19 64.2717 21.19C64.7849 21.19 65.4622 21.025 66.3037 20.6951V23.1693C65.1748 23.5405 64.1896 23.726 63.3481 23.726C62.486 23.726 61.7574 23.5199 61.1622 23.1075C60.5875 22.6745 60.0128 21.8601 59.4381 20.6642C58.8839 19.4683 58.2476 17.4992 57.5292 14.757H48.6008ZM48.6008 12.4992H58.5144C59.5817 12.4992 60.4848 12.2724 61.2237 11.8188C61.9832 11.3446 62.4963 10.7982 62.7631 10.1797C63.0505 9.5611 63.1942 9.02502 63.1942 8.57141C63.1942 7.41677 62.7323 6.53017 61.8087 5.91162C60.9056 5.27244 59.5407 4.95285 57.7139 4.95285L48.6008 5.01471V12.4992Z" fill="#707A89"/>
<path d="M92.4558 2.57141V23.1384H89.9312V13.8291H75.4918V23.1384H72.9672V2.57141H75.4918V11.2621H89.9312V2.57141H92.4558Z" fill="#707A89"/>
<path d="M119.661 20.6642V23.1384H100.819V2.57141H119.076V5.07657H103.313V11.2931H116.552V13.8601H103.313V20.6642H119.661Z" fill="#707A89"/>
<path d="M128.162 23.1384H125.638V2.57141H128.162V23.1384Z" fill="#707A89"/>
<path d="M154.279 23.1384L150.923 16.3034H139.531L136.176 23.1384H133.466L143.534 2.57141H146.921L156.988 23.1384H154.279ZM145.042 5.07657L140.732 13.8291H149.691L145.412 5.07657H145.042Z" fill="#707A89"/>
</svg>
